<svg xmlns="http://www.w3.org/2000/svg" width="28.512" height="26.033" viewBox="0 0 28.512 26.033">
  <path id="Icon_material-add-a-photo" data-name="Icon material-add-a-photo" d="M3.719,5.219V1.5H6.2V5.219H9.917V7.7H6.2v3.719H3.719V7.7H0V5.219Zm3.719,7.438V8.938h3.719V5.219h8.678L22.1,7.7h3.93a2.487,2.487,0,0,1,2.479,2.479V25.054a2.487,2.487,0,0,1-2.479,2.479H6.2a2.487,2.487,0,0,1-2.479-2.479v-12.4Zm8.678,11.157a6.2,6.2,0,1,0-6.2-6.2A6.2,6.2,0,0,0,16.116,23.814Zm-3.967-6.2a3.967,3.967,0,1,0,3.967-3.967A3.963,3.963,0,0,0,12.149,17.616Z" transform="translate(0 -1.5)"/>
</svg>
