<svg xmlns="http://www.w3.org/2000/svg" width="59.476" height="55.753" viewBox="0 0 59.476 55.753">
  <g id="chat_1_" data-name="chat (1)" transform="translate(0 -16.026)">
    <path id="Path_12366" data-name="Path 12366" d="M159.328,220.515a18.494,18.494,0,0,0,5.169-12.649,19.045,19.045,0,0,0-7.434-14.74c-.1,13.253-12.568,24.032-27.877,24.032H118.826c4.007,6.609,12.15,11.151,21.511,11.151h22.3a1.859,1.859,0,0,0,1.719-1.15,1.839,1.839,0,0,0-.407-2.021Z" transform="translate(-105.024 -156.529)" fill="#00a1ed"/>
    <path id="Path_12367" data-name="Path 12367" d="M24.163,16.026C10.84,16.026,0,25.19,0,36.469A18.516,18.516,0,0,0,5.172,49.118L.549,53.741a1.856,1.856,0,0,0,1.313,3.171h22.3c13.323,0,24.16-9.164,24.16-20.443S37.485,16.026,24.163,16.026Z" transform="translate(0)" fill="#0c537a"/>
    <g id="Group_12470" data-name="Group 12470" transform="translate(11.154 30.893)">
      <path id="Path_12368" data-name="Path 12368" d="M120.186,144.026h-22.3a1.858,1.858,0,0,0,0,3.717h22.3a1.858,1.858,0,1,0,0-3.717Z" transform="translate(-96.026 -144.026)" fill="#fafafa"/>
      <path id="Path_12369" data-name="Path 12369" d="M112.752,208.026H97.884a1.858,1.858,0,0,0,0,3.717h14.867a1.858,1.858,0,0,0,0-3.717Z" transform="translate(-96.026 -200.592)" fill="#fafafa"/>
    </g>
  </g>
</svg>
