<svg xmlns="http://www.w3.org/2000/svg" width="28.636" height="21.477" viewBox="0 0 28.636 21.477">
  <path id="id-card" d="M25.355,3H3.281A3.284,3.284,0,0,0,0,6.281V21.2a3.284,3.284,0,0,0,3.281,3.281H25.355A3.284,3.284,0,0,0,28.636,21.2V6.281A3.284,3.284,0,0,0,25.355,3ZM8.949,7.773a2.983,2.983,0,1,1-2.983,2.983A2.987,2.987,0,0,1,8.949,7.773Zm5.369,11.037a.9.9,0,0,1-.895.895H4.474a.9.9,0,0,1-.895-.895v-.6a3.284,3.284,0,0,1,3.281-3.281h4.176a3.284,3.284,0,0,1,3.281,3.281Zm9.844.895H17.6a.895.895,0,1,1,0-1.79h6.562a.895.895,0,1,1,0,1.79Zm0-4.773H17.6a.895.895,0,1,1,0-1.79h6.562a.895.895,0,1,1,0,1.79Zm0-4.773H17.6a.895.895,0,1,1,0-1.79h6.562a.895.895,0,1,1,0,1.79Z" transform="translate(0 -3)"/>
</svg>
