<svg xmlns="http://www.w3.org/2000/svg" width="36.512" height="39.725" viewBox="0 0 36.512 39.725">
  <g id="Groupe_10155" data-name="Groupe 10155" transform="translate(0 0)">
    <path id="Exclusion_2" data-name="Exclusion 2" d="M28.905,28.9H7.606a6.171,6.171,0,0,1-2.465-.571,8.347,8.347,0,0,1-2.473-1.711A9.361,9.361,0,0,1,0,19.775a19.458,19.458,0,0,1,1.664-7.583,31.382,31.382,0,0,1,3.661-6.3A39.221,39.221,0,0,1,10.649,0H25.862a38.966,38.966,0,0,1,5.325,5.894,31.381,31.381,0,0,1,3.661,6.3,19.457,19.457,0,0,1,1.664,7.583,9.365,9.365,0,0,1-2.663,6.844,8.328,8.328,0,0,1-2.472,1.711A6.186,6.186,0,0,1,28.905,28.9Zm-16.759-13.7a.49.49,0,0,0-.49.49v1.157a.49.49,0,0,0,.49.49h1.229a8.553,8.553,0,0,0,8.468,6.351,10.121,10.121,0,0,0,2.493-.318.491.491,0,0,0,.359-.57l-.36-1.815a.489.489,0,0,0-.589-.383,8.556,8.556,0,0,1-1.854.221,5.255,5.255,0,0,1-4.956-3.487h4.639a.487.487,0,0,0,.478-.382l.26-1.157a.489.489,0,0,0-.478-.6H16.359a8.816,8.816,0,0,1,.006-1.724h5.982a.487.487,0,0,0,.478-.385l.266-1.214a.49.49,0,0,0-.478-.594H16.969a5.125,5.125,0,0,1,4.8-3.062,8.007,8.007,0,0,1,1.544.169.49.49,0,0,0,.571-.352l.489-1.811a.491.491,0,0,0-.058-.388.482.482,0,0,0-.323-.22,11.861,11.861,0,0,0-2.15-.213A8.692,8.692,0,0,0,13.5,11.288h-1.35a.49.49,0,0,0-.49.49v1.214a.49.49,0,0,0,.49.49h.88a12.008,12.008,0,0,0-.007,1.724Z" transform="translate(0 10.824)"/>
    <path id="Tracé_7648" data-name="Tracé 7648" d="M44.815,4.029h-4.2a4.58,4.58,0,0,0-6.8,0H29.6A1.524,1.524,0,0,0,28.192,6.11l1.411,4H44.815l1.411-4a1.524,1.524,0,0,0-1.411-2.082Z" transform="translate(-18.953 -2.516)"/>
  </g>
</svg>
