<svg xmlns="http://www.w3.org/2000/svg" width="13.787" height="15" viewBox="0 0 13.787 15">
  <g id="Groupe_10459" data-name="Groupe 10459" transform="translate(-2111 -6357)">
    <path id="Exclusion_4" data-name="Exclusion 4" d="M10.915,10.913H2.872a2.33,2.33,0,0,1-.931-.215,3.152,3.152,0,0,1-.934-.646A3.535,3.535,0,0,1,0,7.467,7.347,7.347,0,0,1,.628,4.6,11.85,11.85,0,0,1,2.011,2.226,14.81,14.81,0,0,1,4.021,0H9.765a14.713,14.713,0,0,1,2.011,2.226A11.849,11.849,0,0,1,13.158,4.6a7.347,7.347,0,0,1,.628,2.863,3.536,3.536,0,0,1-1.006,2.584,3.145,3.145,0,0,1-.933.646A2.336,2.336,0,0,1,10.915,10.913ZM4.587,5.742a.185.185,0,0,0-.185.185v.437a.185.185,0,0,0,.185.185h.464a3.23,3.23,0,0,0,3.2,2.4,3.821,3.821,0,0,0,.941-.12.185.185,0,0,0,.135-.215l-.136-.685a.185.185,0,0,0-.222-.144,3.231,3.231,0,0,1-.7.083A1.984,1.984,0,0,1,6.4,6.548H8.147a.184.184,0,0,0,.18-.144l.1-.437a.185.185,0,0,0-.18-.225H6.177a3.329,3.329,0,0,1,0-.651H8.438a.184.184,0,0,0,.181-.145l.1-.459a.185.185,0,0,0-.181-.224H6.408A1.935,1.935,0,0,1,8.22,3.106,3.023,3.023,0,0,1,8.8,3.17a.185.185,0,0,0,.216-.133L9.2,2.354a.185.185,0,0,0-.022-.147.182.182,0,0,0-.122-.083,4.479,4.479,0,0,0-.812-.08A3.282,3.282,0,0,0,5.1,4.262h-.51a.185.185,0,0,0-.185.185v.458a.185.185,0,0,0,.185.185h.332a4.534,4.534,0,0,0,0,.651Z" transform="translate(2111 6361.087)" fill="#00a1ed"/>
    <path id="Tracé_7890" data-name="Tracé 7890" d="M34.4,3.087H32.815a1.729,1.729,0,0,0-2.569,0H28.659a.575.575,0,0,0-.533.786l.533,1.511H34.4l.533-1.511a.575.575,0,0,0-.533-.786Z" transform="translate(2086.363 6354.484)" fill="#00a1ed"/>
  </g>
</svg>
