<svg xmlns="http://www.w3.org/2000/svg" width="33.22" height="33.22" viewBox="0 0 33.22 33.22">
  <path id="Icon_awesome-facebook-square" data-name="Icon awesome-facebook-square" d="M29.661,2.25H3.559A3.559,3.559,0,0,0,0,5.809v26.1A3.559,3.559,0,0,0,3.559,35.47H13.737V24.176H9.065V18.86h4.672V14.808c0-4.609,2.744-7.154,6.946-7.154a28.3,28.3,0,0,1,4.117.359v4.523H22.481a2.658,2.658,0,0,0-3,2.872V18.86h5.1l-.816,5.316H19.484V35.47H29.661a3.559,3.559,0,0,0,3.559-3.559V5.809A3.559,3.559,0,0,0,29.661,2.25Z" transform="translate(0 -2.25)" fill="#3b5998"/>
</svg>
