<svg xmlns="http://www.w3.org/2000/svg" xmlns:xlink="http://www.w3.org/1999/xlink" width="299.25" height="32.792" viewBox="0 0 299.25 32.792">
  <defs>
    <clipPath id="clip-path">
      <path id="Tracé_78" data-name="Tracé 78" d="M275.3,226.989a18.831,18.831,0,0,0-.3-3.354H259.56v6.342h8.824a7.543,7.543,0,0,1-3.272,4.949v4.114h5.3a15.99,15.99,0,0,0,4.889-12.051Zm0,0" transform="translate(-259.56 -223.635)" fill="none"/>
    </clipPath>
    <clipPath id="clip-path-2">
      <path id="Tracé_79" data-name="Tracé 79" d="M115.135,303.1a15.654,15.654,0,0,0,10.851-3.972l-5.3-4.114a9.892,9.892,0,0,1-14.727-5.195h-5.478v4.248a16.39,16.39,0,0,0,14.652,9.033Zm0,0" transform="translate(-100.483 -289.822)" fill="none"/>
    </clipPath>
    <clipPath id="clip-path-3">
      <path id="Tracé_80" data-name="Tracé 80" d="M88.771,186.535a9.692,9.692,0,0,1,0-6.23v-4.248H83.293a16.417,16.417,0,0,0,0,14.727l5.478-4.248Zm0,0" transform="translate(-81.549 -176.057)" fill="none"/>
    </clipPath>
    <clipPath id="clip-path-4">
      <path id="Tracé_81" data-name="Tracé 81" d="M115.135,84.51a8.858,8.858,0,0,1,6.268,2.452l4.7-4.7a15.757,15.757,0,0,0-10.97-4.27,16.39,16.39,0,0,0-14.652,9.033l5.478,4.248a9.771,9.771,0,0,1,9.174-6.76Zm0,0" transform="translate(-100.483 -77.989)" fill="none"/>
    </clipPath>
  </defs>
  <g id="Groupe_45" data-name="Groupe 45" transform="translate(0 0)">
    <text id="Connectez-vous_avec_google" data-name="Connectez-vous avec google" transform="translate(44.25 22.038)" font-size="17" font-family="Poppins-Medium, Poppins" font-weight="500"><tspan x="0" y="0">Connectez-vous avec google</tspan></text>
    <g id="Groupe_37" data-name="Groupe 37" transform="translate(0 0)">
      <g id="Groupe_38" data-name="Groupe 38" transform="translate(16.396 13.415)">
        <g id="Groupe_37-2" data-name="Groupe 37" transform="translate(0 0)" clip-path="url(#clip-path)">
          <rect id="Rectangle_315" data-name="Rectangle 315" width="33.958" height="33.622" transform="translate(-9.109 -9.109)" fill="#3e82f1"/>
        </g>
      </g>
      <g id="Groupe_40" data-name="Groupe 40" transform="translate(1.744 19.511)">
        <g id="Groupe_39" data-name="Groupe 39" transform="translate(0 0)" clip-path="url(#clip-path-2)">
          <rect id="Rectangle_316" data-name="Rectangle 316" width="43.721" height="31.498" transform="translate(-9.109 -9.109)" fill="#32a753"/>
        </g>
      </g>
      <g id="Groupe_42" data-name="Groupe 42" transform="translate(0 9.033)">
        <g id="Groupe_41" data-name="Groupe 41" transform="translate(0 0)" clip-path="url(#clip-path-3)">
          <rect id="Rectangle_317" data-name="Rectangle 317" width="25.439" height="32.944" transform="translate(-9.109 -9.109)" fill="#f9bb00"/>
        </g>
      </g>
      <g id="Groupe_44" data-name="Groupe 44" transform="translate(1.744 0)">
        <g id="Groupe_43" data-name="Groupe 43" transform="translate(0)" clip-path="url(#clip-path-4)">
          <rect id="Rectangle_318" data-name="Rectangle 318" width="43.84" height="31.498" transform="translate(-9.109 -9.109)" fill="#e74133"/>
        </g>
      </g>
    </g>
  </g>
</svg>
