<svg id="Group_12465" data-name="Group 12465" xmlns="http://www.w3.org/2000/svg" xmlns:xlink="http://www.w3.org/1999/xlink" width="675.619" height="604.87" viewBox="0 0 675.619 604.87">
  <defs>
    <clipPath id="clip-path">
      <rect id="Rectangle_2290" data-name="Rectangle 2290" width="675.619" height="604.87" fill="none"/>
    </clipPath>
    <clipPath id="clip-path-2">
      <path id="Path_12247" data-name="Path 12247" d="M286.406,318.938c-24.072.425-19.81,19.813-19.81,19.813-12.356-4.474-11.932,6.328-11.932,6.328-18.746-6.235-27.053,11.311-11.927,11.311H373.358c36.679,0-39.845-8.48-39.845-8.48s4.871-5.113-3.863-11.289-24.827,3.622-24.827,3.622,5.551-21.313-17.726-21.31c-.226,0-.46,0-.692.006" transform="translate(-234.906 -318.932)" fill="none"/>
    </clipPath>
    <linearGradient id="linear-gradient" x1="-4.987" y1="2.722" x2="-4.973" y2="2.722" gradientUnits="objectBoundingBox">
      <stop offset="0" stop-color="#dbe4ff"/>
      <stop offset="0.676" stop-color="#fff"/>
      <stop offset="1" stop-color="#fff"/>
    </linearGradient>
    <clipPath id="clip-path-4">
      <path id="Path_12272" data-name="Path 12272" d="M312.043,478.962l-66.112-5.412-29.309,25.311-26.877-3.1-28.107,30.21-26.024-1.224L63.045,664.892l576.748-5.949L379.738,432.514Z" transform="translate(-63.045 -432.514)" fill="none"/>
    </clipPath>
    <linearGradient id="linear-gradient-2" x1="-0.884" y1="0.924" x2="-0.882" y2="0.924" gradientUnits="objectBoundingBox">
      <stop offset="0" stop-color="#dbe4ff"/>
      <stop offset="1" stop-color="#fff"/>
    </linearGradient>
  </defs>
  <g id="Group_12464" data-name="Group 12464" clip-path="url(#clip-path)">
    <g id="Group_12451" data-name="Group 12451" transform="translate(132.489 179.88)">
      <g id="Group_12450" data-name="Group 12450" clip-path="url(#clip-path-2)">
        <rect id="Rectangle_2277" data-name="Rectangle 2277" width="39.441" height="182.822" transform="translate(-7.701 37.453) rotate(-89.377)" fill="url(#linear-gradient)"/>
      </g>
    </g>
    <g id="Group_12453" data-name="Group 12453" transform="translate(0 0.001)">
      <g id="Group_12452" data-name="Group 12452" clip-path="url(#clip-path)">
        <path id="Path_12248" data-name="Path 12248" d="M171.709,424.026a30.3,30.3,0,0,0-30.3,30.3c0,16.734,30.3,52.188,30.3,52.188s30.3-35.454,30.3-52.188a30.3,30.3,0,0,0-30.3-30.3m0,46.3A15.994,15.994,0,1,1,187.7,454.33a15.991,15.991,0,0,1-15.994,15.992" transform="translate(-61.652 -184.873)" fill="#0c537a"/>
        <path id="Path_12249" data-name="Path 12249" d="M339.527,138.534,289.835,168.8,181.05,235.042a1.113,1.113,0,0,0,.461,2.056l16.836,1.8a1.1,1.1,0,0,0,.377-.025L407.571,189.03Z" transform="translate(-78.704 -60.4)" fill="#a6e1fd"/>
        <path id="Path_12250" data-name="Path 12250" d="M212.508,270.447l188.627-45.019L359.8,210.946,212.131,270.471a1.1,1.1,0,0,0,.377-.025" transform="translate(-92.487 -91.971)" fill="#c1ebff"/>
        <path id="Path_12251" data-name="Path 12251" d="M183.16,236.887l158.477-96.508L407.285,189.1l.286-.068-68.044-50.5L181.05,235.042a1.113,1.113,0,0,0,.461,2.056l1.3.136a1.078,1.078,0,0,1,.346-.348" transform="translate(-78.704 -60.4)" fill="#90d9fc"/>
        <path id="Path_12252" data-name="Path 12252" d="M261.988,11.964C247.1,24.309,273.305,81.642,379.774,127.17s213.455,67.518,266.407,48.448C674.5,165.423,353.8,7.439,303.617.591c-24-3.274-33.193,8.132-33.193,8.132a14.6,14.6,0,0,0-8.435,3.24" transform="translate(-112.551 -0.001)" fill="#90d9fc"/>
        <path id="Path_12253" data-name="Path 12253" d="M530.246,61.525,868.315,1.282a1.236,1.236,0,0,1,.914.2l6.752,4.678a1.226,1.226,0,0,1-.283,2.159L601.226,104.959,529.644,64.408a1.587,1.587,0,0,1,.6-2.883" transform="translate(-230.612 -0.551)" fill="#a6e1fd"/>
        <path id="Path_12254" data-name="Path 12254" d="M284.4,11.816s8.633-5.266,21.461-3.858l-3.338,7.2Z" transform="translate(-123.998 -3.366)" fill="#c1ebff"/>
        <path id="Path_12255" data-name="Path 12255" d="M324.2,9.073l-2.988,7.558,18.328,5.1,2.409-6.328A53.77,53.77,0,0,0,324.2,9.073" transform="translate(-140.046 -3.956)" fill="#c1ebff"/>
        <path id="Path_12256" data-name="Path 12256" d="M636.812,184.9a147.037,147.037,0,0,1-27.793,3.812c-57.915,2.874-143.74-18.505-229.242-55.062-67.732-28.958-102.98-62.7-115.829-86.592-7.355-13.672-7.381-24.122-1.962-28.614a14.6,14.6,0,0,1,8.436-3.243S311.3,6.5,438.444,76.617C561.911,144.711,632.822,182.755,636.812,184.9" transform="translate(-112.55 -6.476)" fill="#aedff7"/>
        <path id="Path_12257" data-name="Path 12257" d="M613.5,205.571c-57.915,2.874-143.74-18.505-229.242-55.062-67.731-28.958-102.98-62.7-115.829-86.592a10.793,10.793,0,0,1,3.605-6.8,14.623,14.623,0,0,1,8.437-3.237s40.879-8.7,168.016,61.415c76.081,41.955,132.2,72.508,165.013,90.28" transform="translate(-117.034 -23.34)" fill="#c1ebff"/>
        <path id="Path_12258" data-name="Path 12258" d="M608.382,95.153l27.481,15.569L909.2,14.482Z" transform="translate(-265.25 -6.315)" fill="#c1ebff"/>
        <path id="Path_12259" data-name="Path 12259" d="M529.643,64.408l.8.531L868.315,4.734a1.237,1.237,0,0,1,.913.2l5.427,3.759,1.042-.373a1.225,1.225,0,0,0,.283-2.159l-6.752-4.678a1.232,1.232,0,0,0-.913-.2L530.246,61.525a1.587,1.587,0,0,0-.6,2.883" transform="translate(-230.612 -0.552)" fill="#90d9fc"/>
        <path id="Path_12260" data-name="Path 12260" d="M665.173,75.182s12.7-1.473,30.39,14.084,19.5,23.762,16.941,28.353-32.379,3.753-55.4-13.1Z" transform="translate(-286.494 -32.763)" fill="#dbe4ff"/>
        <path id="Path_12261" data-name="Path 12261" d="M695.563,89.267c-17.69-15.557-30.39-14.084-30.39-14.084l-.015.062c4.548,1.506,10.65,4.563,17.669,10.736,15.242,13.4,16.806,20.471,14.6,24.429-1.935,3.467-21.894,3.339-40.148-6.511l-.169.618c23.019,16.855,52.835,17.694,55.4,13.1s.748-12.8-16.941-28.353" transform="translate(-286.494 -32.763)" fill="#93dcff"/>
        <path id="Path_12262" data-name="Path 12262" d="M670.787,92.166c-1.081,8.478-7.816,14.607-15.038,13.684s-12.2-8.546-11.117-17.023,7.816-14.609,15.037-13.687,12.2,8.546,11.118,17.026" transform="translate(-280.99 -32.721)" fill="#e7edff"/>
        <path id="Path_12263" data-name="Path 12263" d="M670.457,93.356c-.885,6.937-6.042,12.087-11.863,12.177a9.074,9.074,0,0,1-1.44-.075c-6.389-.817-10.8-7.561-9.837-15.063s6.918-12.92,13.307-12.1a10.028,10.028,0,0,1,4.15,1.506c4.023,2.541,6.417,7.825,5.683,13.556" transform="translate(-282.168 -34.1)" fill="#90d9fc"/>
        <path id="Path_12264" data-name="Path 12264" d="M674.782,94.583c-.885,6.937-6.042,12.087-11.863,12.177-4.017-2.541-6.41-7.826-5.684-13.554.885-6.933,6.042-12.084,11.863-12.18,4.023,2.541,6.417,7.825,5.683,13.556" transform="translate(-286.493 -35.328)" fill="#c1ebff"/>
        <path id="Path_12265" data-name="Path 12265" d="M679.772,101.785a4.45,4.45,0,0,1-4.024,4.131,2.8,2.8,0,0,1-.488-.025c-2.169-.279-3.663-2.566-3.338-5.11s2.347-4.386,4.516-4.107a3.415,3.415,0,0,1,1.407.509,4.7,4.7,0,0,1,1.928,4.6" transform="translate(-292.933 -42.138)" fill="#90d9fc"/>
        <path id="Path_12266" data-name="Path 12266" d="M311.837,207.92s12.7-1.473,30.389,14.084,19.5,23.758,16.941,28.35-32.38,3.756-55.4-13.1Z" transform="translate(-132.441 -90.636)" fill="#dbe4ff"/>
        <path id="Path_12267" data-name="Path 12267" d="M342.225,222.006c-17.69-15.557-30.389-14.084-30.389-14.084l-.017.059c4.548,1.506,10.648,4.563,17.669,10.736,15.242,13.408,16.806,20.472,14.6,24.429-1.935,3.466-21.894,3.342-40.148-6.508l-.169.618c23.017,16.855,52.833,17.691,55.4,13.1s.748-12.793-16.941-28.35" transform="translate(-132.441 -90.636)" fill="#93dcff"/>
        <path id="Path_12268" data-name="Path 12268" d="M317.449,224.9c-1.084,8.48-7.816,14.607-15.038,13.684s-12.2-8.543-11.118-17.023,7.817-14.607,15.04-13.684,12.2,8.546,11.117,17.023" transform="translate(-126.937 -90.594)" fill="#e7edff"/>
        <path id="Path_12269" data-name="Path 12269" d="M317.118,226.089c-.885,6.937-6.042,12.087-11.862,12.177a9.038,9.038,0,0,1-1.438-.072c-6.39-.817-10.8-7.561-9.838-15.064s6.916-12.923,13.307-12.105a10.108,10.108,0,0,1,4.149,1.506c4.024,2.541,6.416,7.825,5.683,13.556" transform="translate(-128.116 -91.971)" fill="#90d9fc"/>
        <path id="Path_12270" data-name="Path 12270" d="M321.443,227.316c-.885,6.937-6.042,12.087-11.862,12.177-4.018-2.541-6.41-7.822-5.683-13.554.887-6.934,6.042-12.084,11.862-12.18,4.024,2.541,6.416,7.825,5.683,13.556" transform="translate(-132.441 -93.198)" fill="#c1ebff"/>
        <path id="Path_12271" data-name="Path 12271" d="M326.435,234.522a4.447,4.447,0,0,1-4.024,4.129,2.846,2.846,0,0,1-.488-.025c-2.169-.276-3.663-2.563-3.338-5.11s2.347-4.383,4.514-4.107a3.459,3.459,0,0,1,1.407.513,4.7,4.7,0,0,1,1.929,4.6" transform="translate(-138.881 -100.009)" fill="#90d9fc"/>
      </g>
    </g>
    <g id="Group_12455" data-name="Group 12455" transform="translate(35.558 243.941)">
      <g id="Group_12454" data-name="Group 12454" clip-path="url(#clip-path-4)">
        <rect id="Rectangle_2279" data-name="Rectangle 2279" width="233.975" height="577.39" transform="translate(-0.644 232.376) rotate(-89.841)" fill="url(#linear-gradient-2)"/>
      </g>
    </g>
    <g id="Group_12463" data-name="Group 12463" transform="translate(0 0.001)">
      <g id="Group_12462" data-name="Group 12462" clip-path="url(#clip-path)">
        <path id="Path_12273" data-name="Path 12273" d="M287.687,527.48l22.447,8.878-4.473,20.335,38.213-51.421-29.309,25.311Z" transform="translate(-125.429 -220.295)" fill="#c1ebff"/>
        <path id="Path_12274" data-name="Path 12274" d="M418.451,542.852,423.2,554.6l43.8,1.814-38.782-6.784Z" transform="translate(-182.441 -236.68)" fill="#c1ebff"/>
        <path id="Path_12275" data-name="Path 12275" d="M217.734,597.265l3.992,23.656-8.169-18.831-21.848-6.048Z" transform="translate(-83.584 -259.87)" fill="#c1ebff"/>
        <path id="Path_12276" data-name="Path 12276" d="M504.524,478.961l49.682-20.506-21.327,31,44.6-31.847,31.558,6.958-36.816-32.055Z" transform="translate(-219.968 -188.573)" fill="#c1ebff"/>
        <path id="Path_12277" data-name="Path 12277" d="M174.874,723.515c0-21.459-25.645-94.361-29.041-94.361-3.377,0-29,72.9-29,94.361,0,20.7,12.077,37.557,27.31,38.747l-.282,27.9h3.959l-.283-27.9c15.234-1.189,27.334-18.052,27.334-38.747" transform="translate(-50.939 -274.307)" fill="#c1ebff"/>
        <path id="Path_12278" data-name="Path 12278" d="M168.2,764.763a.109.109,0,0,1-.112-.1v-117.5a.109.109,0,0,1,.112-.1.106.106,0,0,1,.109.1v117.5a.106.106,0,0,1-.109.1" transform="translate(-73.285 -282.114)" fill="#dbe4ff"/>
        <path id="Path_12279" data-name="Path 12279" d="M159.67,698.236a.114.114,0,0,1-.064-.019l-11.036-6.971a.093.093,0,0,1-.025-.139.115.115,0,0,1,.152-.022l11.036,6.971a.092.092,0,0,1,.025.136.11.11,0,0,1-.089.043" transform="translate(-64.755 -301.3)" fill="#dbe4ff"/>
        <path id="Path_12280" data-name="Path 12280" d="M168.2,748a.124.124,0,0,1-.081-.028.092.092,0,0,1,0-.139l18.554-15.918a.121.121,0,0,1,.157,0,.093.093,0,0,1,0,.14l-18.553,15.917a.1.1,0,0,1-.076.028" transform="translate(-73.285 -319.096)" fill="#dbe4ff"/>
        <path id="Path_12281" data-name="Path 12281" d="M168.2,670.888a.122.122,0,0,1-.08-.031.091.091,0,0,1,0-.14l6.335-5.514a.119.119,0,0,1,.156,0,.091.091,0,0,1,0,.14l-6.335,5.511a.112.112,0,0,1-.078.031" transform="translate(-73.285 -290.012)" fill="#dbe4ff"/>
        <path id="Path_12282" data-name="Path 12282" d="M154.431,691.684a.111.111,0,0,1-.1-.068l-2.146-5.552a.1.1,0,0,1,.069-.124.114.114,0,0,1,.142.062l2.143,5.551a.1.1,0,0,1-.068.125.172.172,0,0,1-.037.006" transform="translate(-66.348 -299.063)" fill="#dbe4ff"/>
        <path id="Path_12283" data-name="Path 12283" d="M182.575,737.179a.1.1,0,0,1-.107-.125l4.409-13.963a.112.112,0,0,1,.137-.065.1.1,0,0,1,.077.121l-4.411,13.96a.109.109,0,0,1-.105.072" transform="translate(-79.553 -315.232)" fill="#dbe4ff"/>
        <path id="Path_12284" data-name="Path 12284" d="M150.567,783.869a.113.113,0,0,1-.086-.037L127.669,759.1a.094.094,0,0,1,.015-.139.121.121,0,0,1,.157.015l22.809,24.731a.091.091,0,0,1-.016.139.123.123,0,0,1-.068.022" transform="translate(-55.652 -330.892)" fill="#dbe4ff"/>
        <path id="Path_12285" data-name="Path 12285" d="M142.33,763.744a.109.109,0,0,1-.109-.078l-4.656-19.533a.1.1,0,0,1,.085-.115.109.109,0,0,1,.131.074l4.656,19.533a.1.1,0,0,1-.085.115.055.055,0,0,1-.022,0" transform="translate(-59.976 -324.386)" fill="#dbe4ff"/>
        <path id="Path_12286" data-name="Path 12286" d="M168.2,829.09a.11.11,0,0,1-.087-.037.091.091,0,0,1,.02-.14l20.76-14.206a.118.118,0,0,1,.155.019.091.091,0,0,1-.02.136l-20.762,14.209a.127.127,0,0,1-.067.019" transform="translate(-73.286 -355.197)" fill="#dbe4ff"/>
        <path id="Path_12287" data-name="Path 12287" d="M191.731,831.349a.065.065,0,0,1-.023,0l-8.4-1.631a.1.1,0,0,1-.083-.115.109.109,0,0,1,.13-.074l8.4,1.628a.1.1,0,0,1,.084.118.1.1,0,0,1-.107.078" transform="translate(-79.883 -361.666)" fill="#dbe4ff"/>
        <path id="Path_12288" data-name="Path 12288" d="M111.108,694.951c0-24.454-29.221-107.53-33.091-107.53-3.846,0-33.045,83.076-33.045,107.53,0,23.581,13.761,42.795,31.122,44.152l-.32,31.791h4.511l-.32-31.791c17.357-1.358,31.144-20.571,31.144-44.152" transform="translate(-19.607 -256.112)" fill="#c1ebff"/>
        <path id="Path_12289" data-name="Path 12289" d="M103.486,739.1a.144.144,0,0,1-.151-.134V593.087a.151.151,0,0,1,.3,0V738.969a.144.144,0,0,1-.151.134" transform="translate(-45.053 -258.522)" fill="#bac8ff"/>
        <path id="Path_12290" data-name="Path 12290" d="M98.14,634.139a.152.152,0,0,1-.117-.05l-6.915-7.508a.124.124,0,0,1,.02-.19.157.157,0,0,1,.211.019l6.916,7.508a.124.124,0,0,1-.02.189.158.158,0,0,1-.1.031" transform="translate(-39.707 -273.089)" fill="#bac8ff"/>
        <path id="Path_12291" data-name="Path 12291" d="M95.164,627.237a.145.145,0,0,1-.151-.136v-4.753a.153.153,0,0,1,.3,0V627.1a.146.146,0,0,1-.152.136" transform="translate(-41.425 -271.281)" fill="#bac8ff"/>
        <path id="Path_12292" data-name="Path 12292" d="M103.485,663.317a.165.165,0,0,1-.117-.05.128.128,0,0,1,.022-.193l12.1-8.779a.167.167,0,0,1,.213.019.124.124,0,0,1-.021.189l-12.106,8.782a.154.154,0,0,1-.095.031" transform="translate(-45.053 -285.256)" fill="#bac8ff"/>
        <path id="Path_12293" data-name="Path 12293" d="M119.516,663.054h-.023l-5.3-.736a.14.14,0,0,1-.126-.156.15.15,0,0,1,.173-.112l5.3.737a.14.14,0,0,1,.128.155.148.148,0,0,1-.149.112" transform="translate(-49.732 -288.649)" fill="#bac8ff"/>
        <path id="Path_12294" data-name="Path 12294" d="M95.1,702.7a.151.151,0,0,1-.125-.062L84.139,688.205a.128.128,0,0,1,.041-.19.162.162,0,0,1,.209.037l10.842,14.435a.126.126,0,0,1-.042.187.164.164,0,0,1-.084.025" transform="translate(-36.673 -299.96)" fill="#bac8ff"/>
        <path id="Path_12295" data-name="Path 12295" d="M90.852,689.431a.15.15,0,0,1-.146-.1l-3.911-15.044a.135.135,0,0,1,.113-.162.154.154,0,0,1,.18.1L91,689.266a.135.135,0,0,1-.112.162.152.152,0,0,1-.036,0" transform="translate(-37.84 -293.911)" fill="#bac8ff"/>
        <path id="Path_12296" data-name="Path 12296" d="M103.485,761.871a.164.164,0,0,1-.113-.043.127.127,0,0,1,.014-.192l27.5-21.226a.165.165,0,0,1,.214.015.125.125,0,0,1-.016.19l-27.5,21.226a.166.166,0,0,1-.1.031" transform="translate(-45.053 -322.799)" fill="#bac8ff"/>
        <path id="Path_12297" data-name="Path 12297" d="M126.827,749.315a.137.137,0,0,1-.062-.012.131.131,0,0,1-.076-.18l7.244-14.169a.161.161,0,0,1,.2-.065.128.128,0,0,1,.073.177l-7.243,14.168a.152.152,0,0,1-.136.081" transform="translate(-55.229 -320.401)" fill="#bac8ff"/>
        <path id="Path_12298" data-name="Path 12298" d="M928.951,1057.127c0,3.321-77.882,6.017-173.952,6.017s-173.952-2.7-173.952-6.017,77.882-6.02,173.952-6.02,173.952,2.7,173.952,6.02" transform="translate(-253.332 -458.275)" fill="#e7edff"/>
        <path id="Path_12299" data-name="Path 12299" d="M614.076,908.08c0,7.182-137.464,13-307.038,13S0,915.262,0,908.08s137.466-13,307.038-13,307.038,5.822,307.038,13" transform="translate(0 -390.247)" fill="#c1ebff"/>
        <path id="Path_12300" data-name="Path 12300" d="M680.342,1051.107l-2.718,6.467s-8.383.084-10.433,0a.568.568,0,0,1-.34-1.006c3.2-2.728,13.491-5.461,13.491-5.461" transform="translate(-290.652 -458.275)" fill="#212529"/>
        <path id="Path_12301" data-name="Path 12301" d="M711.825,632.444H881.073a35.44,35.44,0,0,0,35.438-35.438V240.83a35.44,35.44,0,0,0-35.438-35.442H711.825a35.44,35.44,0,0,0-35.438,35.442V597.006a35.439,35.439,0,0,0,35.438,35.438" transform="translate(-294.9 -89.548)" fill="#212529"/>
        <path id="Path_12302" data-name="Path 12302" d="M717.65,218.75a27.935,27.935,0,0,0-27.9,27.905V602.831a27.937,27.937,0,0,0,27.9,27.905H886.9a27.937,27.937,0,0,0,27.9-27.905V246.655a27.935,27.935,0,0,0-27.9-27.905Z" transform="translate(-300.724 -95.374)" fill="#393f44"/>
        <path id="Path_12303" data-name="Path 12303" d="M913.778,250.152V606.328a23.711,23.711,0,0,1-.468,4.682,23.344,23.344,0,0,1-5.526,10.944c-.221.248-.453.491-.68.73a23.348,23.348,0,0,1-13.069,6.741,23.863,23.863,0,0,1-3.642.28H721.141c-.427,0-.852-.01-1.275-.037a23.369,23.369,0,0,1-22.1-23.339V250.152a23.382,23.382,0,0,1,23.376-23.388h31.618a4.72,4.72,0,0,1,4.719,4.718v2.14a11.441,11.441,0,0,0,11.441,11.441h73.708a11.445,11.445,0,0,0,11.441-11.441v-2.14a4.715,4.715,0,0,1,4.719-4.718h31.606a23.384,23.384,0,0,1,23.385,23.388" transform="translate(-304.22 -98.868)" fill="#fff"/>
        <path id="Path_12304" data-name="Path 12304" d="M913.774,250.149a23.385,23.385,0,0,0-23.384-23.385H858.78a4.718,4.718,0,0,0-4.719,4.718v2.14a11.437,11.437,0,0,1-11.439,11.438h-73.71a11.437,11.437,0,0,1-11.438-11.438v-2.14a4.718,4.718,0,0,0-4.718-4.718H721.144a23.385,23.385,0,0,0-23.384,23.385v5.417H913.774Z" transform="translate(-304.218 -98.868)" fill="#adb5bd"/>
        <path id="Path_12305" data-name="Path 12305" d="M1003.052,251.484h-.666v-1.01a.285.285,0,0,0-.286-.285H991.46a.285.285,0,0,0-.285.285v4.93a.285.285,0,0,0,.285.286h10.64a.285.285,0,0,0,.286-.286v-1.012h.666a.286.286,0,0,0,.286-.283V251.77a.289.289,0,0,0-.286-.286m-1.786,3.215H998.32V251.18h2.946a.129.129,0,0,1,.13.13v3.262a.128.128,0,0,1-.13.127" transform="translate(-432.145 -109.081)" fill="#fff"/>
        <path id="Path_12306" data-name="Path 12306" d="M1029.88,253.5h-1.626a.293.293,0,0,0-.3.292v3.339h2.215V253.8a.293.293,0,0,0-.294-.292" transform="translate(-448.182 -110.526)" fill="#fff"/>
        <path id="Path_12307" data-name="Path 12307" d="M1035.157,250.9h-1.628a.293.293,0,0,0-.293.292V256h2.215V251.2a.293.293,0,0,0-.294-.292" transform="translate(-450.483 -109.393)" fill="#fff"/>
        <path id="Path_12308" data-name="Path 12308" d="M1040.431,248.3H1038.8a.3.3,0,0,0-.294.295v6.269h2.215V248.6a.3.3,0,0,0-.294-.295" transform="translate(-452.783 -108.26)" fill="#fff"/>
        <path id="Path_12309" data-name="Path 12309" d="M1045.708,245.711h-1.626a.293.293,0,0,0-.294.292v7.735H1046V246a.292.292,0,0,0-.294-.292" transform="translate(-455.083 -107.129)" fill="#fff"/>
        <path id="Path_12310" data-name="Path 12310" d="M913.778,638.385v32.767a23.7,23.7,0,0,1-.468,4.681,23.344,23.344,0,0,1-5.526,10.944c-.221.248-.453.491-.68.73a23.348,23.348,0,0,1-13.069,6.741q-5.869-4.753-12.722-10.291-.711-.574-1.412-1.159c-.471-.391-.933-.786-1.4-1.187-.418-.354-.823-.711-1.235-1.068-.379-.339-.76-.677-1.134-1.019-.258-.233-.516-.463-.775-.705-.337-.308-.669-.618-1-.923-.395-.376-.791-.752-1.18-1.125q-2.838-2.731-5.541-5.635c-.347-.369-.691-.742-1.034-1.118-.363-.4-.726-.8-1.081-1.2q-1.834-2.045-3.594-4.165c-.348-.416-.7-.839-1.039-1.258q-1.377-1.687-2.715-3.411c-.385-.5-.77-1-1.149-1.5q-1.083-1.435-2.147-2.889c-.328-.444-.648-.885-.964-1.336-.242-.336-.484-.674-.722-1.016q-2.585-3.662-5.019-7.449c-.237-.376-.479-.748-.716-1.125,0,0,0,.006.009.006a281.308,281.308,0,0,1-22.411-44.229A113.488,113.488,0,0,1,793.8,623.238a.16.16,0,0,0-.037.021c-.206.1-.407.2-.6.286a.894.894,0,0,1-.088.041c-.18.084-.343.165-.506.239a1.008,1.008,0,0,1-.121.056c-.15.068-.291.136-.427.2a1.293,1.293,0,0,1-.126.059c-.127.056-.248.115-.365.161a1.149,1.149,0,0,1-.127.059c-.1.046-.2.09-.289.128-.048.019-.09.04-.132.056-.079.037-.159.072-.227.1l-.11.046c-.064.025-.121.053-.174.074-.031.01-.052.019-.084.031s-.085.037-.118.047-.056.028-.083.037a.243.243,0,0,1-.041.016.227.227,0,0,1-.043.015c.026,1.05.037,2.088.037,3.129v.658c-.006,1.016-.017,2.035-.042,3.041-.006.121-.006.243-.011.364-.026.969-.064,1.935-.112,2.889,0,.128-.01.255-.014.379q-.081,1.552-.191,3.085-.017.182-.026.354-.245,3.169-.617,6.263c-.009.068-.015.134-.026.2a137.458,137.458,0,0,1-15.984,49.256H721.141c-.427,0-.852-.01-1.275-.037,6.9-26.75,14.082-54.9,19.807-76.434.206-.786.433-1.572.658-2.352,9.743-33.13,38.487-64.962,51.584-78.2a2.521,2.521,0,0,1-1.931-2.209c-1.2-12.155-1.749-23.3-1.834-33.478a93.178,93.178,0,0,1-23.05,2.78,96.914,96.914,0,0,1-21.916-2.348c.152-.553.289-1.116.427-1.687.027-.121.053-.236.08-.358.126-.553.247-1.118.359-1.68.02-.1.037-.2.058-.295.036-.212.073-.429.11-.646-20.724-5.085-35.776-20.959-46.452-38.623V419.806a65.7,65.7,0,0,0,42.846,22.457c-.564-2.526-.938-3.986-.938-3.986,30.8-3.346,48.425-11.8,57.181-17.52-.006-.072-.006-.133-.011-.208v-.009c-.006-.422,0-.845.011-1.268.006-.146.011-.3.016-.447.006-.18.016-.354.026-.534a3.515,3.515,0,0,1-2.209.345c-1.819-.46-2.788-6.086-2.583-11.963-5.22-6.595-8.136-27.337-3.992-30.331,3.675-2.65,10.957.7,16.329,8.369,10.817-1.184,9.625,17.554,2.387,24.615a51.584,51.584,0,0,1,.527,5.53c.649-.021,1.387-.037,2.2-.037.3,0,.607,0,.924.006.243.006.5.006.753.016h.116c.252.006.506.009.769.021h.017c.779.025,1.606.069,2.482.121.121.01.249.012.375.025l.67.047c.154.012.311.028.469.037.215.022.433.037.649.059.19.016.385.038.575.053.284.025.563.059.854.084s.584.062.885.1c.18.022.368.05.553.069.242.031.486.059.734.1.189.022.385.047.58.072.258.04.516.074.78.118.184.025.363.053.547.078.328.053.66.108.994.159l.379.065c.452.078.911.158,1.379.246.138.028.28.052.418.081.348.062.691.13,1.038.2.175.031.343.068.512.106.342.068.679.143,1.024.217l.49.109c.421.1.843.2,1.275.3.079.016.164.037.244.059.522.124,1.048.258,1.581.4.1.028.205.056.306.087.426.109.853.233,1.286.354.152.041.3.087.459.13.4.115.808.236,1.213.357.148.05.295.09.448.137.486.155.969.307,1.46.472a1.652,1.652,0,0,1,.18.056c.575.19,1.149.385,1.73.591.068.028.141.052.214.081.491.174.981.351,1.477.538.147.059.29.109.438.167.437.171.881.339,1.323.516l.437.178c.517.208,1.034.425,1.555.646.059.028.117.053.18.081.6.258,1.207.528,1.819.8.053.021.105.05.159.074.533.242,1.064.5,1.6.755.142.069.284.143.432.212.458.227.923.457,1.385.7.149.074.3.152.444.227.522.273,1.049.547,1.576.839.073.037.142.072.216.114.623.336,1.244.69,1.867,1.05.036.019.078.047.115.069q.838.489,1.676,1c.149.087.3.183.444.274.464.289.932.578,1.4.879.158.1.317.2.469.307q.769.494,1.535,1.016c.095.062.185.127.28.19q.931.643,1.865,1.314l.112.078c.557.413,1.123.826,1.686,1.255.152.115.306.239.458.354.453.354.913.705,1.372,1.074.163.134.331.265.5.4.491.391.975.8,1.46,1.208.116.094.233.19.341.283q.92.783,1.83,1.6c.043.034.081.072.116.1.554.5,1.1,1.01,1.656,1.525.159.152.315.3.474.453.438.422.876.845,1.307,1.277.18.174.355.348.527.522.455.453.9.916,1.356,1.385.132.143.269.28.407.422.59.622,1.174,1.255,1.76,1.907.037.037.068.081.105.115.533.6,1.07,1.208,1.6,1.826.165.193.328.389.5.584.406.484.817.975,1.223,1.475.179.223.359.444.537.665.418.516.828,1.05,1.244,1.581.147.19.295.382.438.571q.837,1.1,1.667,2.234c.031.05.068.1.1.149.511.7,1.013,1.417,1.513,2.149.163.239.326.482.491.718q.569.838,1.127,1.7c.179.267.354.541.533.821.376.587.748,1.18,1.123,1.789.153.239.306.484.46.73.516.854,1.026,1.715,1.538,2.594.023.044.043.081.063.121.486.839.96,1.693,1.434,2.557l.46.854c.348.646.69,1.292,1.028,1.954.168.326.337.653.5.979.342.665.676,1.339,1.008,2.025.147.3.295.6.442.9q.7,1.473,1.392,2.989h-.053a.187.187,0,0,1-.059.006h-.027c-.073.006-.179.012-.315.016h-.022c-.073.006-.146.012-.231.015h-.02c-.086.006-.18.012-.28.015-.011,0-.021,0-.026.006-.107.007-.211.01-.328.022h-.031c-.116.01-.248.016-.38.025-.006,0-.011.006-.016.006-.138.01-.286.022-.443.031h-.006c-.732.065-1.634.149-2.667.271,8.425,28.659-3.717,47.522-19.681,59.609,21.425,33.559,24.585,86.99,24.585,86.99a91.143,91.143,0,0,1,16.295,13.476" transform="translate(-304.22 -163.691)" fill="#e7edff"/>
        <path id="Path_12311" data-name="Path 12311" d="M819.535,905.067a2.156,2.156,0,1,0,2.157,2.156,2.157,2.157,0,0,0-2.157-2.156m80.892,0a2.156,2.156,0,1,0,2.159,2.156,2.155,2.155,0,0,0-2.159-2.156m-20.223,0a2.156,2.156,0,1,0,2.157,2.156,2.155,2.155,0,0,0-2.157-2.156m-20.223,0a2.156,2.156,0,1,0,2.157,2.156,2.155,2.155,0,0,0-2.157-2.156m-20.223,0a2.156,2.156,0,1,0,2.159,2.156,2.154,2.154,0,0,0-2.159-2.156" transform="translate(-356.371 -394.603)" fill="#e7edff"/>
        <path id="Path_12312" data-name="Path 12312" d="M754.139,241.114a10.9,10.9,0,0,0-10.964,0,.569.569,0,0,0,.286,1.059.561.561,0,0,0,.287-.078,9.75,9.75,0,0,1,9.818,0,.568.568,0,1,0,.573-.981" transform="translate(-323.896 -104.48)" fill="#fff"/>
        <path id="Path_12313" data-name="Path 12313" d="M753.776,246.309a7.707,7.707,0,0,0-7.768,0,.568.568,0,0,0,.573.981,6.574,6.574,0,0,1,6.621,0,.6.6,0,0,0,.286.078.569.569,0,0,0,.287-1.059" transform="translate(-325.131 -106.932)" fill="#fff"/>
        <path id="Path_12314" data-name="Path 12314" d="M753.414,251.5a4.54,4.54,0,0,0-4.574,0,.568.568,0,0,0,.573.981,3.386,3.386,0,0,1,3.428,0,.56.56,0,0,0,.286.078.568.568,0,0,0,.287-1.059" transform="translate(-326.366 -109.384)" fill="#fff"/>
        <path id="Path_12315" data-name="Path 12315" d="M753.231,256.343l0,0,0,0a1.186,1.186,0,0,0-2.058,0l0,0,0,0a.31.31,0,0,0-.025.053,1.158,1.158,0,0,0-.127.528,1.185,1.185,0,0,0,1.132,1.183.261.261,0,0,0,.051,0,.256.256,0,0,0,.052,0,1.185,1.185,0,0,0,1.134-1.183,1.167,1.167,0,0,0-.129-.528c-.008-.019-.016-.037-.024-.053" transform="translate(-327.436 -111.502)" fill="#fff"/>
        <path id="Path_12316" data-name="Path 12316" d="M752.654,483.026s-7.734,36.2,3.513,63.968c0,0,13.356-27.415-3.513-63.968" transform="translate(-327.021 -210.596)" fill="#f59f00"/>
        <path id="Path_12317" data-name="Path 12317" d="M705.267,450.742s-44.733,3.867-65.47-47.8c0,0,5.1-1.1,5.1-2.55s-22.537-1.451-23.066,0,9.887,5.142,9.887,5.142,16.519,93.358,75.567,101.444c0,0,11.792-36.9-2.015-56.236" transform="translate(-271.104 -174.094)" fill="#ffa8a8"/>
        <path id="Path_12318" data-name="Path 12318" d="M705.333,455.326h0a81.6,81.6,0,0,1-4.277,25.143c-40.463-10.677-61.683-70.119-61.683-70.119s16.519,93.358,75.567,101.444c0,0,11.792-36.9-2.015-56.236a44.792,44.792,0,0,1-7.592-.233" transform="translate(-278.761 -178.91)" fill="#ff8787"/>
        <path id="Path_12319" data-name="Path 12319" d="M783.644,647.544s-47.1,42.7-58.872,86.99-29.7,116.514-38.662,147.09c0,0,91.271-45.739,89.1-140.237,0,0,64.319-25.305,60.629-93.843Z" transform="translate(-299.139 -282.325)" fill="#4c6ef4"/>
        <path id="Path_12320" data-name="Path 12320" d="M898.128,671.85h-43.45s-2.622,55.935-23.848,76.27c-3.743,3.585.6,15.088,4.924,30.524a138.6,138.6,0,0,0,1.931-26.66s55.65-21.907,60.444-80.134" transform="translate(-361.615 -292.922)" fill="#2f5ddd"/>
        <path id="Path_12321" data-name="Path 12321" d="M818.978,441.9s-15.815,17.924-64.319,23.2c0,0,10.192,39.365,3.513,63.968,0,0,33.777,8.7,62.564-7.381s-1.759-79.783-1.759-79.783" transform="translate(-329.026 -192.665)" fill="#ffd43b"/>
        <path id="Path_12322" data-name="Path 12322" d="M760.888,559.82s33.777,8.7,62.564-7.381a21.8,21.8,0,0,0,4-2.871l-18.145-37.125s-15.371,18.027-46.788,14.029c1.014,11.155,1.059,23.448-1.629,33.348" transform="translate(-331.741 -223.422)" fill="#fab005"/>
        <path id="Path_12323" data-name="Path 12323" d="M986.949,759.156v23.7a23.7,23.7,0,0,1-.468,4.681,23.344,23.344,0,0,1-5.526,10.944c-.221.248-.453.491-.68.73a23.316,23.316,0,0,1-16.712,7.021h-3.158c-4.731-3.827-9.96-8.055-15.739-12.727-.475-.385-.942-.77-1.412-1.158s-.935-.786-1.4-1.187c-.416-.354-.821-.711-1.233-1.069q-.571-.508-1.134-1.019c-.259-.233-.517-.463-.775-.708-.337-.3-.669-.615-1-.923-.394-.373-.791-.748-1.18-1.121q-2.84-2.731-5.542-5.635-.519-.555-1.033-1.118c-.364-.4-.727-.8-1.08-1.2q-1.836-2.05-3.6-4.166c-.348-.416-.7-.839-1.038-1.258q-1.377-1.687-2.715-3.411c-.385-.5-.77-1-1.149-1.5q-1.085-1.431-2.147-2.889-.489-.662-.964-1.333c-.242-.336-.484-.674-.722-1.016q-2.586-3.662-5.019-7.449c-.237-.37-.474-.746-.707-1.118-33.943-53.533-45.23-122.571-45.23-122.571l61.152,3.69c30.05,30.577,34.093,99.114,34.093,99.114,9.47,5.973,18.237,14.74,26.113,24.7" transform="translate(-377.391 -275.397)" fill="#4c6ef4"/>
        <path id="Path_12324" data-name="Path 12324" d="M972.749,735.54S968.706,667,938.656,636.426l-37.984-2.293-7.757,17.3s15.775,12.23,37.611,11.615c0,0,21.837,62.651,42.223,72.492" transform="translate(-389.304 -276.478)" fill="#2f5ddd"/>
        <path id="Path_12325" data-name="Path 12325" d="M856.441,441.9s-22.3,35.739-14.009,120.21a2.535,2.535,0,0,0,1.956,2.221c9.173,2.085,51.776,10.3,77.076-10.313,0,0-21.79-76.971-65.023-112.118" transform="translate(-366.489 -192.665)" fill="#ffd43b"/>
        <path id="Path_12326" data-name="Path 12326" d="M892.006,591.711c16.38.59,36.755-1.7,51.363-13.6,0,0-12.528-44.236-37.424-80.954l-15.117,6.583s30.011,56.366,1.178,87.975" transform="translate(-388.394 -216.756)" fill="#fab005"/>
        <path id="Path_12327" data-name="Path 12327" d="M935.378,576.946s29.524.156,55.885-24.348c0,0-39.366-7.987-55.885,24.348" transform="translate(-407.818 -240.548)" fill="#f59f00"/>
        <path id="Path_12328" data-name="Path 12328" d="M917.771,554.1s14.316,42.214-22.845,67.485c-8.788,5.973-7.382,17.222-2.46,17.222s8.706-10.543,8.706-10.543,89-16.169,62.641-85.409Z" transform="translate(-387.4 -236.68)" fill="#ffa8a8"/>
        <path id="Path_12329" data-name="Path 12329" d="M973.573,542.852,927.53,554.1a61.66,61.66,0,0,1,2.485,13.51s15.967-5.952,28.8-5.865c0,0,6.43,36.73-47.88,66.518,0,0,89-16.169,62.641-85.409" transform="translate(-397.159 -236.68)" fill="#ff8787"/>
        <path id="Path_12330" data-name="Path 12330" d="M868.7,441.693s61.508-7.93,93.493,62.815c0,0-36.555,1.153-55.885,24.349,0,0-4.6-36.554-33.23-55.882Z" transform="translate(-378.746 -192.459)" fill="#ffd43b"/>
        <path id="Path_12331" data-name="Path 12331" d="M858.7,423.569s-4.936,14.926-1.409,22.366c4.726-2.625,9.255-10.124,9.255-11.621a49.633,49.633,0,0,0-.6-6.564Z" transform="translate(-373.219 -184.673)" fill="#ffa8a8"/>
        <path id="Path_12332" data-name="Path 12332" d="M861.375,432.988a29.462,29.462,0,0,0-4.479,1.8,36.762,36.762,0,0,0-.655,11.519c3.7-4.358,5.483-8.21,5.135-13.324" transform="translate(-373.219 -188.78)" fill="#ff8787"/>
        <path id="Path_12333" data-name="Path 12333" d="M843.946,403.851c-5.79-5.132-9.3-28.169-4.916-31.338,3.672-2.65,10.952.7,16.326,8.369,12.142-1.327,9.15,22.45-.54,26.632-1.757-.385-10.87-3.663-10.87-3.663" transform="translate(-364.952 -162.023)" fill="#212529"/>
        <path id="Path_12334" data-name="Path 12334" d="M859.334,413.829a.149.149,0,0,1-.244-.152c1.012-4.9-.962-10.652-5.36-11.112-7.442-.774-7.5,24.733-3.546,25.727,4.543,1.137,15.372-12.907,12.977-15.29-1.217-1.211-3.06.152-3.827.826" transform="translate(-369.536 -175.509)" fill="#ffa8a8"/>
        <path id="Path_12335" data-name="Path 12335" d="M860.764,417.764c-.32-1.1-2.311-1.392-3.363-.283a4.924,4.924,0,0,1,3.363.283" transform="translate(-373.82 -181.713)" fill="#212529"/>
        <path id="Path_12336" data-name="Path 12336" d="M849.516,433.125a10.254,10.254,0,0,0,.645,3.591c1.267.336,6.63-.944,7.267-5.607-1.264,1.054-6.8,3.085-7.912,2.016" transform="translate(-370.371 -187.961)" fill="#fff"/>
        <path id="Path_12345" data-name="Path 12345" d="M987.758,322.818a2.515,2.515,0,0,1,3.557-3.557l7.025,7.027,15.831-15.831a2.515,2.515,0,1,1,3.557,3.557l-17.609,17.611a2.515,2.515,0,0,1-3.557,0Zm10.582-18.129A20.109,20.109,0,1,0,1017.612,319a.63.63,0,0,0-1.047-.264L1014.5,320.8a.607.607,0,0,0-.169.575,16.353,16.353,0,1,1-15.989-12.914,16.286,16.286,0,0,1,10.042,3.445.622.622,0,0,0,.831-.05l1.791-1.792a.608.608,0,0,0,.183-.478.6.6,0,0,0-.234-.453,20.029,20.029,0,0,0-12.612-4.446" transform="translate(-426.495 -132.843)" fill="#e7edff"/>
        <path id="Path_12346" data-name="Path 12346" d="M880.2,441.436c.236.065,53.872,14.566,64.44,67.09a99,99,0,0,1,22.567-4.013c-25.676-56.792-70.374-62.884-87.007-63.076" transform="translate(-383.76 -192.463)" fill="#fab005"/>
        <path id="Path_12347" data-name="Path 12347" d="M725.435,797.6c-.231.783-.455,1.569-.663,2.355-11.775,44.285-29.7,116.514-38.661,147.09,0,0,24.69-30.577,36.071-61.859,8.4-23.1,4.778-62.477,3.254-87.586" transform="translate(-299.139 -347.75)" fill="#2f5ddd"/>
        <path id="Path_12348" data-name="Path 12348" d="M1015.231,893.959a23.315,23.315,0,0,1-16.711,7.02h-3.158c-4.731-3.827-9.961-8.055-15.739-12.727-.475-.385-.943-.77-1.412-1.158s-.935-.786-1.4-1.187c-.416-.354-.822-.712-1.233-1.069q-.57-.508-1.134-1.019c-.259-.234-.517-.463-.775-.708-.337-.3-.669-.615-1-.923-.394-.373-.79-.749-1.18-1.121q-2.841-2.731-5.542-5.636c-.347-.369-.69-.742-1.033-1.118-.363-.4-.727-.8-1.08-1.2q-1.836-2.05-3.6-4.166c-.348-.416-.7-.839-1.037-1.258q-1.377-1.686-2.715-3.411c-.385-.5-.77-1-1.149-1.5q-1.085-1.431-2.147-2.889-.489-.662-.964-1.333c-.242-.335-.484-.674-.722-1.016q-2.585-3.662-5.019-7.449c-.237-.376-.48-.752-.717-1.125,0,0,0,.006.011.006,18.895,10.934,47.285,23.581,68.642,44.2.275.261.544.525.812.786" transform="translate(-412.347 -370.143)" fill="#2f5ddd"/>
        <path id="Path_12349" data-name="Path 12349" d="M888.579,326.739H807.661a3.308,3.308,0,0,1-3.306-3.305v-.283a3.308,3.308,0,0,1,3.306-3.306h80.918a3.307,3.307,0,0,1,3.305,3.306v.283a3.306,3.306,0,0,1-3.305,3.305" transform="translate(-350.693 -139.451)" fill="#e7edff"/>
        <path id="Path_12350" data-name="Path 12350" d="M888.579,352.917H807.661a3.306,3.306,0,0,1-3.306-3.305v-.28a3.309,3.309,0,0,1,3.306-3.308h80.918a3.308,3.308,0,0,1,3.305,3.308v.28a3.3,3.3,0,0,1-3.305,3.305" transform="translate(-350.693 -150.864)" fill="#e7edff"/>
      </g>
    </g>
  </g>
  <g id="Group_12488" data-name="Group 12488" transform="translate(320.719 160.785)">
    <path id="Path_2" data-name="Path 2" d="M129.332,301.318c1.506.719,2.89,1.374,4.269,2.04q10.273,4.965,20.544,9.932a4.136,4.136,0,0,0,.85.346,1.069,1.069,0,0,0,1.342-.615,1.131,1.131,0,0,0-.413-1.493,6.446,6.446,0,0,0-.816-.425l-23.45-11.335c-.223-.108-.44-.227-.751-.389,3.2-1.544,6.332-2.952,9.356-4.565a3.892,3.892,0,0,1,4-.006c10.6,5.2,21.248,10.306,31.889,15.424a1.162,1.162,0,0,1,.778,1.218c-.029,4.027-.015,8.054-.014,12.081,0,.308-.009.617.017.923a1.153,1.153,0,0,0,1.743,1.048c2.85-1.341,5.682-2.72,8.518-4.092a1.432,1.432,0,0,0,.757-1.472c-.011-4.232.007-8.464-.019-12.7a1.123,1.123,0,0,1,.748-1.212c3.037-1.425,6.047-2.9,9.069-4.363.223-.108.458-.192.768-.321v.84q0,18.814.013,37.628a1.035,1.035,0,0,1-.665,1.112q-16,7.691-31.975,15.419c-.2.1-.415.18-.715.31-.016-.334-.04-.6-.04-.867q0-18.775-.016-37.551a1.136,1.136,0,0,1,.767-1.205c2.251-1.05,4.479-2.149,6.714-3.233a3.349,3.349,0,0,0,.67-.37,1.162,1.162,0,0,0-1.075-2.025c-.8.329-1.582.725-2.366,1.1-1.755.843-3.514,1.677-5.254,2.549a1.256,1.256,0,0,1-1.292.008c-.788-.425-1.6-.8-2.418-1.175a1.206,1.206,0,0,0-1.747.558,1.175,1.175,0,0,0,.7,1.573,17.737,17.737,0,0,0,1.94.924,1.317,1.317,0,0,1,.961,1.479c-.043,5.412-.022,10.824-.022,16.236v21.974c-.332-.139-.581-.231-.82-.346Q146,348.625,130.115,340.972a1.189,1.189,0,0,1-.8-1.263q.035-18.737.017-37.474Zm3.636,26.579a3.834,3.834,0,0,0-.916.722c-.43.619-.122,1.328.7,1.728,2.162,1.054,4.33,2.094,6.5,3.14,1.106.534,2.2,1.084,3.322,1.594a1.209,1.209,0,0,0,1.655-.509,1.192,1.192,0,0,0-.574-1.624c-.11-.065-.227-.119-.342-.174q-4.7-2.271-9.4-4.538C133.658,328.117,133.385,328.046,132.968,327.9Zm6.532,9.023c-.141-.171-.348-.632-.7-.813-1.725-.889-3.481-1.718-5.241-2.536a1.136,1.136,0,0,0-1.552.552,1.093,1.093,0,0,0,.444,1.527c1.823.922,3.66,1.819,5.523,2.655C138.71,338.635,139.492,338,139.5,336.92Z" transform="translate(-126.97 -281.057)" fill="#ffdb87"/>
    <path id="Path_3" data-name="Path 3" d="M294.231,258.262c-.216.126-.361.224-.517.3-2.765,1.338-5.526,2.687-8.308,3.989a1.484,1.484,0,0,1-1.122.017q-15.921-7.645-31.817-15.341c-.18-.087-.351-.189-.616-.332.261-.146.443-.26.635-.352,2.743-1.325,5.482-2.659,8.239-3.952a1.373,1.373,0,0,1,1.038-.029q15.923,7.646,31.823,15.34C293.784,258,293.97,258.116,294.231,258.262Z" transform="translate(-224.311 -239.92)" fill="#ffdb87"/>
    <path id="Path_4" data-name="Path 4" d="M206.373,274.346c2.2-1.066,4.243-2.068,6.3-3.032a1.059,1.059,0,0,1,.784.084q15.952,7.68,31.891,15.386c.111.054.211.13.4.25-.269.156-.471.29-.687.395-1.613.782-3.252,1.514-4.831,2.357a1.931,1.931,0,0,1-1.977-.024q-14.264-6.928-28.552-13.805Z" transform="translate(-188.184 -262.795)" fill="#00a1ed"/>
    <path id="Path_5" data-name="Path 5" d="M372.84,374.777c-.02-.259-.047-.455-.047-.651,0-3.434.008-6.868-.013-10.3a1,1,0,0,1,.638-1.076c1.581-.729,3.14-1.5,4.71-2.256.175-.084.369-.131.653-.23.02.328.048.573.048.817,0,3.357-.008,6.714.012,10.071a1.061,1.061,0,0,1-.682,1.132c-1.6.738-3.186,1.528-4.778,2.294C373.227,374.652,373.06,374.7,372.84,374.777Z" transform="translate(-320.376 -333.491)" fill="#00a1ed"/>
    <path id="Path_7" data-name="Path 7" d="M-670.8,288.585v40.951l35.152,16.908.591-41.7-34.517-16.7Z" transform="translate(672.007 -268.711)" fill="#ffb624"/>
    <path id="Path_1" data-name="Path 1" d="M154.4,308.771a7.141,7.141,0,0,0-.693-.434q-17.3-8.353-34.605-16.682a1.838,1.838,0,0,1-1.192-1.9q.035-20.392,0-40.784a1.784,1.784,0,0,1,1.137-1.854q17.417-8.368,34.8-16.8a2.1,2.1,0,0,1,2.023,0q17.424,8.442,34.87,16.838a1.641,1.641,0,0,1,1.063,1.667q-.024,20.546,0,41.092a1.694,1.694,0,0,1-1.122,1.709q-17.308,8.329-34.6,16.693c-.267.129-.512.3-.767.458Zm-34.128-58.454v.916q0,18.737-.017,37.474a1.188,1.188,0,0,0,.8,1.263q15.889,7.637,31.759,15.316c.239.115.489.207.82.346V283.659c0-5.412-.02-10.824.022-16.236a1.317,1.317,0,0,0-.961-1.479,17.726,17.726,0,0,1-1.94-.924,1.175,1.175,0,0,1-.7-1.573,1.206,1.206,0,0,1,1.747-.559c.815.372,1.63.75,2.418,1.175a1.256,1.256,0,0,0,1.292-.009c1.741-.871,3.5-1.706,5.254-2.548.784-.377,1.562-.773,2.367-1.1a1.162,1.162,0,0,1,1.075,2.025,3.339,3.339,0,0,1-.67.37c-2.235,1.084-4.463,2.183-6.714,3.233a1.136,1.136,0,0,0-.767,1.205q.03,18.775.016,37.551c0,.266.024.533.04.867.3-.13.512-.212.715-.31q15.985-7.714,31.975-15.419a1.035,1.035,0,0,0,.665-1.112q-.025-18.814-.013-37.628v-.841c-.31.129-.545.213-.768.321-3.021,1.458-6.032,2.938-9.069,4.363a1.123,1.123,0,0,0-.748,1.212c.026,4.232.008,8.464.019,12.7a1.432,1.432,0,0,1-.757,1.472c-2.835,1.372-5.667,2.751-8.517,4.092a1.153,1.153,0,0,1-1.743-1.048c-.026-.306-.017-.615-.017-.923,0-4.027-.015-8.054.014-12.081a1.162,1.162,0,0,0-.778-1.218c-10.641-5.118-21.288-10.224-31.889-15.425a3.892,3.892,0,0,0-4,.006c-3.024,1.613-6.159,3.021-9.356,4.565.311.161.528.281.751.388l23.45,11.335a6.431,6.431,0,0,1,.816.425,1.131,1.131,0,0,1,.413,1.493,1.068,1.068,0,0,1-1.342.615,4.127,4.127,0,0,1-.85-.346q-10.273-4.964-20.544-9.932C123.162,251.692,121.778,251.037,120.272,250.317ZM187.83,248.4c-.26-.146-.447-.265-.644-.36q-15.906-7.681-31.823-15.34a1.374,1.374,0,0,0-1.038.029c-2.757,1.294-5.5,2.627-8.239,3.952-.192.093-.374.207-.635.352.264.143.436.245.616.332q15.9,7.681,31.817,15.341a1.483,1.483,0,0,0,1.122-.017c2.782-1.3,5.542-2.652,8.308-3.989C187.469,248.622,187.613,248.524,187.83,248.4ZM136.1,241.607l3.333,1.611q14.28,6.9,28.552,13.805a1.93,1.93,0,0,0,1.977.024c1.58-.843,3.219-1.575,4.831-2.357.216-.1.418-.239.687-.395-.191-.12-.291-.2-.4-.25q-15.942-7.7-31.891-15.386a1.06,1.06,0,0,0-.784-.084C140.342,239.539,138.3,240.541,136.1,241.607Zm34.275,29.735c.22-.08.388-.125.542-.2,1.592-.766,3.173-1.556,4.778-2.294a1.061,1.061,0,0,0,.682-1.132c-.02-3.357-.009-6.714-.012-10.071,0-.245-.028-.489-.048-.817-.284.1-.477.145-.653.229-1.57.751-3.129,1.527-4.71,2.256a1,1,0,0,0-.638,1.076c.021,3.434.01,6.868.013,10.3C170.327,270.887,170.354,271.083,170.374,271.342Z" transform="translate(-117.91 -230.056)" fill="#0c537a"/>
    <path id="Path_6" data-name="Path 6" d="M142.794,457.866c.417.149.69.219.94.339q4.7,2.263,9.4,4.538c.115.056.232.109.342.174a1.192,1.192,0,0,1,.574,1.624,1.209,1.209,0,0,1-1.655.509c-1.117-.51-2.216-1.06-3.322-1.594-2.166-1.045-4.335-2.085-6.5-3.14-.82-.4-1.128-1.109-.7-1.728A3.833,3.833,0,0,1,142.794,457.866Z" transform="translate(-136.796 -411.026)" fill="#0c537a"/>
    <path id="Path_8" data-name="Path 8" d="M142.794,457.866c.417.149.69.219.94.339,3.135,1.508,1.51.729,4.643,2.244.115.056.232.109.342.174a1.192,1.192,0,0,1,.574,1.624,1.209,1.209,0,0,1-1.655.509c-1.117-.51-2.216-1.06-3.322-1.594-2.166-1.045.422.209-1.739-.845-.82-.4-1.128-1.109-.7-1.728A3.833,3.833,0,0,1,142.794,457.866Z" transform="translate(-136.796 -405.474)" fill="#0c537a"/>
  </g>
</svg>
