<svg xmlns="http://www.w3.org/2000/svg" width="16.52" height="21.477" viewBox="0 0 16.52 21.477">
  <path id="Icon_ionic-ios-lock" data-name="Icon ionic-ios-lock" d="M21.205,10.809H19.966V8.4a4.956,4.956,0,1,0-9.912-.067v2.478H8.815A2.071,2.071,0,0,0,6.75,12.874v9.912a2.071,2.071,0,0,0,2.065,2.065h12.39a2.071,2.071,0,0,0,2.065-2.065V12.874A2.071,2.071,0,0,0,21.205,10.809Zm-5.472,6.443V20.8a.74.74,0,0,1-.687.743.724.724,0,0,1-.759-.723V17.252a1.652,1.652,0,1,1,1.446,0Zm2.788-6.443H11.5V8.331a3.511,3.511,0,0,1,7.021,0Z" transform="translate(-6.75 -3.374)"/>
</svg>
