<svg xmlns="http://www.w3.org/2000/svg" xmlns:xlink="http://www.w3.org/1999/xlink" width="243" height="97" viewBox="0 0 243 97">
  <defs>
    <clipPath id="clip-path">
      <rect id="Rectangle_11" data-name="Rectangle 11" width="243" height="97" transform="translate(80.299 487.681)" fill="#fff" stroke="#707070" stroke-width="1"/>
    </clipPath>
    <linearGradient id="linear-gradient" x1="1.65" y1="2.844" x2="-0.158" y2="-0.626" gradientUnits="objectBoundingBox">
      <stop offset="0" stop-color="#0064b3"/>
      <stop offset="1" stop-color="#00a7e9"/>
    </linearGradient>
    <linearGradient id="linear-gradient-2" x1="3.512" y1="5.726" x2="-1.982" y2="-3.254" xlink:href="#linear-gradient"/>
    <linearGradient id="linear-gradient-3" x1="15.725" y1="18.608" x2="-11.049" y2="-13.248" xlink:href="#linear-gradient"/>
    <linearGradient id="linear-gradient-4" x1="18.854" y1="51.091" x2="-12.834" y2="-35.776" xlink:href="#linear-gradient"/>
    <linearGradient id="linear-gradient-5" x1="0.831" y1="0.923" x2="0.315" y2="0.402" xlink:href="#linear-gradient"/>
    <linearGradient id="linear-gradient-6" x1="0.714" y1="0.613" x2="0.101" y2="-0.114" xlink:href="#linear-gradient"/>
  </defs>
  <g id="Group_16" data-name="Group 16" transform="translate(-80.299 -487.681)">
    <g id="Groupe_de_masques_1" data-name="Groupe de masques 1" clip-path="url(#clip-path)">
      <g id="Groupe_17" data-name="Groupe 17" transform="translate(0 87)">
        <g id="Group_1" data-name="Group 1" transform="translate(97.993 470.248)">
          <path id="Path_42" data-name="Path 42" d="M13.755-16.563a1.807,1.807,0,0,1,0,1.439H10.4a4.7,4.7,0,0,0-.882-.821,5.788,5.788,0,0,0-1.045-.618Zm0,3.827a1.807,1.807,0,0,1,0,1.439H10.118v2.09a2.693,2.693,0,0,1-.76.848,3.174,3.174,0,0,1-.977.482V-16.17a4.016,4.016,0,0,1,.943.556,5.565,5.565,0,0,1,.794.774v2.1Zm0,5.347H8.571a4.742,4.742,0,0,0,1.025-.6,3.632,3.632,0,0,0,.808-.821h3.352A1.775,1.775,0,0,1,13.755-7.389Zm1.344-9a2.935,2.935,0,0,1,1-.176,2.523,2.523,0,0,1,1,.2l5.4,8.917H20.5Zm2.5,4.831.991,1.7L17.121-7.43H15.1Zm1.452-2.4,1.439-2.389a2.574,2.574,0,0,1,1.031-.217,2.66,2.66,0,0,1,.5.048,3.8,3.8,0,0,1,.5.129l-2.47,4.126ZM26.7-16.577a4.107,4.107,0,0,1,1.4.238,3.773,3.773,0,0,1,1.147.645,3.059,3.059,0,0,1,.774.964,2.582,2.582,0,0,1,.285,1.194A3.18,3.18,0,0,1,29.75-11.6a2.818,2.818,0,0,1-1.88,1,2.387,2.387,0,0,1-.339.034,2.911,2.911,0,0,1-.394-.014,2.552,2.552,0,0,1-.387-.068,1.2,1.2,0,0,1-.319-.129v-1.642a1.146,1.146,0,0,0,.672.231,1.808,1.808,0,0,0,.753-.136,1.6,1.6,0,0,0,.665-.5,1.157,1.157,0,0,0,.231-.706,1.115,1.115,0,0,0-.156-.577,1.365,1.365,0,0,0-.434-.448,2.254,2.254,0,0,0-.651-.285,3.06,3.06,0,0,0-.808-.1,1.6,1.6,0,0,0-.373.041,2.944,2.944,0,0,0-.319.1,4.177,4.177,0,0,0-.848-.631,5.021,5.021,0,0,0-1-.428,3.452,3.452,0,0,1,1.16-.543A5.5,5.5,0,0,1,26.7-16.577Zm-2.877,1.113a4.9,4.9,0,0,1,1,.373,3.661,3.661,0,0,1,.814.577V-7.4H23.826ZM37-16.563a1.807,1.807,0,0,1,0,1.439H33.651a4.7,4.7,0,0,0-.882-.821,5.787,5.787,0,0,0-1.045-.618Zm0,3.827A1.807,1.807,0,0,1,37-11.3H33.366v2.09a2.693,2.693,0,0,1-.76.848,3.174,3.174,0,0,1-.977.482V-16.17a4.016,4.016,0,0,1,.943.556,5.565,5.565,0,0,1,.794.774v2.1Zm0,5.347H31.819a4.742,4.742,0,0,0,1.025-.6,3.632,3.632,0,0,0,.808-.821H37A1.775,1.775,0,0,1,37-7.389ZM38.931-16.1a5.756,5.756,0,0,1,.984.563,4.359,4.359,0,0,1,.821.753v7.342H38.931V-16.1Zm1.9-.489a6.442,6.442,0,0,1,2.233.353,4.351,4.351,0,0,1,1.581.97,3.987,3.987,0,0,1,.936,1.445,5,5,0,0,1,.312,1.778,5.072,5.072,0,0,1-.251,1.6,3.951,3.951,0,0,1-.767,1.357,4.367,4.367,0,0,1-1.289,1,5.347,5.347,0,0,1-1.805.543V-8.95a2.632,2.632,0,0,0,.964-.455,3.311,3.311,0,0,0,.719-.746,3.4,3.4,0,0,0,.455-.916,3.2,3.2,0,0,0,.156-.977,3.493,3.493,0,0,0-.2-1.16,3.018,3.018,0,0,0-.584-1,2.952,2.952,0,0,0-.977-.719,3.651,3.651,0,0,0-1.378-.319,5.507,5.507,0,0,0-.8-.638,5.611,5.611,0,0,0-.923-.489,3.682,3.682,0,0,1,.746-.163A7,7,0,0,1,40.831-16.591Zm8.5.054V-7.4H47.467v-8.116a.813.813,0,0,1,.523-.767A3.091,3.091,0,0,1,49.327-16.536Zm7.179-.027a1.807,1.807,0,0,1,0,1.439H53.154a4.7,4.7,0,0,0-.882-.821,5.788,5.788,0,0,0-1.045-.618Zm0,3.827a1.807,1.807,0,0,1,0,1.439H52.869v2.09a2.693,2.693,0,0,1-.76.848,3.174,3.174,0,0,1-.977.482V-16.17a4.015,4.015,0,0,1,.943.556,5.565,5.565,0,0,1,.794.774v2.1Zm0,5.347H51.322a4.742,4.742,0,0,0,1.025-.6,3.632,3.632,0,0,0,.808-.821h3.352A1.775,1.775,0,0,1,56.506-7.389ZM61.8-14.948H57.85q.027-.244.068-.529a2.387,2.387,0,0,1,.136-.529,1.218,1.218,0,0,1,.251-.407.53.53,0,0,1,.4-.163h4.058ZM59.777-7.443H58.04a.17.17,0,0,1-.129-.075.348.348,0,0,1-.061-.224l2.212-3.542,3.257-5.293h1.737q.081,0,.1.109a1.486,1.486,0,0,1,.014.176l-2.8,4.628Zm5.2-1.059a1.562,1.562,0,0,1,.163.55q.027.278.027.509H60.333l.977-1.629q1.181,0,1.846-.02a8.811,8.811,0,0,1,1.025.014.92.92,0,0,1,.509.163A1.261,1.261,0,0,1,64.975-8.5Zm3.61-.611a2.552,2.552,0,0,1,0,.909,3.164,3.164,0,0,1-.292.964,3.971,3.971,0,0,1-.577.869l-.19.2q-.149.156-.326.326a3.682,3.682,0,0,1-.339.292q-.163.122-.231.1l-.461-.217q.244-.217.475-.461a3.8,3.8,0,0,0,.373-.516,2.462,2.462,0,0,0,.278-.651,1.235,1.235,0,0,0,.061-.38.775.775,0,0,0-.061-.366,1.061,1.061,0,0,1-.489.02.983.983,0,0,1-.407-.183,1.019,1.019,0,0,1-.285-.346,1.115,1.115,0,0,1-.122-.455,1.074,1.074,0,0,1,.1-.461,1.3,1.3,0,0,1,.278-.387,1.394,1.394,0,0,1,.407-.271,1.407,1.407,0,0,1,.5-.115,1.143,1.143,0,0,1,.923.333A1.508,1.508,0,0,1,68.585-9.113Zm5.076-6.257a2.337,2.337,0,0,1,.909.326,4.18,4.18,0,0,1,.774.611v6.989H73.66Zm5.374-.3a1.658,1.658,0,0,1,.468.679,2.45,2.45,0,0,1,.183.936,3.386,3.386,0,0,1-.163,1.038,2.9,2.9,0,0,1-.475.909,2.287,2.287,0,0,1-.78.638,2.385,2.385,0,0,1-1.093.238h-.17a2.067,2.067,0,0,1-.278-.02,1.811,1.811,0,0,1-.265-.054q-.115-.034-.115-.1v-1.506q0,.041.068.068t.156.054q.088.027.183.047a.76.76,0,0,0,.149.02,1.243,1.243,0,0,0,.536-.061,1.32,1.32,0,0,0,.448-.265,1.247,1.247,0,0,0,.305-.414,1.178,1.178,0,0,0,.109-.5,1.129,1.129,0,0,0-.387-.841,1.506,1.506,0,0,0-1.079-.366,1.383,1.383,0,0,0-.489.081.666.666,0,0,0-.163.041,2.25,2.25,0,0,0-.251.1q-.129.061-.237.122t-.109.1l.014.014A3.9,3.9,0,0,0,75.269-15a4.075,4.075,0,0,0-.421-.292,3.705,3.705,0,0,0-.461-.238,2.252,2.252,0,0,0-.441-.143,2.339,2.339,0,0,1,.5-.373,3.99,3.99,0,0,1,.645-.292,4.161,4.161,0,0,1,.726-.183,4.782,4.782,0,0,1,.76-.061,4.239,4.239,0,0,1,1.323.21A2.821,2.821,0,0,1,79.035-15.668Zm1.249,7.831q.027.027.1.109a1.382,1.382,0,0,0,.163.163q.1.1.231.217H79.13q-.271-.217-.5-.434a1.374,1.374,0,0,1-.333-.5,3.081,3.081,0,0,1-.156-.645,4.99,4.99,0,0,1-.034-.577,2.366,2.366,0,0,0-.081-.6.769.769,0,0,0-.3-.461.62.62,0,0,0-.163-.115.816.816,0,0,1-.2-.156,2.5,2.5,0,0,0,1.588-.57,1.477,1.477,0,0,1,.448.455,2.127,2.127,0,0,1,.244.57,3.6,3.6,0,0,1,.109.624q.027.319.027.618a2.213,2.213,0,0,0,.027.373,1.336,1.336,0,0,0,.088.3,2.049,2.049,0,0,0,.156.292Q80.148-8.027,80.283-7.837Zm6.962-8.727a1.807,1.807,0,0,1,0,1.439H83.893a4.7,4.7,0,0,0-.882-.821,5.787,5.787,0,0,0-1.045-.618Zm0,3.827a1.807,1.807,0,0,1,0,1.439H83.608v2.09a2.693,2.693,0,0,1-.76.848,3.174,3.174,0,0,1-.977.482V-16.17a4.016,4.016,0,0,1,.943.556,5.565,5.565,0,0,1,.794.774v2.1Zm0,5.347H82.061a4.742,4.742,0,0,0,1.025-.6,3.632,3.632,0,0,0,.808-.821h3.352A1.775,1.775,0,0,1,87.246-7.389Zm3.42-4.567a4.507,4.507,0,0,0,.251,1.511,4.854,4.854,0,0,0,.7,1.308,4.9,4.9,0,0,0,1.072,1.044,5.061,5.061,0,0,0,1.357.691,5.141,5.141,0,0,1-.638.041,4.8,4.8,0,0,1-1.846-.352,4.565,4.565,0,0,1-1.486-.976,4.572,4.572,0,0,1-.991-1.457,4.517,4.517,0,0,1-.36-1.809,4.721,4.721,0,0,1,.346-1.816,4.615,4.615,0,0,1,.957-1.47,4.424,4.424,0,0,1,1.445-.989,4.57,4.57,0,0,1,1.825-.359,3.15,3.15,0,0,1,.4.034,3.151,3.151,0,0,0,.4.034,4.9,4.9,0,0,0-1.364.644,4.639,4.639,0,0,0-1.093,1.03,4.815,4.815,0,0,0-.719,1.335A4.655,4.655,0,0,0,90.666-11.956Zm2.809,2.9q.339-.027.59-.068a3.884,3.884,0,0,0,.441-.1,1.659,1.659,0,0,0,.339-.136q.149-.081.312-.19a3.331,3.331,0,0,0,.285.753,2.509,2.509,0,0,0,.5.685,3.135,3.135,0,0,1-.685.346,4.432,4.432,0,0,1-.78.21q-.326-.176-.679-.373t-.685-.407A5.317,5.317,0,0,1,92.5-8.78a3.322,3.322,0,0,1-.468-.482q.231.068.631.149A3.024,3.024,0,0,0,93.475-9.058Zm1-7.294a3.973,3.973,0,0,1,.808.2q.36.136.658.271a4.8,4.8,0,0,0-.5.734,2.692,2.692,0,0,0-.285.805,4.98,4.98,0,0,0-.733-.36,3.7,3.7,0,0,0-.991-.2,4.581,4.581,0,0,0-.841.041,4.787,4.787,0,0,0-.556.122A3.034,3.034,0,0,1,92.5-15.2a5.874,5.874,0,0,1,.611-.438q.333-.209.685-.385T94.479-16.352Zm8.184-.211a1.807,1.807,0,0,1,0,1.439H99.311a4.7,4.7,0,0,0-.882-.821,5.788,5.788,0,0,0-1.045-.618Zm0,3.827a1.807,1.807,0,0,1,0,1.439H99.026v2.09a2.693,2.693,0,0,1-.76.848,3.174,3.174,0,0,1-.977.482V-16.17a4.016,4.016,0,0,1,.943.556,5.566,5.566,0,0,1,.794.774v2.1Zm0,5.347H97.479a4.742,4.742,0,0,0,1.025-.6,3.632,3.632,0,0,0,.808-.821h3.352A1.775,1.775,0,0,1,102.663-7.389Zm6.894-9.066a2.885,2.885,0,0,1,.97-.129,2.847,2.847,0,0,1,.93.2l-2.321,7.994a1.8,1.8,0,0,1-.353.5,2.031,2.031,0,0,1-.461.339,1.363,1.363,0,0,1-.665.149A1.324,1.324,0,0,1,107-7.552a2.089,2.089,0,0,1-.455-.339,1.8,1.8,0,0,1-.353-.5l-2.321-7.994a2.735,2.735,0,0,1,.923-.2,2.8,2.8,0,0,1,.964.129l1.9,7.315Zm8.414-.109a1.807,1.807,0,0,1,0,1.439H114.62a4.7,4.7,0,0,0-.882-.821,5.787,5.787,0,0,0-1.045-.618Zm0,3.827a1.807,1.807,0,0,1,0,1.439h-3.637v2.09a2.693,2.693,0,0,1-.76.848,3.174,3.174,0,0,1-.977.482V-16.17a4.016,4.016,0,0,1,.943.556,5.565,5.565,0,0,1,.794.774v2.1Zm0,5.347h-5.184a4.741,4.741,0,0,0,1.025-.6,3.632,3.632,0,0,0,.808-.821h3.352A1.775,1.775,0,0,1,117.972-7.389Zm5.293-7.559h-3.949q.027-.244.068-.529a2.387,2.387,0,0,1,.136-.529,1.218,1.218,0,0,1,.251-.407.53.53,0,0,1,.4-.163h4.058Zm-2.022,7.505h-1.737a.17.17,0,0,1-.129-.075.348.348,0,0,1-.061-.224l2.212-3.542,3.257-5.293h1.737q.081,0,.095.109a1.484,1.484,0,0,1,.014.176l-2.8,4.628Zm5.2-1.059a1.562,1.562,0,0,1,.163.55q.027.278.027.509H121.8l.977-1.629q1.181,0,1.846-.02a8.811,8.811,0,0,1,1.025.014.92.92,0,0,1,.509.163A1.261,1.261,0,0,1,126.44-8.5Zm10.6,1.086-.651-2.416a3.27,3.27,0,0,1-.468.183,1.989,1.989,0,0,1-.6.088,1.8,1.8,0,0,1-.434-.048,1.6,1.6,0,0,1-.326-.115,1.782,1.782,0,0,1-.285-.163l.3-1.344a1.343,1.343,0,0,0,.2.068,1.33,1.33,0,0,0,.224.041,2.665,2.665,0,0,0,.278.014,2.114,2.114,0,0,0,.36-.041.661.661,0,0,0,.36-.176l-1.059-3.61-2.09,7.519h-1.9l2.47-8.2a1.81,1.81,0,0,1,.366-.475,2.183,2.183,0,0,1,.475-.326,1.444,1.444,0,0,1,.679-.149,1.486,1.486,0,0,1,.685.149,2.13,2.13,0,0,1,.482.326,2.3,2.3,0,0,1,.366.475l2.484,8.2Zm6.569-9.039a2.885,2.885,0,0,1,.97-.129,2.847,2.847,0,0,1,.93.2l-2.321,7.994a1.8,1.8,0,0,1-.353.5,2.031,2.031,0,0,1-.461.339,1.363,1.363,0,0,1-.665.149,1.324,1.324,0,0,1-.658-.149,2.09,2.09,0,0,1-.455-.339,1.8,1.8,0,0,1-.353-.5l-2.321-7.994a2.735,2.735,0,0,1,.923-.2,2.8,2.8,0,0,1,.964.129l1.9,7.315Zm8.414-.109a1.807,1.807,0,0,1,0,1.439h-3.352a4.7,4.7,0,0,0-.882-.821,5.787,5.787,0,0,0-1.045-.618Zm0,3.827a1.807,1.807,0,0,1,0,1.439h-3.637v2.09a2.693,2.693,0,0,1-.76.848,3.174,3.174,0,0,1-.977.482V-16.17a4.016,4.016,0,0,1,.943.556,5.565,5.565,0,0,1,.794.774v2.1Zm0,5.347h-5.184a4.741,4.741,0,0,0,1.025-.6,3.632,3.632,0,0,0,.807-.821h3.352A1.774,1.774,0,0,1,152.023-7.389Zm3.42-4.567a4.507,4.507,0,0,0,.251,1.511,4.853,4.853,0,0,0,.7,1.308,4.9,4.9,0,0,0,1.072,1.044,5.06,5.06,0,0,0,1.357.691,5.141,5.141,0,0,1-.638.041,4.8,4.8,0,0,1-1.846-.352,4.565,4.565,0,0,1-1.486-.976,4.572,4.572,0,0,1-.991-1.457,4.517,4.517,0,0,1-.36-1.809,4.722,4.722,0,0,1,.346-1.816,4.615,4.615,0,0,1,.957-1.47,4.425,4.425,0,0,1,1.445-.989,4.57,4.57,0,0,1,1.825-.359,3.15,3.15,0,0,1,.4.034,3.151,3.151,0,0,0,.4.034,4.9,4.9,0,0,0-1.364.644,4.639,4.639,0,0,0-1.093,1.03,4.814,4.814,0,0,0-.719,1.335A4.656,4.656,0,0,0,155.443-11.956Zm2.809,2.9q.339-.027.59-.068a3.884,3.884,0,0,0,.441-.1,1.659,1.659,0,0,0,.339-.136q.149-.081.312-.19a3.33,3.33,0,0,0,.285.753,2.51,2.51,0,0,0,.5.685,3.135,3.135,0,0,1-.685.346,4.433,4.433,0,0,1-.78.21q-.326-.176-.679-.373t-.685-.407a5.318,5.318,0,0,1-.611-.448,3.321,3.321,0,0,1-.468-.482q.231.068.631.149A3.024,3.024,0,0,0,158.252-9.058Zm1-7.294a3.973,3.973,0,0,1,.808.2q.36.136.658.271a4.8,4.8,0,0,0-.5.734,2.691,2.691,0,0,0-.285.805,4.978,4.978,0,0,0-.733-.36,3.7,3.7,0,0,0-.991-.2,4.581,4.581,0,0,0-.841.041,4.787,4.787,0,0,0-.556.122,3.034,3.034,0,0,1,.468-.473,5.875,5.875,0,0,1,.611-.438q.332-.209.685-.385T159.257-16.352Zm11,4.294a3.372,3.372,0,0,1,.832.909,2.255,2.255,0,0,1,.318,1.208,2.164,2.164,0,0,1-.244,1.072,2.33,2.33,0,0,1-.6.713,2.931,2.931,0,0,1-.779.434A4.826,4.826,0,0,1,169-7.5a4.833,4.833,0,0,1-.589.081l-.217.014a5.588,5.588,0,0,0,.5-.651,5.6,5.6,0,0,0,.382-.774,3.9,3.9,0,0,0,.259-1.031.791.791,0,0,0-.312-.645,3.911,3.911,0,0,0-.767-.468q-.455-.217-.964-.434a3.655,3.655,0,0,1-.9-.543,3.547,3.547,0,0,1-.76-.869,2.069,2.069,0,0,1-.326-1.126,2.456,2.456,0,0,1,.231-1.12,2.307,2.307,0,0,1,.584-.746,2.683,2.683,0,0,1,.767-.448,5.207,5.207,0,0,1,.774-.231,3.573,3.573,0,0,1,.617-.081l.285-.007a1.033,1.033,0,0,1-.163.176,3.214,3.214,0,0,0-.387.5,4.388,4.388,0,0,0-.394.774,2.645,2.645,0,0,0-.183,1,.778.778,0,0,0,.3.618,3.93,3.93,0,0,0,.73.475q.433.224.92.455A4.513,4.513,0,0,1,170.254-12.058Zm-1.5-2.918q-.149,0-.339.014a1.626,1.626,0,0,0-.421.1,4.382,4.382,0,0,1,.529-1.072,5.125,5.125,0,0,1,.516-.638,4.308,4.308,0,0,1,.5.034,4.028,4.028,0,0,1,.584.115,4.149,4.149,0,0,1,.577.2,2.465,2.465,0,0,1,.509.3,2.514,2.514,0,0,0-.36.685q-.142.4-.292.835a5.419,5.419,0,0,0-.828-.394A2.712,2.712,0,0,0,168.751-14.976ZM167.9-9.045h.365a1.325,1.325,0,0,0,.392-.068,4.589,4.589,0,0,1-.514,1q-.3.428-.528.713-.271-.027-.44-.047a3.163,3.163,0,0,1-.386-.075q-.284-.068-.48-.136a3.319,3.319,0,0,1-.339-.136q-.142-.068-.258-.136t-.251-.136q.2-.353.394-.719a2.6,2.6,0,0,0,.258-.814,3.766,3.766,0,0,0,.812.394A2.9,2.9,0,0,0,167.9-9.045Zm10.279-7.519a1.807,1.807,0,0,1,0,1.439h-3.352a4.7,4.7,0,0,0-.882-.821,5.787,5.787,0,0,0-1.045-.618Zm0,3.827a1.807,1.807,0,0,1,0,1.439h-3.637v2.09a2.693,2.693,0,0,1-.76.848,3.174,3.174,0,0,1-.977.482V-16.17a4.016,4.016,0,0,1,.943.556,5.565,5.565,0,0,1,.794.774v2.1Zm0,5.347h-5.184a4.742,4.742,0,0,0,1.025-.6,3.632,3.632,0,0,0,.807-.821h3.352A1.775,1.775,0,0,1,178.175-7.389Zm1.886-7.98a2.337,2.337,0,0,1,.909.326,4.18,4.18,0,0,1,.774.611v6.989h-1.683Zm5.374-.3a1.658,1.658,0,0,1,.468.679,2.45,2.45,0,0,1,.183.936,3.386,3.386,0,0,1-.163,1.038,2.9,2.9,0,0,1-.475.909,2.287,2.287,0,0,1-.78.638,2.385,2.385,0,0,1-1.093.238h-.17a2.067,2.067,0,0,1-.278-.02,1.811,1.811,0,0,1-.265-.054q-.115-.034-.115-.1v-1.506q0,.041.068.068t.156.054q.088.027.183.047a.76.76,0,0,0,.149.02,1.243,1.243,0,0,0,.536-.061,1.32,1.32,0,0,0,.448-.265,1.247,1.247,0,0,0,.305-.414,1.179,1.179,0,0,0,.109-.5,1.129,1.129,0,0,0-.387-.841,1.506,1.506,0,0,0-1.079-.366,1.383,1.383,0,0,0-.489.081.666.666,0,0,0-.163.041,2.252,2.252,0,0,0-.251.1q-.129.061-.238.122t-.109.1L182-14.7A3.9,3.9,0,0,0,181.67-15a4.075,4.075,0,0,0-.421-.292,3.7,3.7,0,0,0-.461-.238,2.251,2.251,0,0,0-.441-.143,2.339,2.339,0,0,1,.5-.373,3.99,3.99,0,0,1,.645-.292,4.16,4.16,0,0,1,.726-.183,4.782,4.782,0,0,1,.76-.061,4.239,4.239,0,0,1,1.323.21A2.821,2.821,0,0,1,185.436-15.668Zm1.249,7.831q.027.027.1.109a1.382,1.382,0,0,0,.163.163q.095.1.231.217h-1.642q-.271-.217-.5-.434a1.374,1.374,0,0,1-.332-.5,3.079,3.079,0,0,1-.156-.645,4.989,4.989,0,0,1-.034-.577,2.366,2.366,0,0,0-.081-.6.769.769,0,0,0-.3-.461.621.621,0,0,0-.163-.115.816.816,0,0,1-.2-.156,2.5,2.5,0,0,0,1.588-.57,1.477,1.477,0,0,1,.448.455,2.128,2.128,0,0,1,.244.57,3.607,3.607,0,0,1,.109.624q.027.319.027.618a2.213,2.213,0,0,0,.027.373,1.337,1.337,0,0,0,.088.3,2.049,2.049,0,0,0,.156.292Q186.549-8.027,186.685-7.837Zm6.962-8.727a1.807,1.807,0,0,1,0,1.439h-3.352a4.7,4.7,0,0,0-.882-.821,5.787,5.787,0,0,0-1.045-.618Zm0,3.827a1.807,1.807,0,0,1,0,1.439H190.01v2.09a2.693,2.693,0,0,1-.76.848,3.174,3.174,0,0,1-.977.482V-16.17a4.015,4.015,0,0,1,.943.556,5.565,5.565,0,0,1,.794.774v2.1Zm0,5.347h-5.184a4.742,4.742,0,0,0,1.025-.6,3.632,3.632,0,0,0,.807-.821h3.352A1.775,1.775,0,0,1,193.647-7.389Zm7.207-9.174a5.167,5.167,0,0,1,.584.034,2.068,2.068,0,0,1,.584.156,1.021,1.021,0,0,1,.407.373.906.906,0,0,1,.176.5v8.116h-1.751v-9.174Zm-2.321.964a2.089,2.089,0,0,0-.38-.475,1.9,1.9,0,0,0-.482-.339,1.486,1.486,0,0,0-.685-.149,1.294,1.294,0,0,0-.645.149,2.091,2.091,0,0,0-.455.339,2.3,2.3,0,0,0-.366.475v8.211h1.941l-.475-7.559,3.488,7.084v-3.827Zm7.668-.936V-7.4h-1.859v-8.116a.813.813,0,0,1,.523-.767A3.091,3.091,0,0,1,206.2-16.536ZM211.874-7.4h-1.7v-7.03h1.7Zm2.687-8.313a2.28,2.28,0,0,1-.068.609q-.068.239-.217.239h-6.514q-.136,0-.2-.233a2.2,2.2,0,0,1-.068-.6,2.377,2.377,0,0,1,.068-.609q.068-.253.2-.253h6.514q.149,0,.217.246A2.3,2.3,0,0,1,214.561-15.715Zm6.691-.848a1.807,1.807,0,0,1,0,1.439H217.9a4.7,4.7,0,0,0-.882-.821,5.787,5.787,0,0,0-1.045-.618Zm0,3.827a1.807,1.807,0,0,1,0,1.439h-3.637v2.09a2.693,2.693,0,0,1-.76.848,3.174,3.174,0,0,1-.977.482V-16.17a4.015,4.015,0,0,1,.943.556,5.565,5.565,0,0,1,.794.774v2.1Zm0,5.347h-5.184a4.741,4.741,0,0,0,1.025-.6,3.632,3.632,0,0,0,.808-.821h3.352A1.774,1.774,0,0,1,221.252-7.389Z" transform="translate(-8.381 20.344)" fill="#00a1ed"/>
          <path id="Path_1" data-name="Path 1" d="M151.918,498.054s4.587-.7,4.865-1.112.139,1.529-.973,1.807-3.892.834-3.892.834Z" transform="translate(-128.508 -496.884)" fill="#00a1ed"/>
          <path id="Path_2" data-name="Path 2" d="M407.626,498.054s4.587-.7,4.865-1.112.139,1.529-.973,1.807-3.892.834-3.892.834Z" transform="translate(-242.604 -496.884)" fill="#00a1ed"/>
          <path id="Path_3" data-name="Path 3" d="M435.728,498.054s4.587-.7,4.865-1.112.139,1.529-.973,1.807-3.892.834-3.892.834Z" transform="translate(-255.143 -496.884)" fill="#00a1ed"/>
          <path id="Path_4" data-name="Path 4" d="M485.848,498.054s4.586-.7,4.865-1.112.138,1.529-.974,1.807-3.891.834-3.891.834Z" transform="translate(-277.506 -496.884)" fill="#00a1ed"/>
        </g>
        <g id="Group_10443" data-name="Group 10443" transform="translate(-381.565 46.681)">
          <path id="Path_7844" data-name="Path 7844" d="M491.743,385.894a15.24,15.24,0,0,0,.85,5.116,16.422,16.422,0,0,0,6,7.961,17.1,17.1,0,0,0,4.6,2.341,17.384,17.384,0,0,1-2.16.138,16.238,16.238,0,0,1-6.25-1.193,15.363,15.363,0,0,1-8.386-8.237,15.282,15.282,0,0,1-1.217-6.126,16,16,0,0,1,1.171-6.148,15.623,15.623,0,0,1,3.24-4.979,14.98,14.98,0,0,1,4.894-3.35,15.482,15.482,0,0,1,6.181-1.216,10.912,10.912,0,0,1,1.355.114,10.5,10.5,0,0,0,1.356.116,16.575,16.575,0,0,0-4.619,2.179,15.685,15.685,0,0,0-3.7,3.488,16.253,16.253,0,0,0-2.436,4.52A15.754,15.754,0,0,0,491.743,385.894Zm12.914-14.886a13.59,13.59,0,0,1,2.734.689q1.216.461,2.228.92a16.121,16.121,0,0,0-1.7,2.486,9.079,9.079,0,0,0-.965,2.725,17.018,17.018,0,0,0-2.482-1.217,12.551,12.551,0,0,0-3.355-.667,15.47,15.47,0,0,0-2.85.139,15.836,15.836,0,0,0-1.884.413,10.188,10.188,0,0,1,1.585-1.6,19.712,19.712,0,0,1,2.068-1.482q1.126-.707,2.321-1.3T504.657,371.009Zm-3.4,24.7q1.148-.093,2-.23a12.879,12.879,0,0,0,1.493-.322,5.538,5.538,0,0,0,1.149-.459q.506-.276,1.058-.644a11.2,11.2,0,0,0,.965,2.551,8.46,8.46,0,0,0,1.7,2.32,10.633,10.633,0,0,1-2.32,1.173,15.051,15.051,0,0,1-2.642.711q-1.1-.6-2.3-1.263t-2.321-1.379a17.812,17.812,0,0,1-2.068-1.516,11.2,11.2,0,0,1-1.585-1.633q.781.231,2.136.506A10.233,10.233,0,0,0,501.256,395.706Z" transform="translate(0 -0.104)" fill="#0090df"/>
          <path id="Path_7845" data-name="Path 7845" d="M617.4,394.292a12.346,12.346,0,0,1-5.745,5.839V370.3a8.415,8.415,0,0,1,1.839.23,7.344,7.344,0,0,1,1.861.69,5.345,5.345,0,0,1,1.447,1.125,2.191,2.191,0,0,1,.6,1.495Zm9.881,1.371v5.744H612.94a17.372,17.372,0,0,0,5.79-5.744Z" transform="translate(-65.501 -0.153)" fill="#0090df"/>
          <path id="Path_7846" data-name="Path 7846" d="M659.7,370.582V401.51h-6.3V374.029a2.753,2.753,0,0,1,1.769-2.6A10.472,10.472,0,0,1,659.7,370.582Z" transform="translate(-87.121 -0.301)" fill="#0090df"/>
          <path id="Path_7847" data-name="Path 7847" d="M692.446,385.6a11.431,11.431,0,0,1,2.816,3.078,7.636,7.636,0,0,1,1.077,4.09,7.332,7.332,0,0,1-.826,3.63,7.889,7.889,0,0,1-2.039,2.413,9.909,9.909,0,0,1-2.638,1.47,16.686,16.686,0,0,1-4.631,1.034c-.52.031-.763.046-.733.046a14.246,14.246,0,0,0,3-4.826,13.247,13.247,0,0,0,.878-3.493,2.677,2.677,0,0,0-1.057-2.182,13.319,13.319,0,0,0-2.6-1.585q-1.542-.735-3.263-1.471a12.328,12.328,0,0,1-3.055-1.839,11.948,11.948,0,0,1-2.574-2.94,7,7,0,0,1-1.1-3.815,8.309,8.309,0,0,1,.781-3.791,7.83,7.83,0,0,1,1.976-2.528,9.073,9.073,0,0,1,2.6-1.516,17.774,17.774,0,0,1,2.618-.782,12.326,12.326,0,0,1,2.091-.275c.581-.015.9-.024.965-.024a3.561,3.561,0,0,1-.551.6,10.754,10.754,0,0,0-1.31,1.677,14.9,14.9,0,0,0-1.333,2.619,8.977,8.977,0,0,0-.62,3.378,2.633,2.633,0,0,0,1.008,2.091,13.306,13.306,0,0,0,2.474,1.608q1.464.759,3.113,1.539A15.332,15.332,0,0,1,692.446,385.6Zm-7.982,10.2H685.7a4.459,4.459,0,0,0,1.328-.23,15.492,15.492,0,0,1-1.741,3.378q-1.008,1.447-1.786,2.412-.917-.091-1.49-.161a10.516,10.516,0,0,1-1.3-.254q-.965-.229-1.628-.459a11.335,11.335,0,0,1-1.146-.46q-.482-.229-.873-.459t-.85-.46q.691-1.195,1.333-2.436a8.815,8.815,0,0,0,.873-2.758,12.663,12.663,0,0,0,2.75,1.333A9.8,9.8,0,0,0,684.464,395.8Zm2.894-20.083q-.507,0-1.149.046a5.512,5.512,0,0,0-1.425.322,14.8,14.8,0,0,1,1.792-3.63,17.43,17.43,0,0,1,1.747-2.16,14.9,14.9,0,0,1,1.7.115A13.686,13.686,0,0,1,692,370.8a13.874,13.874,0,0,1,1.952.689,8.368,8.368,0,0,1,1.723,1.011,8.518,8.518,0,0,0-1.217,2.321q-.482,1.355-.988,2.826a18.323,18.323,0,0,0-2.8-1.333A9.188,9.188,0,0,0,687.358,375.719Z" transform="translate(-98.671 -0.153)" fill="#0090df"/>
          <path id="Path_7848" data-name="Path 7848" d="M762.237,371.035q.6.414,1.035.758a3.122,3.122,0,0,1,.713.782,3,3,0,0,1,.39,1.057,8.96,8.96,0,0,1,.115,1.585v16.36a11.557,11.557,0,0,1-.781,4.48,8.067,8.067,0,0,1-2.137,3.034,8.314,8.314,0,0,1-3.239,1.7,15.1,15.1,0,0,1-4.09.528,7.52,7.52,0,0,1-1.471-.138,7.116,7.116,0,0,1-.735-.092q-.6-.091-1.241-.253t-1.171-.322c-.353-.107-.529-.206-.529-.3q0-.045.115-.9t.23-1.861q.114-1.01.344-2.711,0,.138.345.3a5.546,5.546,0,0,0,.827.3c.322.092.674.177,1.058.254a5.5,5.5,0,0,0,1.08.115,5.616,5.616,0,0,0,3.723-.919,3.572,3.572,0,0,0,1.149-2.9V370.392q1.01,0,2.137.068A5.487,5.487,0,0,1,762.237,371.035Z" transform="translate(-136.678 -0.203)" fill="#0090df"/>
          <path id="Path_7849" data-name="Path 7849" d="M811.042,383.351a6.114,6.114,0,0,1,0,4.87H798.727V395.3a9.113,9.113,0,0,1-2.574,2.872,10.7,10.7,0,0,1-3.308,1.632V371.725a13.618,13.618,0,0,1,3.194,1.884,18.874,18.874,0,0,1,2.688,2.62v7.123Zm0-12.959a6.116,6.116,0,0,1,0,4.871h-11.35a15.881,15.881,0,0,0-2.987-2.78,19.64,19.64,0,0,0-3.538-2.091Zm0,31.065H793.488a16.1,16.1,0,0,0,3.469-2.045,12.3,12.3,0,0,0,2.734-2.78h11.35A6.006,6.006,0,0,1,811.042,401.457Z" transform="translate(-159.334 -0.203)" fill="#0090df"/>
          <path id="Path_7850" data-name="Path 7850" d="M864.635,373.264a7.684,7.684,0,0,1-.23,2.061q-.23.811-.735.811H841.611q-.459,0-.688-.787a7.428,7.428,0,0,1-.23-2.037,8.021,8.021,0,0,1,.23-2.062q.229-.857.688-.857h22.058q.5,0,.735.835A7.737,7.737,0,0,1,864.635,373.264Zm-9.1,28.147h-5.744v-23.8h5.744Z" transform="translate(-184.113 -0.203)" fill="#0090df"/>
          <path id="Path_7851" data-name="Path 7851" d="M494.836,385.694a15.227,15.227,0,0,0,.851,5.116,16.426,16.426,0,0,0,6,7.961,17.1,17.1,0,0,0,4.6,2.34,17.386,17.386,0,0,1-2.16.138,16.248,16.248,0,0,1-6.25-1.192,15.366,15.366,0,0,1-8.387-8.238,15.289,15.289,0,0,1-1.217-6.126,15.984,15.984,0,0,1,1.171-6.148,15.632,15.632,0,0,1,3.24-4.979,14.985,14.985,0,0,1,4.894-3.35A15.482,15.482,0,0,1,503.751,370a10.923,10.923,0,0,1,1.355.115,10.575,10.575,0,0,0,1.356.115,16.588,16.588,0,0,0-4.619,2.179,15.685,15.685,0,0,0-3.7,3.488,16.28,16.28,0,0,0-2.436,4.52A15.762,15.762,0,0,0,494.836,385.694Zm12.913-14.886a13.542,13.542,0,0,1,2.734.689q1.217.461,2.228.92a16.149,16.149,0,0,0-1.7,2.486,9.076,9.076,0,0,0-.965,2.725,17.023,17.023,0,0,0-2.482-1.217,12.559,12.559,0,0,0-3.355-.666,15.473,15.473,0,0,0-2.85.139,15.959,15.959,0,0,0-1.884.413,10.21,10.21,0,0,1,1.585-1.6,19.715,19.715,0,0,1,2.068-1.482q1.126-.707,2.321-1.3T507.749,370.808Zm-3.4,24.7q1.148-.093,2-.23a12.965,12.965,0,0,0,1.494-.322,5.483,5.483,0,0,0,1.149-.459q.506-.276,1.058-.644a11.2,11.2,0,0,0,.965,2.551,8.471,8.471,0,0,0,1.7,2.32,10.626,10.626,0,0,1-2.32,1.173,14.989,14.989,0,0,1-2.642.711q-1.1-.6-2.3-1.263t-2.321-1.379a17.818,17.818,0,0,1-2.068-1.516,11.2,11.2,0,0,1-1.585-1.632q.781.23,2.136.506A10.212,10.212,0,0,0,504.349,395.505Z" transform="translate(-1.602)" fill="#003d65"/>
          <path id="Path_7852" data-name="Path 7852" d="M620.491,394.092a12.345,12.345,0,0,1-5.745,5.839V370.1a8.384,8.384,0,0,1,1.839.23,7.318,7.318,0,0,1,1.862.69,5.339,5.339,0,0,1,1.447,1.125,2.193,2.193,0,0,1,.6,1.494Zm9.881,1.371v5.744H616.033a17.365,17.365,0,0,0,5.79-5.744Z" transform="translate(-67.102 -0.05)" fill="#003d65"/>
          <path id="Path_7853" data-name="Path 7853" d="M662.79,370.382v30.927h-6.3V373.828a2.751,2.751,0,0,1,1.769-2.6A10.471,10.471,0,0,1,662.79,370.382Z" transform="translate(-88.722 -0.198)" fill="#003d65"/>
          <path id="Path_7854" data-name="Path 7854" d="M695.539,385.4a11.442,11.442,0,0,1,2.816,3.079,7.634,7.634,0,0,1,1.077,4.089,7.329,7.329,0,0,1-.826,3.63,7.893,7.893,0,0,1-2.04,2.414,9.877,9.877,0,0,1-2.638,1.47,16.706,16.706,0,0,1-4.631,1.035c-.519.031-.763.046-.732.046a14.252,14.252,0,0,0,3-4.826,13.232,13.232,0,0,0,.879-3.493,2.676,2.676,0,0,0-1.057-2.182,13.3,13.3,0,0,0-2.6-1.585q-1.542-.735-3.264-1.471a12.318,12.318,0,0,1-3.055-1.839,11.939,11.939,0,0,1-2.574-2.94,7,7,0,0,1-1.1-3.815,8.309,8.309,0,0,1,.781-3.791,7.82,7.82,0,0,1,1.976-2.528,9.068,9.068,0,0,1,2.6-1.516,17.709,17.709,0,0,1,2.618-.782,12.278,12.278,0,0,1,2.092-.275q.871-.023.965-.023a3.533,3.533,0,0,1-.551.6,10.8,10.8,0,0,0-1.31,1.677,14.871,14.871,0,0,0-1.333,2.618,8.968,8.968,0,0,0-.621,3.378,2.634,2.634,0,0,0,1.008,2.091,13.265,13.265,0,0,0,2.474,1.608q1.464.759,3.113,1.539A15.316,15.316,0,0,1,695.539,385.4Zm-7.982,10.2h1.238a4.459,4.459,0,0,0,1.328-.23,15.493,15.493,0,0,1-1.741,3.378q-1.008,1.447-1.786,2.412-.917-.091-1.49-.161a10.506,10.506,0,0,1-1.305-.254q-.964-.229-1.628-.458a11.276,11.276,0,0,1-1.146-.46q-.482-.229-.873-.458t-.85-.46q.69-1.2,1.333-2.436a8.826,8.826,0,0,0,.873-2.758,12.69,12.69,0,0,0,2.75,1.333A9.791,9.791,0,0,0,687.557,395.6Zm2.894-20.083c-.338,0-.72.016-1.149.046a5.539,5.539,0,0,0-1.425.322,14.833,14.833,0,0,1,1.792-3.63,17.339,17.339,0,0,1,1.747-2.159,14.877,14.877,0,0,1,1.7.114,13.683,13.683,0,0,1,1.977.391,13.869,13.869,0,0,1,1.952.689,8.385,8.385,0,0,1,1.723,1.011,8.517,8.517,0,0,0-1.217,2.321q-.483,1.355-.988,2.826a18.362,18.362,0,0,0-2.8-1.333A9.19,9.19,0,0,0,690.451,375.518Z" transform="translate(-100.273 -0.05)" fill="#003d65"/>
          <path id="Path_7855" data-name="Path 7855" d="M765.33,370.834q.6.414,1.035.758a3.122,3.122,0,0,1,.712.782,3,3,0,0,1,.391,1.057,9.017,9.017,0,0,1,.115,1.586v16.36a11.556,11.556,0,0,1-.781,4.48,8.07,8.07,0,0,1-2.137,3.034,8.323,8.323,0,0,1-3.239,1.7,15.1,15.1,0,0,1-4.091.528,7.477,7.477,0,0,1-1.47-.138,7.127,7.127,0,0,1-.735-.092q-.6-.091-1.241-.252t-1.172-.322c-.353-.107-.528-.206-.528-.3q0-.046.115-.9t.23-1.861q.114-1.01.344-2.711c0,.092.114.192.344.3a5.67,5.67,0,0,0,.827.3c.322.092.674.177,1.058.254a5.531,5.531,0,0,0,1.079.114,5.614,5.614,0,0,0,3.723-.919,3.572,3.572,0,0,0,1.149-2.9V370.191q1.01,0,2.137.068A5.486,5.486,0,0,1,765.33,370.834Z" transform="translate(-138.279 -0.099)" fill="#003d65"/>
          <path id="Path_7856" data-name="Path 7856" d="M814.135,383.151a6.113,6.113,0,0,1,0,4.87H801.819V395.1a9.1,9.1,0,0,1-2.574,2.872,10.691,10.691,0,0,1-3.308,1.632V371.524a13.63,13.63,0,0,1,3.194,1.884,18.839,18.839,0,0,1,2.688,2.619v7.123Zm0-12.96a6.116,6.116,0,0,1,0,4.871h-11.35a15.894,15.894,0,0,0-2.987-2.78,19.6,19.6,0,0,0-3.539-2.091Zm0,31.065H796.581a16.083,16.083,0,0,0,3.469-2.045,12.3,12.3,0,0,0,2.734-2.78h11.35A6,6,0,0,1,814.135,401.256Z" transform="translate(-160.936 -0.099)" fill="#003d65"/>
          <path id="Path_7857" data-name="Path 7857" d="M867.727,373.063a7.681,7.681,0,0,1-.23,2.061q-.231.811-.735.811H844.7q-.459,0-.689-.787a7.429,7.429,0,0,1-.23-2.038,8.028,8.028,0,0,1,.23-2.062q.229-.857.689-.857h22.058q.5,0,.735.835A7.738,7.738,0,0,1,867.727,373.063Zm-9.1,28.147h-5.744v-23.8h5.744Z" transform="translate(-185.715 -0.099)" fill="#003d65"/>
          <g id="Group_10444" data-name="Group 10444" transform="translate(512.293 370)">
            <path id="Path_7858" data-name="Path 7858" d="M573.072,399.507c.091-.041.2-.08.282,0s.2.084.3.146a.916.916,0,0,0,.349.084.227.227,0,0,0,.142-.018.284.284,0,0,1,.27-.012.227.227,0,0,0,.32-.142c.037-.085.072-.171.1-.258a.48.48,0,0,0,.029-.149c0-.084-.009-.169-.014-.256-.045.042-.111-.021-.169.034a.2.2,0,0,1-.269.014c-.045-.026-.094-.046-.136-.067-.108.122-.14.131-.26.045a.612.612,0,0,1-.174-.17c-.043-.072-.038-.176-.086-.242a.288.288,0,0,1-.035-.239c-.071-.012-.132-.026-.193-.031-.023,0-.065.013-.069.028-.02.081-.084.066-.136.067.018.074.037.139.049.2s.128.084.1.18c-.055.011-.054.011-.078.076-.015.041-.031.082-.047.122-.192-.082-.229-.08-.193-.244a3.008,3.008,0,0,0-.176-.278.271.271,0,0,1-.062-.2.2.2,0,0,0-.036-.139,1.021,1.021,0,0,0-.259-.2.361.361,0,0,1-.226-.238c-.008-.027-.049-.07-.057-.067-.088.041-.088-.053-.13-.091l-.1.036c.009.07,0,.163.03.191a.79.79,0,0,1,.208.283.084.084,0,0,0,.05.045c.124.019.184.136.285.191a.5.5,0,0,1,.121.108c.013.014.007.045.012.089l-.144-.093c-.117.076,0,.129.01.2-.077.068-.084.209-.226.206,0,.042,0,.074,0,.106,0,.068-.043.093-.1.061s-.124-.072-.186-.11c-.036-.022-.07-.048-.033-.109h.113c.045,0,.09,0,.135,0a.139.139,0,0,0,.11-.235.9.9,0,0,0-.248-.224.822.822,0,0,1-.4-.409c-.038-.108-.136-.128-.23-.058-.026.019-.052.038-.075.059a.261.261,0,0,1-.308.059c-.124-.055-.193,0-.19.135a.145.145,0,0,1-.1.158c-.017.007-.033.016-.05.022a.4.4,0,0,0-.194.187c-.036.063-.085.124-.035.2.005.009,0,.028-.005.04a.875.875,0,0,1-.251.278c-.036.032-.112.025-.169.021a.2.2,0,0,0-.206.1c.049.071.1.118.193.082a.117.117,0,0,1,.091.006c.068.041.116,0,.175-.024a4.724,4.724,0,0,1,.45-.187.42.42,0,0,1,.317-.015.078.078,0,0,0,.064-.005.408.408,0,0,1,.224-.03.764.764,0,0,0,.185-.025.182.182,0,0,1,.188.032c.01.1.021.169.023.241a.232.232,0,0,1-.02.1.491.491,0,0,1-.063.084.372.372,0,0,0,.254.18c.075.016.148.04.223.059a.2.2,0,0,1,.147.11.2.2,0,0,0,.137.1,1.864,1.864,0,0,1,.212.085c.1.047.179,0,.162-.11A.154.154,0,0,1,573.072,399.507Zm1.417-.418a1.159,1.159,0,0,1,.153,0c.026.071-.008.1-.056.1a.276.276,0,0,1-.136-.016C574.413,399.157,574.439,399.1,574.489,399.089Zm-1.05-.036c.092.035.2,0,.283.074a.365.365,0,0,1-.311-.03A.281.281,0,0,1,573.439,399.053Zm-2.39-.59c-.043.04-.071.01-.1-.031.028-.045.061-.074.106-.027A.065.065,0,0,1,571.048,398.463Zm.633-.475c.02-.023.042-.045.074-.079a.247.247,0,0,1-.025.221C571.627,398.079,571.62,398.057,571.681,397.988Zm.12.378a.216.216,0,0,1-.107.194c-.055-.011-.071-.039-.066-.1a1.958,1.958,0,0,0-.006-.243c.044-.006.112-.037.159-.016C571.847,398.233,571.8,398.31,571.8,398.367Z" transform="translate(-556.238 -384.222)" fill="url(#linear-gradient)"/>
            <path id="Path_7859" data-name="Path 7859" d="M579.584,398.021a.119.119,0,0,0,.047-.2.2.2,0,0,0-.05-.047c-.146-.092-.265-.22-.418-.3a.273.273,0,0,0-.256-.029.209.209,0,0,1-.072.044.206.206,0,0,1-.094.025l-.013,0,0,0H578.7a.276.276,0,0,1-.143-.04l-.057-.046a.221.221,0,0,1-.058-.094.229.229,0,0,1-.024-.112.233.233,0,0,1,.009-.073.207.207,0,0,0-.064.052.22.22,0,0,0-.078.156c0,.03-.012.075-.032.087-.066.037-.072.1-.09.161a.308.308,0,0,1-.052.1.193.193,0,0,0,.128.317.412.412,0,0,0,.333-.066.318.318,0,0,1,.388-.007.912.912,0,0,0,.263.1A.6.6,0,0,0,579.584,398.021Z" transform="translate(-560.402 -384.058)" fill="url(#linear-gradient-2)"/>
            <path id="Path_7860" data-name="Path 7860" d="M580.136,397.284c.018-.061.109-.1.046-.186l.105-.068a.7.7,0,0,0-.308.072l.007.056a.29.29,0,0,1-.029.128A.93.93,0,0,0,580.136,397.284Z" transform="translate(-561.38 -383.998)" fill="url(#linear-gradient-3)"/>
            <path id="Path_7861" data-name="Path 7861" d="M577.923,399.144l.275-.042C578.037,399.022,577.978,399.034,577.923,399.144Z" transform="translate(-560.326 -385.044)" fill="url(#linear-gradient-4)"/>
            <path id="Path_7862" data-name="Path 7862" d="M572.562,388.555a4.435,4.435,0,0,0-.124-.43,5.39,5.39,0,0,0-.354-.806,7.567,7.567,0,0,0-.986-1.391c-.093-.1-.188-.207-.286-.305-.049-.049-.1-.1-.15-.144l-.149-.139a6.767,6.767,0,0,0-.634-.518A7.145,7.145,0,0,0,567,383.585a7.629,7.629,0,0,0-1.535-.122,8.235,8.235,0,0,0-1.529.187,6.336,6.336,0,0,0-1.119.358.543.543,0,0,1-.052.192l-.022.021a.174.174,0,0,1-.015.026.22.22,0,0,1-.021.029.716.716,0,0,1-.1.19.043.043,0,0,0-.008.01,1.011,1.011,0,0,0-.2.691.255.255,0,0,1-.1.252,1.8,1.8,0,0,1-.7.437c-.061.013-.118.051-.179.069a.292.292,0,0,0-.16.134c-.026.041-.055.079-.081.121a.374.374,0,0,1-.189.158c-.1.039-.2.089-.3.13a.227.227,0,0,0-.126.136c-.064.159-.133.316-.2.476s-.133.337-.2.505c-.039.1-.082.119-.17.1-.012,0-.023-.009-.034-.013-.261-.091-.292-.29-.437-.466a.163.163,0,0,1-.038-.01l-.056-.006-.13-.019c-.1.167-.2.337-.3.511-.167.307-.319.624-.458.95,0,.011.009.023.013.035s.009.033.013.05h0c.012.046.022.093.029.14.027.025.064.038.082.073a.186.186,0,0,1,.013.084.906.906,0,0,1-.057.383c-.02.042-.048.093-.026.134s.088.027.136.035c.1.016.139.164.154.284.008.062.011.138-.032.174-.079.067-.216-.075-.273.016,0-.088-.1-.109-.177-.1s-.175.01-.19-.076a.189.189,0,0,1,.044-.13l.265-.394a.231.231,0,0,1-.056.028.21.21,0,0,1-.039.033.162.162,0,0,1-.092.035l-.014,0,0,0-.059.029h0l-.054.009a10.039,10.039,0,0,0-.389,1.537,7.432,7.432,0,0,0-.1.9q-.024.453-.02.906a14.42,14.42,0,0,0,.13,1.8c.021.154.045.309.071.462.006.044.013.086.022.121.019.1.038.2.059.3.062.293.132.583.221.865-.084-.284-.148-.576-.2-.869-.013-.07-.026-.141-.038-.211h0a3.576,3.576,0,0,1,.276.289.586.586,0,0,0,.4.22.341.341,0,0,1,.248.168c.116.171.237.336.35.508a.334.334,0,0,0,.149.128c.2.085.389.176.585.258a1.285,1.285,0,0,1,.459.305c.031.033.073.075.109.073a.126.126,0,0,1,.124.062,5.64,5.64,0,0,0,1.249-.3,4.639,4.639,0,0,0,1.932-.716c-.033.009.072-.2.039-.187s-.245.031-.277.048c-.049.027-.242-.063-.284-.1-.11-.1-.226-.188-.33-.293a1.066,1.066,0,0,1-.188-.245c-.127-.235-.241-.48-.366-.716a.282.282,0,0,1-.013-.273c.014-.028.021-.06.033-.089a.348.348,0,0,0,.015-.229c-.032-.124-.053-.253-.084-.378a.258.258,0,0,1,.018-.186c.1-.2.2-.393.284-.6a.766.766,0,0,1,.305-.375.259.259,0,0,0,.136-.239,1.64,1.64,0,0,1,.028-.206.179.179,0,0,1,.078-.148.544.544,0,0,0,.286-.379.258.258,0,0,1,.022-.045.59.59,0,0,1-.052-.1c-.026-.082-.069-.1-.139-.08a.379.379,0,0,1-.109,0c0-.074.01-.146-.014-.181a.225.225,0,0,1-.009-.234.943.943,0,0,0,.017-.437c0-.053-.044-.106.016-.144.041-.026.084-.066.125-.064.163.007.326.031.49.044a.171.171,0,0,0,.112-.022.6.6,0,0,0,.039-.448c-.007-.01-.019-.015-.028-.025s-.03-.025-.032-.04c-.011-.126-.1-.15-.175-.174s-.091-.069-.081-.156c.077.007.145-.078.225-.007.011.01.047-.021.074-.034v-.148c.017,0,.026,0,.032,0,.093.066.092.065.176-.014.022-.02.05-.029.07-.051a.133.133,0,0,0,.043-.073c0-.087.047-.11.1-.128a.288.288,0,0,0,.192-.224.2.2,0,0,1,.106-.139,1.749,1.749,0,0,1,.254-.1c.045-.014.064-.029.066-.09a.653.653,0,0,0-.04-.254.271.271,0,0,1,.044-.292c.054-.034.112-.061.164-.089l.037.251-.053.091c.013.054.086.073.048.133-.011.016-.058,0-.089,0-.007.131.126.116.156.206.055-.028.1-.073.147-.07s.084.055.14.1c.08-.048.168-.1.259-.154.057-.031.116-.061.168.021a.048.048,0,0,0,.09-.006.13.13,0,0,1,.146-.09.433.433,0,0,0,0-.091.5.5,0,0,1,.029-.324c.035-.1.079-.108.142-.04.03.032.047.09.108.077.027-.087.056-.166-.026-.245a.429.429,0,0,1-.058-.142.317.317,0,0,1,.3-.091.208.208,0,0,0,.126,0,1.372,1.372,0,0,0,.17-.088.241.241,0,0,0-.295-.055c-.078.029-.162.04-.242.063a.136.136,0,0,1-.137-.037.254.254,0,0,1-.109-.261.262.262,0,0,0-.022-.121.212.212,0,0,1,.045-.237c.065-.074.123-.155.183-.236.04-.054.077-.112.119-.173-.032-.118-.095-.163-.209-.138a.217.217,0,0,0-.137.216.209.209,0,0,1-.089.231c-.031.029-.062.057-.1.082a.585.585,0,0,0-.183.3.229.229,0,0,0,.087.294c.106.082.113.13.013.219a.416.416,0,0,0-.147.358.242.242,0,0,1,0,.042c-.013.108-.045.2-.148.223a.128.128,0,0,0-.065.052c-.065.1-.083.1-.179.037l-.069.12c-.049-.029-.1-.045-.085-.121s.048-.087.167-.088a.556.556,0,0,0-.035-.171,1.066,1.066,0,0,1-.132-.4.275.275,0,0,0-.039-.073l-.04.039c-.055.059-.107.124-.166.177a.163.163,0,0,1-.279-.106c-.017-.128-.029-.258-.043-.387a.391.391,0,0,1,.163-.4c.02-.014.039-.031.061-.043a1.213,1.213,0,0,0,.439-.529c.078-.15.159-.3.228-.455.028-.065.086-.127.061-.218l-.072.008c-.021-.131.056-.164.119-.2l.072.062c.022-.062.027-.121.055-.147a1.4,1.4,0,0,1,.192-.131c.159.071.216.024.232-.152a.28.28,0,0,0,.238-.078.073.073,0,0,1,.11.006l-.063.172.019.011.072-.127.044.031c.078-.1.078-.1.184-.04.028.015.058.028.086.045s.077.051.119.079c-.063.081-.063.081-.151.1a.177.177,0,0,0,.21.037c.058-.02.087,0,.122.044l-.043.084a1.087,1.087,0,0,1,.127,0,.355.355,0,0,1,.137.03c.154.092.307.187.456.292a.346.346,0,0,1,.1.147.22.22,0,0,1-.113.288.349.349,0,0,1-.174,0c-.092-.025-.18-.067-.27-.1-.024-.009-.049-.015-.073-.023a.815.815,0,0,1,.073.326.294.294,0,0,0,.3.249.248.248,0,0,0-.027-.068c-.022-.025-.054-.038-.074-.065a.093.093,0,0,1-.015-.072.091.091,0,0,1,.066-.043.269.269,0,0,1,.089.035l.155.069c-.04-.172-.035-.167.058-.266s.158-.134.262-.067c.008.005.022,0,.033,0,.056-.1-.047-.158-.052-.241s-.011-.177-.016-.266c.177,0,.233.041.258.19l-.122.045a.981.981,0,0,0,.088.129.077.077,0,0,0,.137-.044.14.14,0,0,1,.082-.106c.11-.061.219-.127.329-.189a.652.652,0,0,1,.073-.032l.138.135c.05-.087.106-.117.179-.1a.09.09,0,0,0,.058-.007c.089-.044.165-.047.2.083.075-.08.078-.095.049-.166-.013-.031-.023-.064-.034-.1a.5.5,0,0,1,.385.065c.14.081.278.168.419.254a.157.157,0,0,0-.053-.146c-.045-.037-.088-.079-.132-.118a.137.137,0,0,1-.048-.157.112.112,0,0,0-.047-.139.544.544,0,0,1-.047-.048l.014-.025c.078.065.156.132.231.2l.151.139c.05.045.1.09.148.137.1.094.194.191.288.291a7.493,7.493,0,0,1,1,1.341,4.68,4.68,0,0,1,.61,1.633A4.137,4.137,0,0,0,572.562,388.555Zm-9.55-2.062a.533.533,0,0,1-.15.165c-.089.063-.19.1-.281.161a.169.169,0,0,1-.2.01.2.2,0,0,0-.2-.034c-.01,0-.022,0-.053-.011l.077-.115c-.012-.115-.128-.017-.157-.109.059-.048.152-.014.156-.145l-.167.027c.049-.059.028-.194.14-.166l0-.067c.076-.017.1.071.151.091l-.019.111c.017-.007.03-.008.034-.015a.235.235,0,0,1,.246-.136.353.353,0,0,0,.167-.051c.068-.038.1-.038.15.027a1.18,1.18,0,0,0,.085.108A.132.132,0,0,1,563.012,386.493Zm.6,2.357c-.011.074-.035.134-.113.155a1.148,1.148,0,0,0-.176.109.08.08,0,0,1-.128-.063.262.262,0,0,1,.008-.079s.005-.007.007-.011l.058-.136c-.016-.028-.042-.055-.045-.085a.177.177,0,0,1,.023-.117c.027-.027.074-.027.124-.043a.159.159,0,0,1,.074-.167.187.187,0,0,1,.183.046c.056.083.054.1-.014.215A1.23,1.23,0,0,1,563.615,388.85Zm.688.235.052.073a.255.255,0,0,1-.242.079.216.216,0,0,0-.123.021,1.914,1.914,0,0,1-.335.1c.066-.085.086-.22.21-.232l-.2-.059c.025-.03.037-.055.055-.064.066-.033.083-.078.042-.152-.009-.016,0-.044,0-.076l.12-.015c.052-.1-.044-.165-.029-.251l-.139.01.023-.187-.012-.006-.069.125-.007-.114-.066.009.047-.071-.008-.193-.073-.1h.1a.6.6,0,0,1,.1-.179c.044-.038.116-.032.174-.045.029.1-.07.1-.068.185a.362.362,0,0,1,.1-.01.142.142,0,0,1,.091.044c.012.017,0,.07-.017.1-.026.061-.06.119-.086.168a1.59,1.59,0,0,1,.315.566C564.413,388.852,564.422,388.9,564.3,389.085Zm4.455-3.395c-.031.023-.065.024-.082-.013a.183.183,0,0,1-.02-.111c.012-.047.055-.047.09-.026a1.022,1.022,0,0,1,.105.087C568.81,385.653,568.783,385.671,568.757,385.69Zm.614-.372a.523.523,0,0,1-.481-.235.171.171,0,0,1-.01-.212c.006-.011.021-.023.02-.032a.273.273,0,0,1,.1-.215.219.219,0,0,1,0-.178c.1.05.19.1.284.158a2.3,2.3,0,0,0-.074.223.371.371,0,0,0,.1.338c.033.039.067.076.107.12C569.394,385.3,569.383,385.319,569.371,385.319Zm.337.246a.262.262,0,0,1-.179-.152c.016-.05.045-.059.074-.029C569.651,385.433,569.737,385.455,569.708,385.565Z" transform="translate(-549.864 -376.971)" fill="url(#linear-gradient-5)"/>
            <path id="Path_7863" data-name="Path 7863" d="M574.062,397.375a20.279,20.279,0,0,1-2.279,2.643l-.634.567q-.573.5-1.143.952a.351.351,0,0,1-.022.093,2.462,2.462,0,0,1-.38.977,5.232,5.232,0,0,1-.4.495,3.986,3.986,0,0,0-.2.438,1.75,1.75,0,0,0-.058.417.515.515,0,0,1,.066.082.454.454,0,0,1-.025.427.118.118,0,0,0-.02.048,2.753,2.753,0,0,1-.167.583c-.061.188-.13.372-.185.563a.233.233,0,0,1-.2.17h-.005a1.459,1.459,0,0,1-.089.146c-.03.043-.064.087-.1.131a.33.33,0,0,0,0,.038.256.256,0,0,1-.073.2.3.3,0,0,1-.066.244c-.036.035-.081.053-.12.084a.7.7,0,0,0-.16.379,1.436,1.436,0,0,1-.584.842c-.244.162-.692.37-.771-.083-.009-.054,0-.112-.018-.164-.032-.125-.069-.249-.109-.371a.349.349,0,0,0-.065-.132.383.383,0,0,1-.091-.265,2.122,2.122,0,0,0-.189-.876.81.81,0,0,1-.078-.563c.034-.148.052-.3.1-.445a.7.7,0,0,0,.028-.369q-.04-.194-.076-.389a9.153,9.153,0,0,1-6.291,1.036,10.293,10.293,0,0,0,4.122,3.275,7.341,7.341,0,0,0,4.568.085,6.481,6.481,0,0,0,1.482-.664,9.706,9.706,0,0,0,4.464-7.371A12.522,12.522,0,0,0,574.062,397.375Zm-4.45,7.96a.112.112,0,0,0-.02.049,2.8,2.8,0,0,1-.167.583c-.061.188-.13.372-.185.562a.233.233,0,0,1-.2.17c-.07.017-.129-.049-.136-.136s-.015-.186-.022-.279a.37.37,0,0,1,.059-.25.464.464,0,0,0,.07-.38.552.552,0,0,1,.016-.19.119.119,0,0,1,.089-.1c.174-.045.273-.2.377-.35a.9.9,0,0,0,.069-.193.629.629,0,0,1,.074.09A.455.455,0,0,1,569.612,405.335Z" transform="translate(-550.866 -384.177)" fill="url(#linear-gradient-6)"/>
            <path id="Path_7864" data-name="Path 7864" d="M567.025,392.334h.115a.574.574,0,0,1,.116-.175.524.524,0,0,1,.2-.043c.032.1-.081.1-.079.179a.5.5,0,0,1,.112-.01.172.172,0,0,1,.1.043c.013.017,0,.068-.02.1-.031.059-.069.115-.1.163a1.508,1.508,0,0,1,.362.549c.178.036.188.082.051.261l.059.071a.327.327,0,0,1-.278.076.289.289,0,0,0-.141.02,2.5,2.5,0,0,1-.384.1c.075-.082.1-.213.242-.226l-.226-.057c.028-.029.042-.053.063-.062.075-.032.095-.076.048-.148-.01-.015,0-.043,0-.074l.137-.015c.06-.1-.051-.16-.033-.243l-.16.009.026-.181-.013-.006-.079.121-.008-.11-.075.009.055-.069-.009-.188Z" transform="translate(-554.682 -381.453)" fill="none"/>
            <path id="Path_7865" data-name="Path 7865" d="M576.537,400.506a9.076,9.076,0,0,0,3-2.054,9.913,9.913,0,0,0,2.008-3.07,9.79,9.79,0,0,0,.738-3.831,10.866,10.866,0,0,0-.738-4.062,9.939,9.939,0,0,0-2.008-3.185,8.9,8.9,0,0,0-3-2.077,9.252,9.252,0,0,0-3.67-.74,8.834,8.834,0,0,0-1.339.1,9.232,9.232,0,0,1,3.512.735,8.906,8.906,0,0,1,3,2.077,9.946,9.946,0,0,1,2.008,3.184,10.87,10.87,0,0,1,.738,4.063,9.788,9.788,0,0,1-.738,3.83,9.916,9.916,0,0,1-2.008,3.07,9.221,9.221,0,0,1-5.29,2.695h.118A9.259,9.259,0,0,0,576.537,400.506Z" transform="translate(-557.014 -375.949)" fill="#0090df"/>
            <path id="Path_7866" data-name="Path 7866" d="M568.783,373.73a32.107,32.107,0,0,1,3.525-1.931c-.24-.09-.483-.177-.729-.257a31.969,31.969,0,0,0-4.293,2.284,13.531,13.531,0,0,0-3.554,3.255q.784-.232,1.685-.439c.033-.008.068-.013.1-.02A13.528,13.528,0,0,1,568.783,373.73Z" transform="translate(-552.977 -370.799)" fill="#0090df"/>
            <path id="Path_7867" data-name="Path 7867" d="M565.779,421.928c-.122-.007-.244-.014-.363-.024a3.56,3.56,0,0,1-1.685-.577,17.094,17.094,0,0,0,3.393,3.438,20.23,20.23,0,0,0,4.131,2.424c.334-.1.66-.214.981-.333a20.211,20.211,0,0,1-3.614-2.188A16.953,16.953,0,0,1,565.779,421.928Z" transform="translate(-552.977 -396.581)" fill="#0090df"/>
            <path id="Path_7868" data-name="Path 7868" d="M551.992,400.069a14.574,14.574,0,0,1-4.754-3.3,15.534,15.534,0,0,1-3.161-4.939,16.912,16.912,0,0,1,0-12.279,15.525,15.525,0,0,1,3.161-4.938,14.6,14.6,0,0,1,4.754-3.3,14.266,14.266,0,0,1,4.128-1.1,14.594,14.594,0,0,0-10.38,4.493,15.542,15.542,0,0,0-3.161,4.938,16.9,16.9,0,0,0,0,12.279,15.537,15.537,0,0,0,3.161,4.939,14.642,14.642,0,0,0,10.686,4.5h1.939c-.1-.03-.189-.065-.284-.1h-.157A14.633,14.633,0,0,1,551.992,400.069Z" transform="translate(-541.425 -370.112)" fill="#0090df"/>
            <path id="Path_7869" data-name="Path 7869" d="M587.944,376.452l.974-.736a14.513,14.513,0,0,0-6.628-4.374c-.258.113-.513.234-.769.353a14.524,14.524,0,0,1,6.423,4.757Z" transform="translate(-562.19 -370.695)" fill="#003d65"/>
            <path id="Path_7870" data-name="Path 7870" d="M570.32,421.77q-.949,0-1.8-.068a3.556,3.556,0,0,1-1.685-.577c.178.239.363.471.55.7.494.03,1.01.045,1.553.045A9.719,9.719,0,0,0,570.32,421.77Z" transform="translate(-554.585 -396.476)" fill="#003d65"/>
            <path id="Path_7871" data-name="Path 7871" d="M591.882,387.057a15.846,15.846,0,0,0-2.147-4.362c-.019-.027-.04-.053-.059-.081l-.246,2.179a16.439,16.439,0,0,1,.955,2.361,16.709,16.709,0,0,1,.762,5.078,16.483,16.483,0,0,1-.762,5.054,15.536,15.536,0,0,1-2.169,4.338,14.425,14.425,0,0,1-3.393,3.37,14.961,14.961,0,0,1-3.451,1.814q.257.121.517.235a15.175,15.175,0,0,0,4.431-2.146,14.425,14.425,0,0,0,3.393-3.37,15.549,15.549,0,0,0,2.17-4.339,16.494,16.494,0,0,0,.762-5.054A16.721,16.721,0,0,0,591.882,387.057Z" transform="translate(-562.112 -376.532)" fill="#003d65"/>
            <path id="Path_7872" data-name="Path 7872" d="M567.125,381.879c-.1.119-.195.238-.288.361q.785-.231,1.685-.438c.188-.043.381-.078.576-.108-.053,0-.105,0-.158,0A8.532,8.532,0,0,0,567.125,381.879Z" transform="translate(-554.585 -376.054)" fill="#003d65"/>
            <path id="Path_7873" data-name="Path 7873" d="M562.213,398.941a15.369,15.369,0,0,1-3.416-3.508,16.691,16.691,0,0,1-2.239-4.546,17.183,17.183,0,0,1-.808-5.285,16.673,16.673,0,0,1,.808-5.17,17.547,17.547,0,0,1,2.239-4.57,15.792,15.792,0,0,1,3.416-3.6A14.024,14.024,0,0,1,566.506,370h-1.938a15.945,15.945,0,0,0-1.8.1c.1,0,.2-.007.307-.007h1.939a14.008,14.008,0,0,0-4.292,2.262,15.774,15.774,0,0,0-3.416,3.6,17.519,17.519,0,0,0-2.239,4.57,16.651,16.651,0,0,0-.808,5.17,17.167,17.167,0,0,0,.808,5.285,16.685,16.685,0,0,0,2.239,4.546,15.36,15.36,0,0,0,3.416,3.508,14.565,14.565,0,0,0,4.008,2.118h1.781A14.559,14.559,0,0,1,562.213,398.941Z" transform="translate(-548.068 -370)" fill="#003d65"/>
            <path id="Path_7874" data-name="Path 7874" d="M552.266,395.635a16.684,16.684,0,0,1-2.239-4.546,17.169,17.169,0,0,1-.808-5.285,16.652,16.652,0,0,1,.808-5.17,17.516,17.516,0,0,1,2.239-4.57,15.774,15.774,0,0,1,3.416-3.6,14.009,14.009,0,0,1,4.292-2.262h-1.939c-.1,0-.2.005-.307.007a14.265,14.265,0,0,0-4.128,1.1,14.6,14.6,0,0,0-4.754,3.3,15.525,15.525,0,0,0-3.161,4.938,16.912,16.912,0,0,0,0,12.279,15.535,15.535,0,0,0,3.161,4.939,14.645,14.645,0,0,0,10.686,4.5h.157a14.567,14.567,0,0,1-4.008-2.118A15.363,15.363,0,0,1,552.266,395.635Z" transform="translate(-543.034 -370.105)" fill="#003d65"/>
            <path id="Path_7875" data-name="Path 7875" d="M581,396.167a15.538,15.538,0,0,0,2.169-4.338,16.485,16.485,0,0,0,.762-5.054,16.711,16.711,0,0,0-.762-5.078,16.436,16.436,0,0,0-.955-2.361l-.135,1.188-1.218-2.139-2.49.169,2.279-1.722a14.524,14.524,0,0,0-6.423-4.757,32.106,32.106,0,0,0-3.525,1.931,13.526,13.526,0,0,0-3.266,2.893,8.532,8.532,0,0,1,1.815-.189c.053,0,.105,0,.158,0a8.833,8.833,0,0,1,1.339-.1,9.252,9.252,0,0,1,3.67.74,8.9,8.9,0,0,1,3,2.077,9.938,9.938,0,0,1,2.008,3.185,10.867,10.867,0,0,1,.738,4.062,9.79,9.79,0,0,1-.738,3.831,9.912,9.912,0,0,1-2.008,3.07,9.075,9.075,0,0,1-3,2.054,9.259,9.259,0,0,1-3.67.738h-.118a9.714,9.714,0,0,1-1.38.1c-.543,0-1.059-.015-1.553-.045a16.958,16.958,0,0,0,2.843,2.74,20.215,20.215,0,0,0,3.614,2.188,14.961,14.961,0,0,0,3.451-1.814A14.423,14.423,0,0,0,581,396.167Z" transform="translate(-554.895 -371.075)" fill="#003d65"/>
            <g id="Group_10443-2" data-name="Group 10443" transform="translate(23.741 4.387)">
              <path id="Path_7876" data-name="Path 7876" d="M591.434,382.2l3.43-2.591-.472,4.178-.98-1.722Z" transform="translate(-591.064 -379.366)" fill="#0090df"/>
              <path id="Path_7877" data-name="Path 7877" d="M594.067,383.882l-1.117-1.96-2.283.155,3.94-2.976Zm-.991-2.195.845,1.483.4-3.574-2.919,2.2Z" transform="translate(-590.667 -379.1)" fill="#0064b3"/>
            </g>
            <path id="Path_7878" data-name="Path 7878" d="M559.6,398.128a9.079,9.079,0,0,0,2.425-.56l.294-.1.289-.12.576-.238c.375-.189.755-.357,1.126-.552l1.094-.628,1.065-.692c.349-.243.688-.5,1.033-.754s.677-.525,1.009-.8l.5-.409.25-.2c.081-.07.159-.148.24-.221l.963-.88c.331-.28.627-.609.94-.916s.622-.62.937-.927l.9-.98c.3-.325.61-.645.909-.975.585-.676,2.172-2.888,2.791-3.541-.465.8-1.967,3.111-2.466,3.892-.535.743-1.083,1.477-1.646,2.2-.295.344-.592.687-.893,1.025s-.6.686-.922.991l-.967.936c-.081.077-.161.156-.245.23l-.256.213-.513.427A21.535,21.535,0,0,1,566.9,396.1l-1.134.655c-.386.2-.783.372-1.175.553-.2.088-.4.153-.6.231s-.4.152-.606.217l-.62.165-.309.082-.315.058A6.726,6.726,0,0,1,559.6,398.128Z" transform="translate(-550.839 -377.578)" fill="#0068b6"/>
          </g>
          <g id="Group_10448" data-name="Group 10448" transform="translate(487.456 407.784)">
            <g id="Group_10445" data-name="Group 10445" transform="translate(0 4.188)">
              <rect id="Rectangle_1969" data-name="Rectangle 1969" width="83.992" height="0.64" fill="#003d65"/>
            </g>
            <g id="Group_10446" data-name="Group 10446" transform="translate(87.056 0)">
              <path id="Path_7879" data-name="Path 7879" d="M670.475,457.385h18.952l-9.476-9.016Z" transform="translate(-670.475 -448.369)" fill="#003d65"/>
            </g>
            <g id="Group_10447" data-name="Group 10447" transform="translate(108.156 4.188)">
              <rect id="Rectangle_1970" data-name="Rectangle 1970" width="83.99" height="0.64" fill="#003d65"/>
            </g>
          </g>
        </g>
      </g>
    </g>
  </g>
</svg>
