<svg xmlns="http://www.w3.org/2000/svg" xmlns:xlink="http://www.w3.org/1999/xlink" width="494" height="197" viewBox="0 0 494 197">
  <defs>
    <clipPath id="clip-path">
      <rect id="Rectangle_11" data-name="Rectangle 11" width="494" height="197" transform="translate(0 0)" fill="#fff" stroke="#707070" stroke-width="1"/>
    </clipPath>
    <linearGradient id="linear-gradient" x1="1.65" y1="2.844" x2="-0.158" y2="-0.626" gradientUnits="objectBoundingBox">
      <stop offset="0" stop-color="#0064b3"/>
      <stop offset="1" stop-color="#00a7e9"/>
    </linearGradient>
    <linearGradient id="linear-gradient-2" x1="3.512" y1="5.726" x2="-1.982" y2="-3.254" xlink:href="#linear-gradient"/>
    <linearGradient id="linear-gradient-3" x1="15.725" y1="18.608" x2="-11.049" y2="-13.248" xlink:href="#linear-gradient"/>
    <linearGradient id="linear-gradient-4" x1="18.854" y1="51.091" x2="-12.834" y2="-35.776" xlink:href="#linear-gradient"/>
    <linearGradient id="linear-gradient-5" x1="0.831" y1="0.923" x2="0.315" y2="0.402" xlink:href="#linear-gradient"/>
    <linearGradient id="linear-gradient-6" x1="0.714" y1="0.613" x2="0.101" y2="-0.114" xlink:href="#linear-gradient"/>
  </defs>
  <g id="Group_12495" data-name="Group 12495" transform="translate(-80.299 -487.681)">
    <g id="Groupe_de_masques_1" data-name="Groupe de masques 1" transform="translate(80.299 487.681)" clip-path="url(#clip-path)">
      <g id="Groupe_17" data-name="Groupe 17" transform="translate(35.936 32.495)">
        <g id="Group_1" data-name="Group 1" transform="translate(0 108.79)">
          <path id="Path_42" data-name="Path 42" d="M19.3-16.536a3.671,3.671,0,0,1,0,2.922H12.488A9.541,9.541,0,0,0,10.7-15.281a11.754,11.754,0,0,0-2.122-1.254Zm0,7.773a3.671,3.671,0,0,1,0,2.922H11.909V-1.6A5.469,5.469,0,0,1,10.366.126,6.446,6.446,0,0,1,8.381,1.1V-15.736a8.155,8.155,0,0,1,1.916,1.13,11.3,11.3,0,0,1,1.612,1.571v4.272Zm0,10.86H8.767A9.63,9.63,0,0,0,10.848.87,7.377,7.377,0,0,0,12.488-.8H19.3A3.6,3.6,0,0,1,19.3,2.1Zm2.729-18.274a5.961,5.961,0,0,1,2.04-.358,5.123,5.123,0,0,1,2.04.413L37.074,1.987H32.995ZM27.1-6.365l2.012,3.445L26.132,2.014H22.025Zm2.949-4.879,2.922-4.851a5.228,5.228,0,0,1,2.095-.441,5.4,5.4,0,0,1,1.006.1,7.71,7.71,0,0,1,1.006.262L32.058-7.8Zm15.546-5.32a8.341,8.341,0,0,1,2.853.482,7.662,7.662,0,0,1,2.329,1.309,6.212,6.212,0,0,1,1.571,1.957,5.245,5.245,0,0,1,.579,2.426,6.459,6.459,0,0,1-1.144,3.928,5.724,5.724,0,0,1-3.817,2.026,4.848,4.848,0,0,1-.689.069,5.912,5.912,0,0,1-.8-.028,5.182,5.182,0,0,1-.786-.138,2.447,2.447,0,0,1-.648-.262V-8.129A2.327,2.327,0,0,0,46.4-7.66a3.671,3.671,0,0,0,1.53-.276,3.25,3.25,0,0,0,1.351-1.02,2.351,2.351,0,0,0,.469-1.433,2.265,2.265,0,0,0-.317-1.171,2.773,2.773,0,0,0-.882-.91,4.578,4.578,0,0,0-1.323-.579,6.215,6.215,0,0,0-1.64-.207,3.248,3.248,0,0,0-.758.083,5.98,5.98,0,0,0-.648.193,8.484,8.484,0,0,0-1.723-1.282,10.2,10.2,0,0,0-2.026-.868,7.01,7.01,0,0,1,2.357-1.1A11.179,11.179,0,0,1,45.591-16.563ZM39.748-14.3a9.95,9.95,0,0,1,2.04.758,7.436,7.436,0,0,1,1.654,1.171V2.069H39.748Zm26.764-2.233a3.671,3.671,0,0,1,0,2.922H59.7a9.541,9.541,0,0,0-1.792-1.668,11.754,11.754,0,0,0-2.122-1.254Zm0,7.773a3.671,3.671,0,0,1,0,2.922H59.124V-1.6A5.469,5.469,0,0,1,57.581.126,6.446,6.446,0,0,1,55.6,1.1V-15.736a8.155,8.155,0,0,1,1.916,1.13,11.3,11.3,0,0,1,1.612,1.571v4.272Zm0,10.86H55.982A9.63,9.63,0,0,0,58.063.87,7.377,7.377,0,0,0,59.7-.8h6.808A3.6,3.6,0,0,1,66.511,2.1Zm3.914-17.7a11.69,11.69,0,0,1,2,1.144,8.852,8.852,0,0,1,1.668,1.53V1.987H70.425V-15.6Zm3.859-.992a13.082,13.082,0,0,1,4.534.717A8.836,8.836,0,0,1,82.029-13.9a8.1,8.1,0,0,1,1.9,2.935,10.15,10.15,0,0,1,.634,3.611,10.3,10.3,0,0,1-.51,3.252A8.025,8.025,0,0,1,82.5-1.348,8.868,8.868,0,0,1,79.879.691a10.859,10.859,0,0,1-3.666,1.1V-1.073A5.346,5.346,0,0,0,78.17-2a6.724,6.724,0,0,0,1.461-1.516,6.9,6.9,0,0,0,.923-1.861,6.49,6.49,0,0,0,.317-1.985,7.1,7.1,0,0,0-.4-2.357,6.129,6.129,0,0,0-1.185-2.04A6,6,0,0,0,77.3-13.214a7.415,7.415,0,0,0-2.8-.648,11.185,11.185,0,0,0-1.626-1.3A11.4,11.4,0,0,0,71-16.15a7.478,7.478,0,0,1,1.516-.331A14.208,14.208,0,0,1,74.284-16.591Zm17.254.11V2.069H87.762V-14.413a1.651,1.651,0,0,1,1.061-1.557A6.278,6.278,0,0,1,91.539-16.48Zm14.581-.055a3.671,3.671,0,0,1,0,2.922H99.311a9.541,9.541,0,0,0-1.792-1.668A11.755,11.755,0,0,0,95.4-16.536Zm0,7.773a3.671,3.671,0,0,1,0,2.922H98.732V-1.6A5.469,5.469,0,0,1,97.189.126,6.446,6.446,0,0,1,95.2,1.1V-15.736a8.155,8.155,0,0,1,1.916,1.13,11.3,11.3,0,0,1,1.612,1.571v4.272Zm0,10.86H95.59A9.63,9.63,0,0,0,97.671.87,7.377,7.377,0,0,0,99.311-.8h6.808A3.6,3.6,0,0,1,106.119,2.1Zm10.75-15.353h-8.021q.055-.5.138-1.075a4.848,4.848,0,0,1,.276-1.075,2.473,2.473,0,0,1,.51-.827,1.077,1.077,0,0,1,.813-.331h8.241ZM112.762,1.987h-3.528a.345.345,0,0,1-.262-.152.707.707,0,0,1-.124-.455l4.493-7.194,6.615-10.75h3.528q.165,0,.193.221a3.019,3.019,0,0,1,.028.358l-5.678,9.4Zm10.557-2.15a3.173,3.173,0,0,1,.331,1.116q.055.565.055,1.034h-9.812l1.985-3.308q2.4,0,3.749-.041a17.894,17.894,0,0,1,2.081.028A1.869,1.869,0,0,1,122.74-1,2.561,2.561,0,0,1,123.319-.163ZM130.65-1.4a5.182,5.182,0,0,1,0,1.847,6.427,6.427,0,0,1-.593,1.957,8.066,8.066,0,0,1-1.171,1.764q-.083.083-.386.4t-.661.662a7.476,7.476,0,0,1-.689.593q-.331.248-.469.193l-.937-.441q.5-.441.965-.937a7.727,7.727,0,0,0,.758-1.047,5,5,0,0,0,.565-1.323,2.508,2.508,0,0,0,.124-.772,1.574,1.574,0,0,0-.124-.744,2.154,2.154,0,0,1-.992.041,2,2,0,0,1-.827-.372,2.069,2.069,0,0,1-.579-.7,2.264,2.264,0,0,1-.248-.923,2.181,2.181,0,0,1,.207-.937,2.632,2.632,0,0,1,.565-.786,2.83,2.83,0,0,1,.827-.551A2.858,2.858,0,0,1,128-3.719a2.321,2.321,0,0,1,1.874.675A3.062,3.062,0,0,1,130.65-1.4ZM140.959-14.11a4.747,4.747,0,0,1,1.847.662,8.488,8.488,0,0,1,1.571,1.24V1.987h-3.418Zm10.915-.606a3.368,3.368,0,0,1,.951,1.378,4.975,4.975,0,0,1,.372,1.9,6.878,6.878,0,0,1-.331,2.109,5.9,5.9,0,0,1-.965,1.847,4.644,4.644,0,0,1-1.585,1.3A4.843,4.843,0,0,1,148.1-5.7h-.345a4.2,4.2,0,0,1-.565-.041,3.678,3.678,0,0,1-.537-.11q-.234-.069-.234-.207V-9.121q0,.083.138.138t.317.11q.179.055.372.1a1.543,1.543,0,0,0,.3.041,2.525,2.525,0,0,0,1.089-.124,2.68,2.68,0,0,0,.91-.537,2.533,2.533,0,0,0,.62-.841,2.393,2.393,0,0,0,.22-1.006,2.293,2.293,0,0,0-.786-1.709,3.059,3.059,0,0,0-2.191-.744,2.81,2.81,0,0,0-.992.165,1.353,1.353,0,0,0-.331.083,4.57,4.57,0,0,0-.51.207q-.262.124-.482.248t-.221.207l.028.028a7.93,7.93,0,0,0-.675-.593,8.276,8.276,0,0,0-.854-.593,7.525,7.525,0,0,0-.937-.482,4.574,4.574,0,0,0-.9-.289,4.75,4.75,0,0,1,1.02-.758,8.1,8.1,0,0,1,1.309-.593,8.45,8.45,0,0,1,1.475-.372,9.712,9.712,0,0,1,1.544-.124,8.609,8.609,0,0,1,2.687.427A5.729,5.729,0,0,1,151.874-14.716Zm2.536,15.9q.055.055.193.221a2.807,2.807,0,0,0,.331.331q.193.193.469.441h-3.335q-.551-.441-1.006-.882a2.79,2.79,0,0,1-.675-1.02,6.256,6.256,0,0,1-.317-1.309A10.135,10.135,0,0,1,150-2.2a4.8,4.8,0,0,0-.165-1.213,1.562,1.562,0,0,0-.606-.937,1.259,1.259,0,0,0-.331-.234,1.658,1.658,0,0,1-.413-.317,5.072,5.072,0,0,0,3.225-1.158,3,3,0,0,1,.91.923,4.319,4.319,0,0,1,.5,1.158,7.32,7.32,0,0,1,.22,1.268q.055.648.055,1.254a4.5,4.5,0,0,0,.055.758,2.714,2.714,0,0,0,.179.606,4.159,4.159,0,0,0,.317.593Q154.134.8,154.41,1.187Zm14.14-17.723a3.671,3.671,0,0,1,0,2.922h-6.808a9.541,9.541,0,0,0-1.792-1.668,11.754,11.754,0,0,0-2.122-1.254Zm0,7.773a3.671,3.671,0,0,1,0,2.922h-7.387V-1.6A5.469,5.469,0,0,1,159.619.126a6.446,6.446,0,0,1-1.985.978V-15.736a8.155,8.155,0,0,1,1.916,1.13,11.3,11.3,0,0,1,1.612,1.571v4.272Zm0,10.86H158.02A9.63,9.63,0,0,0,160.1.87,7.376,7.376,0,0,0,161.741-.8h6.808A3.6,3.6,0,0,1,168.549,2.1ZM175.5-7.178a9.154,9.154,0,0,0,.51,3.069,9.857,9.857,0,0,0,1.42,2.656A9.945,9.945,0,0,0,179.6.666a10.278,10.278,0,0,0,2.756,1.4,10.441,10.441,0,0,1-1.3.083,9.742,9.742,0,0,1-3.749-.716A9.271,9.271,0,0,1,174.3-.545,9.286,9.286,0,0,1,172.284-3.5a9.175,9.175,0,0,1-.73-3.674,9.589,9.589,0,0,1,.7-3.688,9.374,9.374,0,0,1,1.943-2.986,8.985,8.985,0,0,1,2.935-2.009,9.281,9.281,0,0,1,3.707-.729,6.4,6.4,0,0,1,.813.069,6.4,6.4,0,0,0,.813.069,9.951,9.951,0,0,0-2.77,1.307,9.421,9.421,0,0,0-2.219,2.092,9.779,9.779,0,0,0-1.461,2.711A9.454,9.454,0,0,0,175.5-7.178ZM181.2-1.293q.689-.055,1.2-.138a7.889,7.889,0,0,0,.9-.193,3.37,3.37,0,0,0,.689-.276q.3-.165.634-.386a6.765,6.765,0,0,0,.579,1.53,5.1,5.1,0,0,0,1.02,1.392,6.367,6.367,0,0,1-1.392.7,9,9,0,0,1-1.585.427q-.661-.358-1.378-.758T180.47.181a10.8,10.8,0,0,1-1.24-.91,6.746,6.746,0,0,1-.951-.978q.469.138,1.282.3A6.142,6.142,0,0,0,181.2-1.293Zm2.04-14.813a8.069,8.069,0,0,1,1.64.413q.73.276,1.337.551a9.749,9.749,0,0,0-1.02,1.491,5.467,5.467,0,0,0-.579,1.635,10.113,10.113,0,0,0-1.488-.73,7.508,7.508,0,0,0-2.012-.4,9.3,9.3,0,0,0-1.709.083,9.723,9.723,0,0,0-1.13.248,6.162,6.162,0,0,1,.951-.96,11.929,11.929,0,0,1,1.24-.889q.675-.424,1.392-.782T183.24-16.106Zm16.62-.429a3.671,3.671,0,0,1,0,2.922h-6.808a9.541,9.541,0,0,0-1.792-1.668,11.754,11.754,0,0,0-2.122-1.254Zm0,7.773a3.671,3.671,0,0,1,0,2.922h-7.387V-1.6A5.469,5.469,0,0,1,190.93.126a6.446,6.446,0,0,1-1.985.978V-15.736a8.156,8.156,0,0,1,1.916,1.13,11.3,11.3,0,0,1,1.612,1.571v4.272Zm0,10.86H189.332A9.63,9.63,0,0,0,191.413.87,7.377,7.377,0,0,0,193.053-.8h6.808A3.6,3.6,0,0,1,199.861,2.1Zm14-18.412a5.858,5.858,0,0,1,1.971-.262,5.782,5.782,0,0,1,1.888.4L213.008.057a3.648,3.648,0,0,1-.717,1.02,4.125,4.125,0,0,1-.937.689,2.769,2.769,0,0,1-1.351.3,2.689,2.689,0,0,1-1.337-.3,4.243,4.243,0,0,1-.923-.689,3.647,3.647,0,0,1-.717-1.02l-4.713-16.235a5.555,5.555,0,0,1,1.874-.4,5.69,5.69,0,0,1,1.957.262L210-1.459Zm17.089-.221a3.671,3.671,0,0,1,0,2.922h-6.808a9.54,9.54,0,0,0-1.792-1.668,11.754,11.754,0,0,0-2.122-1.254Zm0,7.773a3.671,3.671,0,0,1,0,2.922h-7.387V-1.6A5.469,5.469,0,0,1,222.021.126a6.446,6.446,0,0,1-1.985.978V-15.736a8.155,8.155,0,0,1,1.916,1.13,11.3,11.3,0,0,1,1.612,1.571v4.272Zm0,10.86H220.423A9.63,9.63,0,0,0,222.5.87,7.376,7.376,0,0,0,224.144-.8h6.808A3.6,3.6,0,0,1,230.952,2.1ZM241.7-13.256h-8.021q.055-.5.138-1.075a4.85,4.85,0,0,1,.276-1.075,2.473,2.473,0,0,1,.51-.827,1.077,1.077,0,0,1,.813-.331h8.241ZM237.595,1.987h-3.528a.345.345,0,0,1-.262-.152.707.707,0,0,1-.124-.455l4.493-7.194,6.615-10.75h3.528q.165,0,.193.221a3.015,3.015,0,0,1,.028.358l-5.678,9.4Zm10.557-2.15a3.173,3.173,0,0,1,.331,1.116q.055.565.055,1.034h-9.812l1.985-3.308q2.4,0,3.749-.041a17.9,17.9,0,0,1,2.081.028A1.869,1.869,0,0,1,247.572-1,2.562,2.562,0,0,1,248.151-.163Zm21.527,2.205-1.323-4.906a6.643,6.643,0,0,1-.951.372,4.038,4.038,0,0,1-1.227.179,3.651,3.651,0,0,1-.882-.1,3.247,3.247,0,0,1-.661-.234,3.619,3.619,0,0,1-.579-.331l.606-2.729a2.726,2.726,0,0,0,.413.138,2.7,2.7,0,0,0,.455.083,5.413,5.413,0,0,0,.565.028,4.294,4.294,0,0,0,.73-.083,1.341,1.341,0,0,0,.73-.358l-2.15-7.332-4.245,15.27H257.3l5.016-16.648a3.676,3.676,0,0,1,.744-.965,4.432,4.432,0,0,1,.965-.662,2.933,2.933,0,0,1,1.378-.3,3.018,3.018,0,0,1,1.392.3,4.326,4.326,0,0,1,.978.662,4.669,4.669,0,0,1,.744.965l5.044,16.648Zm13.34-18.357a5.858,5.858,0,0,1,1.971-.262,5.782,5.782,0,0,1,1.888.4L282.164.057a3.648,3.648,0,0,1-.717,1.02,4.126,4.126,0,0,1-.937.689,2.769,2.769,0,0,1-1.351.3,2.689,2.689,0,0,1-1.337-.3,4.246,4.246,0,0,1-.923-.689,3.648,3.648,0,0,1-.717-1.02l-4.713-16.235a5.555,5.555,0,0,1,1.874-.4,5.69,5.69,0,0,1,1.957.262L279.16-1.459Zm17.089-.221a3.671,3.671,0,0,1,0,2.922H293.3a9.54,9.54,0,0,0-1.792-1.668,11.753,11.753,0,0,0-2.122-1.254Zm0,7.773a3.671,3.671,0,0,1,0,2.922H292.72V-1.6A5.468,5.468,0,0,1,291.177.126a6.446,6.446,0,0,1-1.984.978V-15.736a8.156,8.156,0,0,1,1.916,1.13,11.3,11.3,0,0,1,1.612,1.571v4.272Zm0,10.86H289.578A9.629,9.629,0,0,0,291.659.87,7.376,7.376,0,0,0,293.3-.8h6.808A3.6,3.6,0,0,1,300.107,2.1Zm6.946-9.275a9.153,9.153,0,0,0,.51,3.069,9.857,9.857,0,0,0,1.419,2.656A9.946,9.946,0,0,0,311.16.666a10.276,10.276,0,0,0,2.756,1.4,10.441,10.441,0,0,1-1.3.083,9.742,9.742,0,0,1-3.749-.716,9.272,9.272,0,0,1-3.018-1.982A9.285,9.285,0,0,1,303.842-3.5a9.174,9.174,0,0,1-.73-3.674,9.59,9.59,0,0,1,.7-3.688,9.373,9.373,0,0,1,1.943-2.986,8.986,8.986,0,0,1,2.935-2.009,9.281,9.281,0,0,1,3.707-.729,6.4,6.4,0,0,1,.813.069,6.4,6.4,0,0,0,.813.069,9.951,9.951,0,0,0-2.77,1.307,9.422,9.422,0,0,0-2.219,2.092,9.778,9.778,0,0,0-1.461,2.711A9.456,9.456,0,0,0,307.053-7.178Zm5.706,5.885q.689-.055,1.2-.138a7.888,7.888,0,0,0,.9-.193,3.369,3.369,0,0,0,.689-.276q.3-.165.634-.386a6.765,6.765,0,0,0,.579,1.53,5.1,5.1,0,0,0,1.02,1.392,6.367,6.367,0,0,1-1.392.7,9,9,0,0,1-1.585.427q-.662-.358-1.378-.758T312.028.181a10.8,10.8,0,0,1-1.24-.91,6.746,6.746,0,0,1-.951-.978q.469.138,1.282.3A6.142,6.142,0,0,0,312.759-1.293Zm2.04-14.813a8.07,8.07,0,0,1,1.64.413q.73.276,1.337.551a9.752,9.752,0,0,0-1.02,1.491,5.467,5.467,0,0,0-.579,1.635,10.112,10.112,0,0,0-1.488-.73,7.508,7.508,0,0,0-2.012-.4,9.3,9.3,0,0,0-1.709.083,9.722,9.722,0,0,0-1.13.248,6.162,6.162,0,0,1,.951-.96,11.934,11.934,0,0,1,1.24-.889q.675-.424,1.392-.782T314.8-16.106Zm22.334,8.722a6.848,6.848,0,0,1,1.689,1.847,4.58,4.58,0,0,1,.646,2.453,4.394,4.394,0,0,1-.5,2.177A4.732,4.732,0,0,1,337.748.54a5.952,5.952,0,0,1-1.581.882,9.8,9.8,0,0,1-1.581.455,9.814,9.814,0,0,1-1.2.165q-.467.028-.44.028A11.35,11.35,0,0,0,333.975.746a11.382,11.382,0,0,0,.776-1.571,7.919,7.919,0,0,0,.527-2.095,1.606,1.606,0,0,0-.634-1.309,7.943,7.943,0,0,0-1.557-.951q-.923-.441-1.957-.882a7.423,7.423,0,0,1-1.833-1.1,7.2,7.2,0,0,1-1.544-1.764,4.2,4.2,0,0,1-.662-2.288,4.989,4.989,0,0,1,.469-2.274,4.686,4.686,0,0,1,1.185-1.516,5.448,5.448,0,0,1,1.557-.91,10.576,10.576,0,0,1,1.571-.469,7.256,7.256,0,0,1,1.254-.165l.579-.014a2.1,2.1,0,0,1-.331.358,6.525,6.525,0,0,0-.786,1.006,8.908,8.908,0,0,0-.8,1.571,5.372,5.372,0,0,0-.372,2.026,1.58,1.58,0,0,0,.6,1.254,7.983,7.983,0,0,0,1.483.965q.879.455,1.868.923A9.166,9.166,0,0,1,337.133-7.385Zm-3.052-5.926q-.3,0-.689.028a3.3,3.3,0,0,0-.854.193,8.9,8.9,0,0,1,1.075-2.177,10.408,10.408,0,0,1,1.047-1.3,8.75,8.75,0,0,1,1.02.069,8.18,8.18,0,0,1,1.185.234,8.425,8.425,0,0,1,1.171.413,5.007,5.007,0,0,1,1.034.606,5.105,5.105,0,0,0-.73,1.392q-.289.813-.593,1.7a11,11,0,0,0-1.681-.8A5.509,5.509,0,0,0,334.08-13.311ZM332.345-1.266h.742a2.69,2.69,0,0,0,.8-.138A9.319,9.319,0,0,1,332.84.622q-.6.868-1.072,1.447-.55-.055-.893-.1a6.423,6.423,0,0,1-.783-.152q-.577-.138-.976-.276a6.741,6.741,0,0,1-.688-.276q-.289-.138-.524-.276t-.51-.276q.413-.717.8-1.461a5.285,5.285,0,0,0,.524-1.654,7.649,7.649,0,0,0,1.649.8A5.886,5.886,0,0,0,332.345-1.266Zm20.876-15.27a3.671,3.671,0,0,1,0,2.922h-6.808a9.539,9.539,0,0,0-1.792-1.668,11.753,11.753,0,0,0-2.122-1.254Zm0,7.773a3.671,3.671,0,0,1,0,2.922h-7.387V-1.6A5.469,5.469,0,0,1,344.291.126a6.447,6.447,0,0,1-1.985.978V-15.736a8.157,8.157,0,0,1,1.916,1.13,11.3,11.3,0,0,1,1.612,1.571v4.272Zm0,10.86H342.692A9.63,9.63,0,0,0,344.773.87,7.376,7.376,0,0,0,346.413-.8h6.808A3.6,3.6,0,0,1,353.221,2.1Zm3.831-16.207a4.746,4.746,0,0,1,1.847.662,8.487,8.487,0,0,1,1.571,1.24V1.987h-3.418Zm10.915-.606a3.367,3.367,0,0,1,.951,1.378,4.975,4.975,0,0,1,.372,1.9,6.879,6.879,0,0,1-.331,2.109,5.9,5.9,0,0,1-.965,1.847,4.644,4.644,0,0,1-1.585,1.3,4.843,4.843,0,0,1-2.219.482h-.345a4.2,4.2,0,0,1-.565-.041,3.676,3.676,0,0,1-.537-.11q-.234-.069-.234-.207V-9.121q0,.083.138.138t.317.11q.179.055.372.1a1.543,1.543,0,0,0,.3.041,2.525,2.525,0,0,0,1.089-.124,2.68,2.68,0,0,0,.91-.537,2.532,2.532,0,0,0,.62-.841,2.394,2.394,0,0,0,.221-1.006,2.293,2.293,0,0,0-.786-1.709A3.059,3.059,0,0,0,363.5-13.7a2.81,2.81,0,0,0-.992.165,1.353,1.353,0,0,0-.331.083,4.575,4.575,0,0,0-.51.207q-.262.124-.482.248t-.22.207l.028.028a7.917,7.917,0,0,0-.675-.593,8.274,8.274,0,0,0-.854-.593,7.521,7.521,0,0,0-.937-.482,4.572,4.572,0,0,0-.9-.289,4.751,4.751,0,0,1,1.02-.758,8.1,8.1,0,0,1,1.309-.593,8.449,8.449,0,0,1,1.475-.372,9.713,9.713,0,0,1,1.543-.124,8.61,8.61,0,0,1,2.687.427A5.728,5.728,0,0,1,367.967-14.716Zm2.536,15.9q.055.055.193.221a2.8,2.8,0,0,0,.331.331q.193.193.469.441H368.16q-.551-.441-1.006-.882a2.791,2.791,0,0,1-.675-1.02,6.253,6.253,0,0,1-.317-1.309,10.131,10.131,0,0,1-.069-1.171,4.8,4.8,0,0,0-.165-1.213,1.562,1.562,0,0,0-.606-.937,1.26,1.26,0,0,0-.331-.234,1.658,1.658,0,0,1-.413-.317A5.072,5.072,0,0,0,367.8-6.062a3,3,0,0,1,.91.923,4.321,4.321,0,0,1,.5,1.158,7.33,7.33,0,0,1,.22,1.268q.055.648.055,1.254a4.5,4.5,0,0,0,.055.758,2.717,2.717,0,0,0,.179.606,4.162,4.162,0,0,0,.317.593Q370.227.8,370.5,1.187Zm14.14-17.723a3.671,3.671,0,0,1,0,2.922h-6.808a9.539,9.539,0,0,0-1.792-1.668,11.753,11.753,0,0,0-2.122-1.254Zm0,7.773a3.671,3.671,0,0,1,0,2.922h-7.387V-1.6A5.468,5.468,0,0,1,375.713.126a6.447,6.447,0,0,1-1.985.978V-15.736a8.156,8.156,0,0,1,1.916,1.13,11.3,11.3,0,0,1,1.612,1.571v4.272Zm0,10.86H374.114A9.63,9.63,0,0,0,376.195.87,7.376,7.376,0,0,0,377.835-.8h6.808A3.6,3.6,0,0,1,384.643,2.1Zm14.636-18.633a10.5,10.5,0,0,1,1.185.069,4.2,4.2,0,0,1,1.185.317,2.073,2.073,0,0,1,.827.758,1.84,1.84,0,0,1,.358,1.006V2.1h-3.556V-16.536Zm-4.713,1.957a4.244,4.244,0,0,0-.772-.965,3.851,3.851,0,0,0-.978-.689,3.018,3.018,0,0,0-1.392-.3,2.628,2.628,0,0,0-1.309.3,4.246,4.246,0,0,0-.923.689,4.671,4.671,0,0,0-.744.965V2.1h3.941l-.965-15.353,7.084,14.388V-6.64Zm15.573-1.9V2.069h-3.776V-14.413a1.651,1.651,0,0,1,1.061-1.557A6.278,6.278,0,0,1,410.139-16.48ZM421.66,2.069h-3.445V-12.208h3.445Zm5.457-16.882a4.631,4.631,0,0,1-.138,1.236q-.138.486-.441.486h-13.23q-.275,0-.413-.472a4.474,4.474,0,0,1-.138-1.222,4.828,4.828,0,0,1,.138-1.237q.138-.514.413-.514h13.23q.3,0,.441.5A4.664,4.664,0,0,1,427.117-14.813Zm13.588-1.723a3.67,3.67,0,0,1,0,2.922H433.9a9.539,9.539,0,0,0-1.792-1.668,11.753,11.753,0,0,0-2.122-1.254Zm0,7.773a3.67,3.67,0,0,1,0,2.922h-7.387V-1.6A5.469,5.469,0,0,1,431.775.126a6.446,6.446,0,0,1-1.985.978V-15.736a8.155,8.155,0,0,1,1.916,1.13,11.3,11.3,0,0,1,1.612,1.571v4.272Zm0,10.86H430.177A9.629,9.629,0,0,0,432.258.87,7.376,7.376,0,0,0,433.9-.8h6.808A3.6,3.6,0,0,1,440.706,2.1Z" transform="translate(-8.381 24.214)" fill="#00a1ed"/>
          <path id="Path_1" data-name="Path 1" d="M151.918,499.261s9.315-1.412,9.88-2.258.282,3.105-1.976,3.67-7.9,1.694-7.9,1.694Z" transform="translate(-104.374 -496.884)" fill="#00a1ed"/>
          <path id="Path_2" data-name="Path 2" d="M407.626,499.261s9.315-1.412,9.88-2.258.282,3.105-1.976,3.67-7.9,1.694-7.9,1.694Z" transform="translate(-72.477 -496.884)" fill="#00a1ed"/>
          <path id="Path_3" data-name="Path 3" d="M435.728,499.261s9.315-1.412,9.88-2.258.282,3.105-1.976,3.67-7.9,1.694-7.9,1.694Z" transform="translate(-68.972 -496.884)" fill="#00a1ed"/>
          <path id="Path_4" data-name="Path 4" d="M485.848,499.261s9.314-1.412,9.88-2.258.281,3.105-1.977,3.67-7.9,1.694-7.9,1.694Z" transform="translate(-62.72 -496.884)" fill="#00a1ed"/>
        </g>
        <g id="Group_10443" data-name="Group 10443" transform="translate(11.401)">
          <path id="Path_7844" data-name="Path 7844" d="M498.517,402.073a30.95,30.95,0,0,0,1.727,10.391,33.353,33.353,0,0,0,12.179,16.168,34.731,34.731,0,0,0,9.334,4.754,35.317,35.317,0,0,1-4.387.28,32.979,32.979,0,0,1-12.694-2.423,31.2,31.2,0,0,1-17.032-16.729,31.037,31.037,0,0,1-2.473-12.441,32.485,32.485,0,0,1,2.378-12.486,31.729,31.729,0,0,1,6.581-10.112,30.422,30.422,0,0,1,9.939-6.8,31.442,31.442,0,0,1,12.553-2.469,22.161,22.161,0,0,1,2.752.232,21.327,21.327,0,0,0,2.754.235,33.663,33.663,0,0,0-9.38,4.425,31.856,31.856,0,0,0-7.512,7.084,33.009,33.009,0,0,0-4.947,9.18A31.994,31.994,0,0,0,498.517,402.073Zm26.227-30.232a27.6,27.6,0,0,1,5.553,1.4q2.471.937,4.525,1.868a32.727,32.727,0,0,0-3.452,5.05,18.432,18.432,0,0,0-1.96,5.534,34.569,34.569,0,0,0-5.04-2.471,25.493,25.493,0,0,0-6.813-1.354,31.421,31.421,0,0,0-5.788.283,32.164,32.164,0,0,0-3.826.838,20.691,20.691,0,0,1,3.219-3.249,40.053,40.053,0,0,1,4.2-3.01q2.287-1.436,4.715-2.648T524.744,371.841ZM517.837,422q2.331-.188,4.059-.467a26.136,26.136,0,0,0,3.032-.653,11.245,11.245,0,0,0,2.333-.932q1.028-.561,2.148-1.308a22.74,22.74,0,0,0,1.96,5.182,17.178,17.178,0,0,0,3.452,4.712,21.594,21.594,0,0,1-4.712,2.381,30.571,30.571,0,0,1-5.366,1.444q-2.243-1.21-4.667-2.565t-4.715-2.8a36.183,36.183,0,0,1-4.2-3.078,22.74,22.74,0,0,1-3.219-3.316q1.586.469,4.339,1.028A20.784,20.784,0,0,0,517.837,422Z" transform="translate(-485.172 -370.004)" fill="#0090df"/>
          <path id="Path_7845" data-name="Path 7845" d="M623.32,419.03a25.074,25.074,0,0,1-11.667,11.858V370.3a17.092,17.092,0,0,1,3.735.467,14.917,14.917,0,0,1,3.78,1.4,10.854,10.854,0,0,1,2.939,2.285,4.449,4.449,0,0,1,1.212,3.035Zm20.067,2.785v11.666h-29.12a35.282,35.282,0,0,0,11.759-11.666Z" transform="translate(-487.806 -370.006)" fill="#0090df"/>
          <path id="Path_7846" data-name="Path 7846" d="M666.188,370.582v62.812H653.4V377.582a5.591,5.591,0,0,1,3.593-5.273A21.267,21.267,0,0,1,666.188,370.582Z" transform="translate(-488.676 -370.012)" fill="#0090df"/>
          <path id="Path_7847" data-name="Path 7847" d="M709.7,401.376a23.215,23.215,0,0,1,5.719,6.252,15.508,15.508,0,0,1,2.188,8.306,14.889,14.889,0,0,1-1.677,7.373,16.024,16.024,0,0,1-4.142,4.9,20.128,20.128,0,0,1-5.357,2.985,33.887,33.887,0,0,1-9.406,2.1c-1.056.064-1.55.094-1.488.094a28.934,28.934,0,0,0,6.1-9.8,26.9,26.9,0,0,0,1.784-7.093,5.437,5.437,0,0,0-2.146-4.432,27.053,27.053,0,0,0-5.273-3.219q-3.131-1.494-6.628-2.987a25.033,25.033,0,0,1-6.2-3.734,24.266,24.266,0,0,1-5.227-5.972,14.209,14.209,0,0,1-2.24-7.747,16.877,16.877,0,0,1,1.586-7.7,15.9,15.9,0,0,1,4.013-5.134,18.429,18.429,0,0,1,5.275-3.078A36.094,36.094,0,0,1,691.9,370.9a25.03,25.03,0,0,1,4.248-.558c1.18-.031,1.834-.048,1.959-.048a7.233,7.233,0,0,1-1.118,1.215,21.831,21.831,0,0,0-2.661,3.406,30.26,30.26,0,0,0-2.708,5.319,18.234,18.234,0,0,0-1.26,6.861,5.348,5.348,0,0,0,2.046,4.247,27.036,27.036,0,0,0,5.024,3.266q2.973,1.541,6.323,3.125A31.136,31.136,0,0,1,709.7,401.376ZM693.494,422.1h2.513a9.056,9.056,0,0,0,2.7-.467,31.46,31.46,0,0,1-3.536,6.861q-2.047,2.939-3.628,4.9-1.862-.185-3.026-.326a21.357,21.357,0,0,1-2.65-.515q-1.959-.464-3.307-.932a23.03,23.03,0,0,1-2.328-.934q-.978-.464-1.773-.932t-1.727-.934q1.4-2.426,2.707-4.947a17.9,17.9,0,0,0,1.772-5.6,25.715,25.715,0,0,0,5.585,2.707A19.906,19.906,0,0,0,693.494,422.1Zm5.877-40.786q-1.03,0-2.333.093a11.19,11.19,0,0,0-2.894.654,30.07,30.07,0,0,1,3.639-7.373,35.406,35.406,0,0,1,3.548-4.387,30.27,30.27,0,0,1,3.453.233,27.8,27.8,0,0,1,4.014.8,28.173,28.173,0,0,1,3.965,1.4,17,17,0,0,1,3.5,2.052,17.3,17.3,0,0,0-2.472,4.715q-.98,2.751-2.007,5.74a37.213,37.213,0,0,0-5.692-2.707A18.66,18.66,0,0,0,699.371,381.309Z" transform="translate(-489.14 -370.006)" fill="#0090df"/>
          <path id="Path_7848" data-name="Path 7848" d="M775.786,371.7q1.214.842,2.1,1.54a6.338,6.338,0,0,1,1.447,1.588,6.1,6.1,0,0,1,.792,2.146,18.2,18.2,0,0,1,.233,3.219v33.226a23.473,23.473,0,0,1-1.586,9.1,16.385,16.385,0,0,1-4.341,6.161,16.885,16.885,0,0,1-6.578,3.453,30.666,30.666,0,0,1-8.307,1.073,15.275,15.275,0,0,1-2.987-.28,14.465,14.465,0,0,1-1.492-.187q-1.213-.185-2.52-.513t-2.378-.654c-.718-.216-1.074-.419-1.074-.606q0-.091.233-1.82t.467-3.779q.232-2.052.7-5.506,0,.281.7.606a11.259,11.259,0,0,0,1.679.606c.654.187,1.369.36,2.148.515a11.168,11.168,0,0,0,2.192.233q5.226.091,7.56-1.866a7.253,7.253,0,0,0,2.333-5.881V370.392q2.05,0,4.341.139A11.144,11.144,0,0,1,775.786,371.7Z" transform="translate(-490.669 -370.008)" fill="#0090df"/>
          <path id="Path_7849" data-name="Path 7849" d="M829.8,396.711a12.417,12.417,0,0,1,0,9.892H804.791v14.373a18.509,18.509,0,0,1-5.228,5.833,21.739,21.739,0,0,1-6.719,3.314V373.1a27.66,27.66,0,0,1,6.487,3.826,38.338,38.338,0,0,1,5.46,5.321v14.466Zm0-26.319a12.421,12.421,0,0,1,0,9.894H806.75a32.254,32.254,0,0,0-6.066-5.647,39.892,39.892,0,0,0-7.186-4.247Zm0,63.091H794.152a32.692,32.692,0,0,0,7.045-4.154,24.981,24.981,0,0,0,5.553-5.647H829.8A12.2,12.2,0,0,1,829.8,433.483Z" transform="translate(-491.58 -370.008)" fill="#0090df"/>
          <path id="Path_7850" data-name="Path 7850" d="M889.318,376.225a15.606,15.606,0,0,1-.468,4.186q-.467,1.646-1.492,1.647h-44.8q-.933,0-1.4-1.6a15.089,15.089,0,0,1-.468-4.138,16.292,16.292,0,0,1,.468-4.188q.464-1.74,1.4-1.741h44.8q1.025,0,1.492,1.695A15.713,15.713,0,0,1,889.318,376.225Zm-18.48,57.165H859.172V385.045h11.666Z" transform="translate(-492.577 -370.008)" fill="#0090df"/>
          <path id="Path_7851" data-name="Path 7851" d="M501.61,401.873a30.926,30.926,0,0,0,1.727,10.39,33.362,33.362,0,0,0,12.179,16.169,34.728,34.728,0,0,0,9.334,4.753,35.3,35.3,0,0,1-4.387.28,33,33,0,0,1-12.694-2.421,31.207,31.207,0,0,1-17.033-16.73,31.052,31.052,0,0,1-2.471-12.441,32.461,32.461,0,0,1,2.378-12.486,31.747,31.747,0,0,1,6.58-10.113,30.435,30.435,0,0,1,9.94-6.8A31.443,31.443,0,0,1,519.716,370a22.178,22.178,0,0,1,2.752.233,21.481,21.481,0,0,0,2.754.234,33.688,33.688,0,0,0-9.38,4.425,31.854,31.854,0,0,0-7.513,7.084,33.065,33.065,0,0,0-4.947,9.181A32.014,32.014,0,0,0,501.61,401.873Zm26.226-30.232a27.506,27.506,0,0,1,5.553,1.4q2.472.937,4.526,1.869a32.8,32.8,0,0,0-3.452,5.049,18.432,18.432,0,0,0-1.96,5.535,34.562,34.562,0,0,0-5.04-2.472,25.505,25.505,0,0,0-6.813-1.353,31.419,31.419,0,0,0-5.788.282,32.4,32.4,0,0,0-3.826.838,20.735,20.735,0,0,1,3.22-3.249,40.049,40.049,0,0,1,4.2-3.01q2.287-1.435,4.715-2.648T527.836,371.641ZM520.93,421.8q2.331-.188,4.058-.467a26.34,26.34,0,0,0,3.033-.654,11.14,11.14,0,0,0,2.333-.932q1.028-.561,2.148-1.308a22.75,22.75,0,0,0,1.96,5.182,17.2,17.2,0,0,0,3.452,4.712,21.583,21.583,0,0,1-4.713,2.381,30.437,30.437,0,0,1-5.366,1.444q-2.241-1.209-4.666-2.565t-4.715-2.8a36.187,36.187,0,0,1-4.2-3.079,22.739,22.739,0,0,1-3.22-3.315q1.586.467,4.339,1.027A20.74,20.74,0,0,0,520.93,421.8Z" transform="translate(-485.236 -370)" fill="#fff"/>
          <path id="Path_7852" data-name="Path 7852" d="M626.413,418.829a25.072,25.072,0,0,1-11.667,11.858V370.1a17.032,17.032,0,0,1,3.735.467,14.861,14.861,0,0,1,3.781,1.4,10.843,10.843,0,0,1,2.94,2.285,4.454,4.454,0,0,1,1.212,3.035Zm20.067,2.785V433.28H617.359a35.267,35.267,0,0,0,11.76-11.666Z" transform="translate(-487.871 -370.002)" fill="#fff"/>
          <path id="Path_7853" data-name="Path 7853" d="M669.281,370.382v62.811H656.493V377.381a5.588,5.588,0,0,1,3.594-5.272A21.266,21.266,0,0,1,669.281,370.382Z" transform="translate(-488.74 -370.008)" fill="#fff"/>
          <path id="Path_7854" data-name="Path 7854" d="M712.8,401.175a23.24,23.24,0,0,1,5.719,6.253,15.506,15.506,0,0,1,2.187,8.305,14.887,14.887,0,0,1-1.677,7.373,16.03,16.03,0,0,1-4.143,4.9,20.058,20.058,0,0,1-5.357,2.984,33.926,33.926,0,0,1-9.406,2.1c-1.054.064-1.549.093-1.487.093a28.944,28.944,0,0,0,6.1-9.8,26.881,26.881,0,0,0,1.784-7.093,5.435,5.435,0,0,0-2.147-4.432,27.009,27.009,0,0,0-5.272-3.22q-3.131-1.494-6.629-2.987a25.019,25.019,0,0,1-6.2-3.735,24.248,24.248,0,0,1-5.227-5.972,14.208,14.208,0,0,1-2.24-7.747,16.874,16.874,0,0,1,1.586-7.7,15.882,15.882,0,0,1,4.013-5.134,18.416,18.416,0,0,1,5.275-3.079,35.959,35.959,0,0,1,5.318-1.587,24.929,24.929,0,0,1,4.248-.559q1.77-.047,1.959-.047a7.172,7.172,0,0,1-1.119,1.214,21.93,21.93,0,0,0-2.661,3.407,30.2,30.2,0,0,0-2.706,5.318,18.213,18.213,0,0,0-1.26,6.861,5.349,5.349,0,0,0,2.047,4.247,26.938,26.938,0,0,0,5.024,3.266q2.973,1.542,6.323,3.126A31.107,31.107,0,0,1,712.8,401.175Zm-16.21,20.719H699.1a9.053,9.053,0,0,0,2.7-.467,31.461,31.461,0,0,1-3.536,6.861q-2.047,2.939-3.628,4.9-1.862-.185-3.026-.326a21.335,21.335,0,0,1-2.651-.515q-1.958-.464-3.306-.931a22.9,22.9,0,0,1-2.328-.935q-.978-.464-1.773-.931t-1.727-.934q1.4-2.428,2.707-4.947a17.924,17.924,0,0,0,1.772-5.6,25.774,25.774,0,0,0,5.585,2.706A19.885,19.885,0,0,0,696.587,421.894Zm5.877-40.786c-.686,0-1.463.032-2.334.094a11.249,11.249,0,0,0-2.894.653,30.127,30.127,0,0,1,3.64-7.373,35.216,35.216,0,0,1,3.548-4.386,30.214,30.214,0,0,1,3.451.232,27.789,27.789,0,0,1,4.016.8,28.164,28.164,0,0,1,3.964,1.4,17.025,17.025,0,0,1,3.5,2.053,17.3,17.3,0,0,0-2.472,4.714q-.981,2.751-2.007,5.74a37.3,37.3,0,0,0-5.692-2.707A18.664,18.664,0,0,0,702.464,381.108Z" transform="translate(-489.205 -370.002)" fill="#fff"/>
          <path id="Path_7855" data-name="Path 7855" d="M778.879,371.5q1.213.842,2.1,1.54a6.342,6.342,0,0,1,1.446,1.588,6.092,6.092,0,0,1,.793,2.146,18.311,18.311,0,0,1,.233,3.221v33.225a23.471,23.471,0,0,1-1.586,9.1,16.39,16.39,0,0,1-4.341,6.162,16.9,16.9,0,0,1-6.578,3.452A30.673,30.673,0,0,1,762.64,433a15.182,15.182,0,0,1-2.986-.28,14.452,14.452,0,0,1-1.493-.187q-1.213-.185-2.52-.512t-2.379-.654c-.718-.216-1.073-.419-1.073-.606q0-.093.233-1.821t.467-3.78q.232-2.05.7-5.5c0,.187.232.39.7.606a11.507,11.507,0,0,0,1.679.606c.654.186,1.37.359,2.149.515a11.237,11.237,0,0,0,2.192.232q5.227.093,7.561-1.866a7.254,7.254,0,0,0,2.333-5.881V370.191q2.05,0,4.341.139A11.14,11.14,0,0,1,778.879,371.5Z" transform="translate(-490.733 -370.004)" fill="#fff"/>
          <path id="Path_7856" data-name="Path 7856" d="M832.895,396.511a12.414,12.414,0,0,1,0,9.891H807.883v14.373a18.483,18.483,0,0,1-5.227,5.833,21.714,21.714,0,0,1-6.719,3.313V372.9a27.679,27.679,0,0,1,6.487,3.827,38.266,38.266,0,0,1,5.459,5.32v14.467Zm0-26.32a12.421,12.421,0,0,1,0,9.894H809.843a32.282,32.282,0,0,0-6.066-5.646,39.814,39.814,0,0,0-7.187-4.248Zm0,63.091H797.244a32.667,32.667,0,0,0,7.046-4.154,24.98,24.98,0,0,0,5.553-5.646h23.052A12.194,12.194,0,0,1,832.895,433.282Z" transform="translate(-491.644 -370.004)" fill="#fff"/>
          <path id="Path_7857" data-name="Path 7857" d="M892.41,376.024a15.6,15.6,0,0,1-.467,4.186q-.469,1.648-1.492,1.647h-44.8q-.933,0-1.4-1.6a15.09,15.09,0,0,1-.467-4.138,16.306,16.306,0,0,1,.467-4.188q.466-1.741,1.4-1.741h44.8q1.025,0,1.492,1.7A15.718,15.718,0,0,1,892.41,376.024Zm-18.479,57.165H862.265V384.844h11.666Z" transform="translate(-492.641 -370.004)" fill="#fff"/>
          <g id="Group_10444" data-name="Group 10444" transform="translate(55.081)">
            <path id="Path_7858" data-name="Path 7858" d="M576.209,401.615c.184-.083.414-.162.573,0,.176.175.412.17.606.3a1.859,1.859,0,0,0,.708.17.461.461,0,0,0,.289-.037.577.577,0,0,1,.547-.023.461.461,0,0,0,.649-.288c.076-.172.147-.347.208-.525a.973.973,0,0,0,.059-.3c0-.171-.018-.344-.028-.519-.092.086-.225-.043-.344.069a.4.4,0,0,1-.547.028c-.091-.054-.191-.093-.277-.135-.219.249-.284.265-.529.092a1.243,1.243,0,0,1-.354-.345c-.088-.146-.077-.358-.174-.493a.584.584,0,0,1-.071-.485c-.144-.024-.267-.053-.393-.063-.047,0-.132.027-.14.058-.041.165-.171.134-.277.135.037.15.075.282.1.416s.261.17.2.365c-.111.023-.11.023-.158.154-.03.083-.063.167-.1.249-.391-.167-.465-.163-.392-.5a6.076,6.076,0,0,0-.358-.564.551.551,0,0,1-.125-.414.4.4,0,0,0-.073-.282,2.069,2.069,0,0,0-.526-.4.733.733,0,0,1-.458-.484c-.016-.055-.1-.143-.115-.135-.179.083-.179-.108-.264-.185l-.209.073c.019.143-.01.331.061.388a1.6,1.6,0,0,1,.423.575.169.169,0,0,0,.1.091c.252.039.374.277.579.389a1.01,1.01,0,0,1,.247.22c.025.028.014.092.024.181l-.293-.189c-.237.155-.008.263.021.4-.156.139-.171.425-.458.418,0,.085,0,.151,0,.215-.009.138-.088.188-.2.124-.126-.073-.253-.147-.377-.223-.073-.045-.142-.1-.067-.222h.229c.091,0,.183-.008.274,0a.281.281,0,0,0,.224-.478,1.827,1.827,0,0,0-.5-.454,1.669,1.669,0,0,1-.807-.83c-.076-.22-.277-.259-.468-.118-.052.039-.1.077-.153.12a.529.529,0,0,1-.626.12c-.252-.113-.393,0-.387.274a.3.3,0,0,1-.208.321c-.034.014-.067.032-.1.045a.8.8,0,0,0-.395.379c-.074.128-.173.252-.072.414a.113.113,0,0,1-.011.081,1.778,1.778,0,0,1-.51.565c-.072.066-.227.05-.344.042a.41.41,0,0,0-.419.211c.1.144.206.239.393.167a.238.238,0,0,1,.185.013c.138.083.236.007.355-.049a9.6,9.6,0,0,1,.914-.379.852.852,0,0,1,.644-.031.159.159,0,0,0,.13-.011.829.829,0,0,1,.456-.061,1.553,1.553,0,0,0,.376-.051.37.37,0,0,1,.381.065c.021.2.042.344.047.489a.472.472,0,0,1-.041.207,1,1,0,0,1-.127.171.755.755,0,0,0,.516.366c.152.032.3.08.452.119a.4.4,0,0,1,.3.224.405.405,0,0,0,.279.21,3.806,3.806,0,0,1,.43.173c.2.1.364,0,.329-.223A.312.312,0,0,1,576.209,401.615Zm2.877-.85a2.359,2.359,0,0,1,.31,0c.053.144-.017.2-.115.208a.559.559,0,0,1-.277-.032C578.933,400.9,578.984,400.777,579.086,400.765Zm-2.133-.072c.187.071.408,0,.575.15a.742.742,0,0,1-.632-.062A.561.561,0,0,1,576.954,400.692Zm-4.855-1.2c-.088.08-.145.021-.195-.064.058-.092.123-.15.215-.055A.132.132,0,0,1,572.1,399.494Zm1.284-.964c.041-.047.085-.091.15-.16a.5.5,0,0,1-.05.448C573.274,398.713,573.26,398.67,573.383,398.529Zm.244.769a.439.439,0,0,1-.216.394c-.111-.022-.145-.078-.133-.2a3.968,3.968,0,0,0-.013-.493c.09-.012.228-.075.323-.033C573.721,399.026,573.624,399.182,573.627,399.3Z" transform="translate(-542.021 -370.572)" fill="url(#linear-gradient)"/>
            <path id="Path_7859" data-name="Path 7859" d="M581.147,398.924a.242.242,0,0,0,.095-.409.405.405,0,0,0-.1-.1c-.3-.186-.538-.446-.849-.617a.555.555,0,0,0-.52-.059.633.633,0,0,1-.337.139l-.026.008,0-.007h0a.313.313,0,0,1-.043,0h-.007a.56.56,0,0,1-.29-.08l-.117-.093a.448.448,0,0,1-.118-.19.57.57,0,0,1-.03-.376.418.418,0,0,0-.13.1.447.447,0,0,0-.159.317c0,.061-.024.153-.065.176-.133.074-.146.2-.183.328a.628.628,0,0,1-.1.194.392.392,0,0,0,.261.644.837.837,0,0,0,.677-.134.647.647,0,0,1,.788-.014,1.851,1.851,0,0,0,.535.208A1.213,1.213,0,0,0,581.147,398.924Z" transform="translate(-542.188 -370.565)" fill="url(#linear-gradient-2)"/>
            <path id="Path_7860" data-name="Path 7860" d="M580.32,397.545c.038-.124.222-.2.094-.377l.213-.138a1.423,1.423,0,0,0-.625.147l.015.114a.588.588,0,0,1-.06.259A1.879,1.879,0,0,0,580.32,397.545Z" transform="translate(-542.228 -370.563)" fill="url(#linear-gradient-3)"/>
            <path id="Path_7861" data-name="Path 7861" d="M577.923,399.241l.558-.085C578.155,398.993,578.036,399.017,577.923,399.241Z" transform="translate(-542.185 -370.605)" fill="url(#linear-gradient-4)"/>
            <path id="Path_7862" data-name="Path 7862" d="M587.863,393.806a9.045,9.045,0,0,0-.251-.873,10.947,10.947,0,0,0-.719-1.636,15.37,15.37,0,0,0-2-2.826c-.189-.212-.382-.42-.582-.62-.1-.1-.2-.2-.3-.293l-.3-.283a13.729,13.729,0,0,0-1.288-1.053,14.511,14.511,0,0,0-5.845-2.512,15.493,15.493,0,0,0-3.117-.247,16.725,16.725,0,0,0-3.106.379,12.861,12.861,0,0,0-2.273.728,1.1,1.1,0,0,1-.1.39.589.589,0,0,0-.045.042.354.354,0,0,1-.031.054.447.447,0,0,1-.042.059,1.454,1.454,0,0,1-.21.387.086.086,0,0,0-.017.02,2.054,2.054,0,0,0-.4,1.4.518.518,0,0,1-.193.511,3.656,3.656,0,0,1-1.43.888c-.124.026-.24.1-.363.141a.594.594,0,0,0-.325.271c-.053.083-.112.161-.164.245a.76.76,0,0,1-.383.321c-.2.078-.4.18-.607.263a.46.46,0,0,0-.256.277c-.13.323-.27.642-.4.966-.138.341-.269.685-.406,1.026-.079.2-.167.242-.346.2-.023-.006-.046-.018-.068-.025-.53-.184-.592-.589-.888-.946a.333.333,0,0,1-.076-.02c-.038,0-.075-.008-.113-.013-.088-.011-.176-.025-.263-.038-.21.339-.412.684-.605,1.037-.34.623-.648,1.268-.93,1.929.009.022.018.046.026.07s.019.068.027.1v0c.024.093.044.188.06.285.056.05.13.077.167.148a.38.38,0,0,1,.025.17,1.841,1.841,0,0,1-.116.778c-.041.085-.1.189-.053.272.052.1.178.056.276.071.207.032.283.333.314.577.016.126.023.28-.066.353-.16.135-.439-.153-.555.033,0-.178-.21-.222-.358-.2s-.355.019-.385-.155a.384.384,0,0,1,.09-.264l.538-.8a.466.466,0,0,1-.113.057.427.427,0,0,1-.08.067.329.329,0,0,1-.186.07.125.125,0,0,1-.029,0l-.008.007-.119.06h0c-.01,0-.073.013-.109.019a20.39,20.39,0,0,0-.79,3.122,15.1,15.1,0,0,0-.2,1.83q-.048.919-.041,1.84a29.275,29.275,0,0,0,.263,3.662c.043.313.091.627.144.938.013.09.027.174.044.245.038.207.077.413.12.618.125.594.267,1.184.448,1.757-.171-.577-.3-1.17-.415-1.766-.027-.143-.053-.286-.077-.429h0a7.275,7.275,0,0,1,.561.587,1.191,1.191,0,0,0,.8.447.693.693,0,0,1,.5.342c.235.347.481.682.712,1.032a.679.679,0,0,0,.3.261c.4.173.79.358,1.189.524a2.611,2.611,0,0,1,.933.62c.063.068.149.152.222.149a.255.255,0,0,1,.253.126,11.455,11.455,0,0,0,2.537-.606,9.423,9.423,0,0,0,3.923-1.455c-.067.018.146-.415.079-.379s-.5.063-.563.1c-.1.055-.492-.128-.578-.2-.223-.2-.458-.381-.671-.594a2.168,2.168,0,0,1-.382-.5c-.259-.477-.489-.975-.744-1.455a.573.573,0,0,1-.027-.555c.028-.057.043-.121.068-.181a.706.706,0,0,0,.031-.465c-.066-.253-.108-.513-.17-.767a.525.525,0,0,1,.036-.378c.2-.4.4-.8.576-1.21a1.556,1.556,0,0,1,.62-.761.526.526,0,0,0,.276-.485,3.338,3.338,0,0,1,.057-.418.363.363,0,0,1,.159-.3,1.1,1.1,0,0,0,.581-.771.524.524,0,0,1,.045-.091,1.2,1.2,0,0,1-.106-.2c-.053-.166-.141-.208-.283-.163a.771.771,0,0,1-.222,0c-.009-.151.021-.3-.028-.368a.457.457,0,0,1-.019-.475,1.917,1.917,0,0,0,.035-.887c-.007-.108-.09-.214.033-.293.082-.053.172-.134.255-.13.332.015.663.063.995.089a.347.347,0,0,0,.227-.044,1.223,1.223,0,0,0,.079-.911c-.015-.021-.039-.031-.057-.05s-.062-.051-.065-.08c-.023-.256-.2-.3-.356-.353s-.185-.141-.165-.316c.157.014.295-.159.456-.014.022.02.1-.042.151-.068v-.3c.034,0,.053-.007.065,0,.188.133.187.132.357-.027.044-.04.1-.06.142-.1a.27.27,0,0,0,.088-.149c0-.177.1-.223.208-.26a.585.585,0,0,0,.391-.455.4.4,0,0,1,.215-.282,3.547,3.547,0,0,1,.515-.2c.091-.027.129-.059.134-.182a1.327,1.327,0,0,0-.081-.516.551.551,0,0,1,.09-.592c.11-.069.227-.123.334-.181l.074.51-.109.184c.027.111.175.148.1.27-.022.032-.119,0-.181-.009-.014.265.257.235.317.418.111-.058.208-.149.3-.142s.17.112.284.2c.162-.1.342-.211.527-.312.115-.064.235-.123.341.043a.1.1,0,0,0,.183-.013.265.265,0,0,1,.3-.183.885.885,0,0,0-.01-.185,1.015,1.015,0,0,1,.059-.658c.071-.193.16-.219.288-.081.061.066.095.183.219.156.055-.177.115-.338-.052-.5a.874.874,0,0,1-.117-.288.644.644,0,0,1,.61-.184.422.422,0,0,0,.256-.009,2.778,2.778,0,0,0,.345-.178.49.49,0,0,0-.6-.113c-.159.06-.328.08-.491.127a.277.277,0,0,1-.279-.075.516.516,0,0,1-.222-.53.533.533,0,0,0-.045-.246.43.43,0,0,1,.092-.482c.131-.151.251-.315.372-.479.081-.11.157-.227.242-.352-.065-.24-.193-.33-.425-.281a.441.441,0,0,0-.278.438.424.424,0,0,1-.18.47c-.063.059-.126.116-.193.167a1.187,1.187,0,0,0-.372.61.465.465,0,0,0,.176.6c.214.166.23.263.027.446a.844.844,0,0,0-.3.727.488.488,0,0,1-.005.085c-.026.219-.091.4-.3.453a.261.261,0,0,0-.131.106c-.132.2-.168.207-.363.075l-.141.244c-.1-.059-.2-.091-.172-.246.029-.137.1-.176.339-.179a1.129,1.129,0,0,0-.071-.348,2.166,2.166,0,0,1-.268-.8.561.561,0,0,0-.078-.148c-.034.034-.059.056-.081.079-.112.121-.217.253-.338.359a.331.331,0,0,1-.567-.215c-.034-.26-.06-.524-.088-.785a.8.8,0,0,1,.33-.811c.041-.028.08-.063.123-.087a2.464,2.464,0,0,0,.891-1.075c.159-.3.323-.607.462-.924.057-.131.175-.259.123-.443l-.146.017c-.043-.266.114-.333.242-.409l.147.125c.044-.125.055-.246.112-.3a2.838,2.838,0,0,1,.391-.266c.323.144.439.048.472-.308a.568.568,0,0,0,.484-.159.149.149,0,0,1,.223.012l-.127.35.039.022.147-.258.089.064c.159-.2.159-.2.374-.082.058.03.118.058.174.092.08.049.156.1.242.16-.128.165-.128.165-.308.2a.359.359,0,0,0,.426.075c.117-.041.176,0,.249.09l-.087.171a2.2,2.2,0,0,1,.258,0,.72.72,0,0,1,.279.061c.313.186.624.38.925.592a.7.7,0,0,1,.208.3.448.448,0,0,1-.23.586.708.708,0,0,1-.353,0c-.186-.051-.365-.135-.547-.2-.049-.019-.1-.03-.148-.046a1.655,1.655,0,0,1,.148.663.6.6,0,0,0,.61.506.507.507,0,0,0-.055-.139c-.044-.051-.111-.077-.151-.131a.189.189,0,0,1-.03-.147.185.185,0,0,1,.135-.087.542.542,0,0,1,.18.072l.314.141c-.08-.35-.071-.339.118-.54.163-.173.32-.272.533-.136.017.011.045,0,.068,0,.115-.212-.1-.32-.1-.49s-.022-.36-.033-.539c.359,0,.473.084.524.386l-.247.091a1.982,1.982,0,0,0,.178.262.156.156,0,0,0,.279-.089.284.284,0,0,1,.166-.215c.224-.123.444-.258.668-.384a1.324,1.324,0,0,1,.148-.066l.28.275c.1-.176.215-.238.364-.2a.182.182,0,0,0,.118-.015c.18-.09.336-.1.413.169.152-.162.159-.192.1-.337-.026-.063-.047-.129-.069-.194a1.024,1.024,0,0,1,.782.131c.284.165.564.341.852.516a.319.319,0,0,0-.107-.3c-.092-.075-.178-.161-.268-.239a.278.278,0,0,1-.1-.318.228.228,0,0,0-.095-.282,1.108,1.108,0,0,1-.1-.1c.011-.018.019-.034.028-.05.159.132.316.267.47.408l.307.283c.1.091.2.183.3.278.2.19.394.388.585.592a15.221,15.221,0,0,1,2.038,2.723,9.506,9.506,0,0,1,1.238,3.317A8.342,8.342,0,0,0,587.863,393.806Zm-19.4-4.188a1.083,1.083,0,0,1-.306.335c-.181.127-.386.2-.57.326a.344.344,0,0,1-.41.02.4.4,0,0,0-.4-.07c-.02.007-.045-.008-.108-.022l.157-.234c-.025-.233-.26-.034-.318-.222.12-.1.308-.029.317-.295l-.339.055c.1-.119.058-.395.285-.338l-.01-.136c.155-.035.195.145.306.185l-.038.225c.034-.015.062-.016.069-.03a.477.477,0,0,1,.5-.277.716.716,0,0,0,.339-.1c.139-.076.21-.076.305.054a2.39,2.39,0,0,0,.172.22A.269.269,0,0,1,568.468,389.618Zm1.225,4.787c-.022.15-.071.271-.229.315a2.322,2.322,0,0,0-.358.22.162.162,0,0,1-.261-.128.535.535,0,0,1,.017-.16c0-.009.011-.015.015-.023.039-.091.078-.183.119-.276-.033-.057-.086-.112-.091-.172a.359.359,0,0,1,.047-.238c.055-.056.151-.056.251-.087a.324.324,0,0,1,.151-.339.379.379,0,0,1,.372.093c.115.168.11.212-.028.436A2.5,2.5,0,0,1,569.692,394.405Zm1.4.478.1.148a.517.517,0,0,1-.491.16.439.439,0,0,0-.25.042,3.885,3.885,0,0,1-.68.21c.133-.172.174-.446.427-.472l-.4-.12c.051-.062.074-.112.111-.13.133-.066.168-.158.085-.308-.018-.032,0-.09,0-.155l.244-.03c.106-.212-.09-.336-.059-.51l-.282.02.046-.38-.025-.012-.14.255-.014-.232-.133.019.1-.144-.016-.393-.149-.2h.2a1.213,1.213,0,0,1,.2-.364c.09-.077.236-.066.353-.092.058.2-.142.21-.138.376a.734.734,0,0,1,.2-.02.287.287,0,0,1,.185.089c.023.035-.008.142-.035.2-.054.124-.122.241-.175.342a3.229,3.229,0,0,1,.641,1.149C571.314,394.41,571.331,394.508,571.089,394.883Zm9.047-6.894c-.064.046-.131.048-.166-.027a.372.372,0,0,1-.04-.225c.025-.095.112-.095.182-.054a2.072,2.072,0,0,1,.214.176C580.244,387.913,580.189,387.949,580.136,387.989Zm1.246-.755a1.062,1.062,0,0,1-.977-.478.348.348,0,0,1-.019-.43c.013-.023.042-.046.04-.066a.554.554,0,0,1,.2-.438.445.445,0,0,1-.01-.361c.194.1.386.209.576.321a4.641,4.641,0,0,0-.15.452.755.755,0,0,0,.208.687c.067.079.136.154.217.244C581.429,387.2,581.406,387.234,581.383,387.234Zm.684.5a.532.532,0,0,1-.363-.309c.032-.1.092-.12.15-.06C581.951,387.466,582.127,387.51,582.067,387.734Z" transform="translate(-541.764 -370.28)" fill="url(#linear-gradient-5)"/>
            <path id="Path_7863" data-name="Path 7863" d="M588.914,397.375c-.314.982-4.628,5.368-4.628,5.368L583,403.894q-1.164,1.015-2.322,1.933a.713.713,0,0,1-.045.189,5,5,0,0,1-.771,1.985,10.632,10.632,0,0,1-.817,1,8.118,8.118,0,0,0-.412.889,3.554,3.554,0,0,0-.118.848,1.037,1.037,0,0,1,.135.166.923.923,0,0,1-.051.868.24.24,0,0,0-.04.1,5.588,5.588,0,0,1-.339,1.184c-.124.382-.264.756-.376,1.143a.473.473,0,0,1-.408.345h-.011a2.986,2.986,0,0,1-.181.3c-.062.087-.13.176-.2.266a.667.667,0,0,0,0,.077.519.519,0,0,1-.149.406.616.616,0,0,1-.133.5c-.073.072-.165.107-.243.17a1.41,1.41,0,0,0-.325.771,2.917,2.917,0,0,1-1.187,1.711c-.5.33-1.406.752-1.565-.168-.019-.11-.009-.228-.036-.334-.065-.255-.141-.505-.221-.754a.709.709,0,0,0-.132-.267.778.778,0,0,1-.184-.538,4.31,4.31,0,0,0-.383-1.778,1.645,1.645,0,0,1-.158-1.143c.07-.3.107-.615.2-.9a1.424,1.424,0,0,0,.057-.749q-.082-.394-.154-.789c-3.951,2.142-8.727,3.088-12.776,2.1,2.413,2.809,5.055,5.49,8.372,6.652a14.909,14.909,0,0,0,9.278.172,13.162,13.162,0,0,0,3.009-1.348,19.712,19.712,0,0,0,9.066-14.97A25.423,25.423,0,0,0,588.914,397.375Zm-9.038,16.166a.228.228,0,0,0-.04.1,5.679,5.679,0,0,1-.339,1.184c-.124.381-.265.756-.376,1.142a.474.474,0,0,1-.409.345c-.143.035-.262-.1-.276-.276s-.029-.377-.044-.566a.75.75,0,0,1,.121-.508.943.943,0,0,0,.143-.772,1.125,1.125,0,0,1,.033-.387.243.243,0,0,1,.181-.208c.353-.092.555-.412.766-.712a1.827,1.827,0,0,0,.141-.392,1.277,1.277,0,0,1,.15.183A.924.924,0,0,1,579.876,413.541Z" transform="translate(-541.805 -370.57)" fill="url(#linear-gradient-6)"/>
            <path id="Path_7864" data-name="Path 7864" d="M567.025,392.559h.233a1.167,1.167,0,0,1,.235-.354,1.062,1.062,0,0,1,.406-.088c.065.194-.164.2-.16.364a1.014,1.014,0,0,1,.227-.02.35.35,0,0,1,.212.087c.027.034-.009.137-.04.2-.063.12-.14.233-.2.332a3.063,3.063,0,0,1,.735,1.114c.361.073.381.167.1.531l.12.144a.664.664,0,0,1-.564.155.588.588,0,0,0-.286.041,5.07,5.07,0,0,1-.78.2c.153-.167.2-.433.49-.458l-.459-.117c.058-.06.086-.109.127-.126.153-.065.193-.154.1-.3-.02-.031,0-.087,0-.15l.279-.03c.121-.2-.1-.325-.068-.494l-.324.018.053-.368-.027-.012-.161.247-.017-.224-.153.019.111-.14-.019-.381Z" transform="translate(-541.958 -370.461)" fill="none"/>
            <path id="Path_7865" data-name="Path 7865" d="M581.7,420.112a18.433,18.433,0,0,0,6.092-4.172,20.132,20.132,0,0,0,4.078-6.234,19.882,19.882,0,0,0,1.5-7.78,22.068,22.068,0,0,0-1.5-8.251,20.185,20.185,0,0,0-4.078-6.468,18.068,18.068,0,0,0-6.092-4.217,18.789,18.789,0,0,0-7.454-1.5,17.943,17.943,0,0,0-2.72.206,18.75,18.75,0,0,1,7.132,1.493,18.087,18.087,0,0,1,6.094,4.218,20.2,20.2,0,0,1,4.078,6.467,22.076,22.076,0,0,1,1.5,8.251,19.879,19.879,0,0,1-1.5,7.779,20.141,20.141,0,0,1-4.078,6.234,18.728,18.728,0,0,1-10.745,5.473l.239,0A18.8,18.8,0,0,0,581.7,420.112Z" transform="translate(-542.052 -370.239)" fill="#0090df"/>
            <path id="Path_7866" data-name="Path 7866" d="M573.991,375.985a65.187,65.187,0,0,1,7.16-3.921c-.488-.183-.98-.36-1.482-.521a64.93,64.93,0,0,0-8.72,4.639,27.479,27.479,0,0,0-7.218,6.61q1.592-.471,3.421-.891c.068-.016.137-.025.205-.04A27.474,27.474,0,0,1,573.991,375.985Z" transform="translate(-541.89 -370.032)" fill="#0090df"/>
            <path id="Path_7867" data-name="Path 7867" d="M567.89,422.547c-.248-.015-.5-.029-.737-.048a7.23,7.23,0,0,1-3.421-1.172,34.717,34.717,0,0,0,6.891,6.982,41.09,41.09,0,0,0,8.39,4.923c.679-.2,1.34-.434,1.992-.676a41.047,41.047,0,0,1-7.34-4.445A34.428,34.428,0,0,1,567.89,422.547Z" transform="translate(-541.89 -371.069)" fill="#0090df"/>
            <path id="Path_7868" data-name="Path 7868" d="M562.886,430.844a29.6,29.6,0,0,1-9.656-6.7,31.549,31.549,0,0,1-6.42-10.031,34.346,34.346,0,0,1,0-24.938,31.531,31.531,0,0,1,6.42-10.029,29.652,29.652,0,0,1,9.656-6.7,28.973,28.973,0,0,1,8.383-2.225,29.64,29.64,0,0,0-21.081,9.126,31.565,31.565,0,0,0-6.419,10.029,34.333,34.333,0,0,0,0,24.938,31.557,31.557,0,0,0,6.419,10.032,29.736,29.736,0,0,0,21.7,9.139h3.937c-.194-.062-.385-.131-.577-.2h-.318A29.72,29.72,0,0,1,562.886,430.844Z" transform="translate(-541.425 -370.004)" fill="#0090df"/>
            <path id="Path_7869" data-name="Path 7869" d="M594.566,381.72l1.978-1.494a29.476,29.476,0,0,0-13.462-8.884c-.525.229-1.042.475-1.561.718a29.5,29.5,0,0,1,13.045,9.661Z" transform="translate(-542.26 -370.028)" fill="#fff"/>
            <path id="Path_7870" data-name="Path 7870" d="M573.911,422.435q-1.928-.009-3.651-.138a7.222,7.222,0,0,1-3.422-1.172c.362.486.737.956,1.117,1.418,1,.061,2.051.091,3.154.091A19.742,19.742,0,0,0,573.911,422.435Z" transform="translate(-541.954 -371.065)" fill="#003d65"/>
            <path id="Path_7871" data-name="Path 7871" d="M602.718,391.637a32.181,32.181,0,0,0-4.36-8.86c-.039-.056-.081-.109-.12-.163l-.5,4.425a33.383,33.383,0,0,1,1.939,4.8,33.934,33.934,0,0,1,1.547,10.314,33.473,33.473,0,0,1-1.547,10.265,31.557,31.557,0,0,1-4.405,8.811,29.3,29.3,0,0,1-6.891,6.843,30.386,30.386,0,0,1-7.008,3.685q.521.245,1.051.478a30.818,30.818,0,0,0,9-4.359,29.293,29.293,0,0,0,6.892-6.843,31.576,31.576,0,0,0,4.406-8.812,33.5,33.5,0,0,0,1.547-10.265A33.959,33.959,0,0,0,602.718,391.637Z" transform="translate(-542.257 -370.263)" fill="#fff"/>
            <path id="Path_7872" data-name="Path 7872" d="M567.423,382.073c-.2.242-.4.484-.586.733q1.594-.47,3.422-.89c.382-.088.773-.158,1.17-.218-.108,0-.213-.008-.321-.008A17.323,17.323,0,0,0,567.423,382.073Z" transform="translate(-541.954 -370.243)" fill="#003d65"/>
            <path id="Path_7873" data-name="Path 7873" d="M570.42,428.778a31.211,31.211,0,0,1-6.937-7.124,33.894,33.894,0,0,1-4.548-9.233,34.9,34.9,0,0,1-1.641-10.734,33.86,33.86,0,0,1,1.641-10.5,35.632,35.632,0,0,1,4.548-9.281,32.069,32.069,0,0,1,6.937-7.312A28.482,28.482,0,0,1,579.138,370H575.2a32.4,32.4,0,0,0-3.665.212c.208,0,.413-.015.623-.015H576.1a28.449,28.449,0,0,0-8.717,4.593,32.034,32.034,0,0,0-6.938,7.313,35.581,35.581,0,0,0-4.547,9.281,33.814,33.814,0,0,0-1.641,10.5,34.863,34.863,0,0,0,1.641,10.734,33.888,33.888,0,0,0,4.547,9.233,31.194,31.194,0,0,0,6.938,7.125,29.579,29.579,0,0,0,8.141,4.3h3.618A29.566,29.566,0,0,1,570.42,428.778Z" transform="translate(-541.692 -370)" fill="#fff"/>
            <path id="Path_7874" data-name="Path 7874" d="M560.239,421.855a33.883,33.883,0,0,1-4.547-9.233,34.869,34.869,0,0,1-1.641-10.734,33.819,33.819,0,0,1,1.641-10.5,35.573,35.573,0,0,1,4.547-9.281,32.037,32.037,0,0,1,6.937-7.312,28.45,28.45,0,0,1,8.718-4.593h-3.937c-.21,0-.414.011-.623.015a28.971,28.971,0,0,0-8.383,2.225,29.652,29.652,0,0,0-9.656,6.7,31.529,31.529,0,0,0-6.42,10.029,34.346,34.346,0,0,0,0,24.937,31.55,31.55,0,0,0,6.42,10.031,29.742,29.742,0,0,0,21.7,9.14h.318a29.586,29.586,0,0,1-8.141-4.3A31.2,31.2,0,0,1,560.239,421.855Z" transform="translate(-541.49 -370.004)" fill="#fff"/>
            <path id="Path_7875" data-name="Path 7875" d="M594.98,421a31.558,31.558,0,0,0,4.405-8.811,33.48,33.48,0,0,0,1.547-10.265,33.939,33.939,0,0,0-1.547-10.314,33.368,33.368,0,0,0-1.939-4.8l-.273,2.413-2.473-4.344-5.057.344,4.629-3.5a29.5,29.5,0,0,0-13.044-9.661,65.2,65.2,0,0,0-7.16,3.922,27.468,27.468,0,0,0-6.633,5.876,17.324,17.324,0,0,1,3.686-.383c.108,0,.214.006.321.008a17.941,17.941,0,0,1,2.72-.206,18.789,18.789,0,0,1,7.454,1.5,18.066,18.066,0,0,1,6.092,4.217,20.186,20.186,0,0,1,4.078,6.468,22.072,22.072,0,0,1,1.5,8.251,19.885,19.885,0,0,1-1.5,7.779,20.133,20.133,0,0,1-4.078,6.234,18.432,18.432,0,0,1-6.092,4.172,18.8,18.8,0,0,1-7.454,1.5l-.239,0a19.727,19.727,0,0,1-2.8.2c-1.1,0-2.151-.03-3.154-.091a34.44,34.44,0,0,0,5.774,5.566,41.052,41.052,0,0,0,7.34,4.444,30.387,30.387,0,0,0,7.008-3.685A29.3,29.3,0,0,0,594.98,421Z" transform="translate(-541.967 -370.043)" fill="#fff"/>
            <g id="Group_10443-2" data-name="Group 10443" transform="translate(48.216 8.91)">
              <path id="Path_7876" data-name="Path 7876" d="M591.434,384.875l6.965-5.262-.959,8.486-1.991-3.5Z" transform="translate(-590.683 -379.111)" fill="#0090df"/>
              <path id="Path_7877" data-name="Path 7877" d="M597.572,388.811,595.3,384.83l-4.637.314,8-6.044Zm-2.012-4.457,1.716,3.012.821-7.26-5.928,4.478Z" transform="translate(-590.667 -379.1)" fill="#fff"/>
            </g>
            <path id="Path_7878" data-name="Path 7878" d="M559.6,412.042a18.441,18.441,0,0,0,4.924-1.138l.6-.2.587-.244,1.17-.484c.762-.384,1.533-.726,2.286-1.121l2.221-1.276,2.162-1.405c.708-.493,1.4-1.023,2.1-1.532.713-.486,1.375-1.065,2.048-1.623l1.015-.83.508-.415c.165-.143.323-.3.487-.448l1.956-1.788c.672-.569,1.274-1.237,1.909-1.86s1.263-1.26,1.9-1.883l1.827-1.99c.614-.66,1.24-1.309,1.847-1.98,1.189-1.374,4.41-5.864,5.668-7.191-.945,1.632-3.994,6.319-5.007,7.9-1.087,1.508-2.2,3-3.344,4.46-.6.7-1.2,1.4-1.813,2.082s-1.209,1.392-1.873,2.013l-1.963,1.9c-.165.157-.327.317-.5.468l-.521.433-1.041.867a43.743,43.743,0,0,1-4.343,3.166l-2.3,1.33c-.784.4-1.59.756-2.386,1.124-.4.179-.818.311-1.224.469s-.816.309-1.231.441l-1.259.336-.627.166-.639.118A13.661,13.661,0,0,1,559.6,412.042Z" transform="translate(-541.803 -370.305)" fill="#0068b6"/>
          </g>
          <g id="Group_10448" data-name="Group 10448" transform="translate(4.638 76.737)">
            <g id="Group_10445" data-name="Group 10445" transform="translate(0 8.506)">
              <rect id="Rectangle_1969" data-name="Rectangle 1969" width="170.581" height="1.299" fill="#fff"/>
            </g>
            <g id="Group_10446" data-name="Group 10446" transform="translate(176.805 0)">
              <path id="Path_7879" data-name="Path 7879" d="M670.475,466.679h38.49l-19.245-18.31Z" transform="translate(-670.475 -448.369)" fill="#fff"/>
            </g>
            <g id="Group_10447" data-name="Group 10447" transform="translate(219.657 8.506)">
              <rect id="Rectangle_1970" data-name="Rectangle 1970" width="170.578" height="1.299" fill="#fff"/>
            </g>
          </g>
        </g>
      </g>
    </g>
  </g>
</svg>
