<svg xmlns="http://www.w3.org/2000/svg" width="78.918" height="69.292" viewBox="0 0 78.918 69.292">
  <g id="megaphone_1_" data-name="megaphone (1)" transform="translate(0 -31.224)">
    <path id="Path_12354" data-name="Path 12354" d="M136.893,309.686h-2.831a2.312,2.312,0,0,1,0-4.624h2.831a2.314,2.314,0,0,0,2.312-2.312V297.2a2.312,2.312,0,0,1,4.624,0v5.55A6.944,6.944,0,0,1,136.893,309.686Z" transform="translate(-111.46 -223.042)" fill="#50667f"/>
    <path id="Path_12355" data-name="Path 12355" d="M53.481,303.144a6.887,6.887,0,0,1-6.733-5.288l-2.642-24.523a2.312,2.312,0,0,1,2.3-2.558h9.528a2.313,2.313,0,0,1,2.3,2.1s1.455,16.908,2.032,22.01C60.706,298.759,58.12,303.144,53.481,303.144Z" transform="translate(-37.296 -202.627)" fill="#58718c"/>
    <g id="Group_12468" data-name="Group 12468" transform="translate(65.036 42.687)">
      <path id="Path_12356" data-name="Path 12356" d="M435.827,198.087a2.23,2.23,0,0,1-2.312,2.312h-9.248a2.312,2.312,0,0,1,0-4.624h9.248A2.23,2.23,0,0,1,435.827,198.087Z" transform="translate(-421.952 -181.875)" fill="#5af1ff"/>
      <path id="Path_12357" data-name="Path 12357" d="M423.216,110.49l9.248-4.624A2.312,2.312,0,0,1,434.532,110l-9.248,4.624C422.509,116,420.515,111.841,423.216,110.49Z" transform="translate(-421.935 -105.594)" fill="#5af1ff"/>
    </g>
    <g id="Group_12469" data-name="Group 12469" transform="translate(65.035 58.9)">
      <path id="Path_12358" data-name="Path 12358" d="M432.463,264.625,423.215,260a2.312,2.312,0,0,1,2.068-4.136l9.248,4.624A2.312,2.312,0,0,1,432.463,264.625Z" transform="translate(-421.933 -248.684)" fill="#51dae6"/>
      <path id="Path_12359" data-name="Path 12359" d="M435.827,210.775a2.23,2.23,0,0,1-2.312,2.312h-9.248a2.23,2.23,0,0,1-2.312-2.312Z" transform="translate(-421.952 -210.775)" fill="#51dae6"/>
    </g>
    <path id="Path_12360" data-name="Path 12360" d="M20.808,120.775H6.936A6.927,6.927,0,0,0,0,127.711v13.872a6.927,6.927,0,0,0,6.936,6.936H20.808a2.29,2.29,0,0,0,2.312-2.312v-23.12A2.289,2.289,0,0,0,20.808,120.775Z" transform="translate(0 -75.748)" fill="#47a4eb"/>
    <path id="Path_12361" data-name="Path 12361" d="M0,210.775H23.12v11.56a2.29,2.29,0,0,1-2.312,2.312H6.936A6.927,6.927,0,0,1,0,217.711Z" transform="translate(0 -151.875)" fill="#4596e6"/>
    <path id="Path_12362" data-name="Path 12362" d="M159.975,60.9,132.6,70.01V97.755l27.375,9.109a2.28,2.28,0,0,0,3.052-2.173V63.074A2.305,2.305,0,0,0,159.975,60.9Z" transform="translate(-112.161 -24.983)" fill="#e0e4ec"/>
    <path id="Path_12363" data-name="Path 12363" d="M300,38.091V79.708c0,9.156,13.872,9.156,13.872,0V38.091C313.872,28.935,300,28.935,300,38.091Z" transform="translate(-253.759)" fill="#47a4eb"/>
    <path id="Path_12364" data-name="Path 12364" d="M163.027,210.775v20.808a2.28,2.28,0,0,1-3.052,2.173L132.6,224.647V210.775Z" transform="translate(-112.161 -151.875)" fill="#d1d7e3"/>
    <path id="Path_12365" data-name="Path 12365" d="M300,210.775h13.872v20.808c0,9.156-13.872,9.156-13.872,0Z" transform="translate(-253.759 -151.875)" fill="#4596e6"/>
  </g>
</svg>
