<svg xmlns="http://www.w3.org/2000/svg" xmlns:xlink="http://www.w3.org/1999/xlink" width="61.508" height="80.921" viewBox="0 0 61.508 80.921">
  <defs>
    <linearGradient id="linear-gradient" y1="0.5" x2="1" y2="0.5" gradientUnits="objectBoundingBox">
      <stop offset="0" stop-color="#e0f5ee"/>
      <stop offset="1" stop-color="#e3f7ee"/>
    </linearGradient>
    <clipPath id="clip-path">
      <rect id="Rectangle_11" data-name="Rectangle 11" width="14.179" height="5.672" transform="translate(0 0)" fill="#fff" stroke="#707070" stroke-width="1"/>
    </clipPath>
    <linearGradient id="linear-gradient-3" x1="1.65" y1="2.844" x2="-0.158" y2="-0.626" gradientUnits="objectBoundingBox">
      <stop offset="0" stop-color="#0064b3"/>
      <stop offset="1" stop-color="#00a7e9"/>
    </linearGradient>
    <linearGradient id="linear-gradient-4" x1="3.512" y1="5.726" x2="-1.982" y2="-3.254" xlink:href="#linear-gradient-3"/>
    <linearGradient id="linear-gradient-5" x1="15.725" y1="18.608" x2="-11.049" y2="-13.248" xlink:href="#linear-gradient-3"/>
    <linearGradient id="linear-gradient-6" x1="18.854" y1="51.091" x2="-12.834" y2="-35.776" xlink:href="#linear-gradient-3"/>
    <linearGradient id="linear-gradient-7" x1="0.831" y1="0.923" x2="0.315" y2="0.402" xlink:href="#linear-gradient-3"/>
    <linearGradient id="linear-gradient-8" x1="0.714" y1="0.613" x2="0.101" y2="-0.114" xlink:href="#linear-gradient-3"/>
  </defs>
  <g id="Group_12481" data-name="Group 12481" transform="translate(-1231.708 -1034.915)">
    <g id="Group_12472" data-name="Group 12472" transform="translate(1231.708 1034.915)">
      <g id="Group_1184" data-name="Group 1184" transform="translate(0 0)">
        <path id="Path_3589" data-name="Path 3589" d="M880.949,282.924a31.535,31.535,0,0,0-37.156,20.458,2.649,2.649,0,0,0,1.035,3.046c4.866,3.287,21.379,12.3,57.371,13.387a2.633,2.633,0,0,0,2.708-2.267A31.536,31.536,0,0,0,880.949,282.924Z" transform="translate(-843.652 -282.055)" fill="#0c537a"/>
        <g id="Group_1181" data-name="Group 1181" transform="translate(1.046 22.808)">
          <g id="Group_1180" data-name="Group 1180">
            <g id="Group_1178" data-name="Group 1178">
              <path id="Path_3590" data-name="Path 3590" d="M857.743,339.685,845.241,317l.58-.319,10.457,18.973-6.662-18.379.622-.226,8.106,22.362Z" transform="translate(-845.241 -316.682)" fill="#0c537a"/>
            </g>
            <g id="Group_1179" data-name="Group 1179" transform="translate(36.676 12.075)">
              <path id="Path_3591" data-name="Path 3591" d="M901.336,351.814l-.413-.515,17.336-16.286.453.482-14.248,13.385,17.9-12.2.373.547Z" transform="translate(-900.923 -335.014)" fill="#0c537a"/>
            </g>
          </g>
        </g>
        <g id="Group_1183" data-name="Group 1183" transform="translate(2.119 42.192)">
          <g id="Group_1182" data-name="Group 1182">
            <path id="Path_3592" data-name="Path 3592" d="M851.863,350.577,869.226,361.7l-5.8,24.66-16.555-13.631Z" transform="translate(-846.869 -347.636)" fill="#fed093"/>
            <path id="Path_3593" data-name="Path 3593" d="M877.806,366.013l-5.8,24.66,20.345-5.309L897.26,363.2Z" transform="translate(-855.448 -351.945)" fill="#f2bd74"/>
            <path id="Path_3594" data-name="Path 3594" d="M854.452,349.053l17.363,11.128,19.454-2.813-16.936-11.255Z" transform="translate(-849.457 -346.112)" fill="#ebb367"/>
          </g>
          <path id="Path_3595" data-name="Path 3595" d="M865.091,363.887l-4.254-3.569,1.09-4.562,4.427,2.845Z" transform="translate(-851.637 -349.404)" fill="#fff"/>
          <path id="Path_3596" data-name="Path 3596" d="M891.133,370.671l5.408-1.262,1.138-4.764-5.273.7Z" transform="translate(-861.978 -352.438)" fill="#fff"/>
          <path id="Path_3597" data-name="Path 3597" d="M881.187,350.258l-18.695,3.621,4.34,2.852,18.58-3.676Z" transform="translate(-852.201 -347.527)" fill="#fff"/>
          <path id="Path_3598" data-name="Path 3598" d="M870.109,347.815l15.12,11.526,5.273-.7-15.361-11.584Z" transform="translate(-854.802 -346.435)" fill="#fff"/>
        </g>
      </g>
      <g id="Group_1185" data-name="Group 1185" transform="translate(3.457 1.913)">
        <path id="Path_3599" data-name="Path 3599" d="M881.567,284.959S858.611,284.431,848.9,307" transform="translate(-848.901 -284.958)" fill="none" stroke="#fff" stroke-width="1.064"/>
        <path id="Path_3600" data-name="Path 3600" d="M902.477,286.321s22.117,13.773,14.107,34.112" transform="translate(-867.188 -285.423)" fill="none" stroke="#fff" stroke-width="1.064"/>
        <path id="Path_3601" data-name="Path 3601" d="M887.574,287.47s-17.952,9.675-23.193,25.514" transform="translate(-854.185 -285.816)" fill="none" stroke="#fff" stroke-width="1.064"/>
        <path id="Path_3602" data-name="Path 3602" d="M901.076,288.6a34.663,34.663,0,0,1,4.275,31.687" transform="translate(-866.71 -286.201)" fill="none" stroke="#fff" stroke-width="1.064"/>
      </g>
      <g id="Group_1186" data-name="Group 1186" transform="translate(12.53 48.309)">
        <line id="Line_37" data-name="Line 37" y1="0.789" x2="5.433" transform="translate(19.805 5.959)" stroke="#e0f5ee" stroke-width="1.064" fill="url(#linear-gradient)"/>
        <line id="Line_38" data-name="Line 38" x2="4.382" y2="3.33" stroke="#e0f5ee" stroke-width="1.064" fill="url(#linear-gradient)"/>
      </g>
    </g>
    <g id="Groupe_de_masques_1" data-name="Groupe de masques 1" transform="translate(1253.839 1107.2) rotate(-13)" clip-path="url(#clip-path)">
      <g id="Groupe_17" data-name="Groupe 17" transform="translate(1.034 0.951)">
        <g id="Group_12473" data-name="Group 12473" transform="translate(0 3.144)">
          <path id="Path_12371" data-name="Path 12371" d="M.315,0a.106.106,0,0,1,0,.084h-.2A.276.276,0,0,0,.067.038.34.34,0,0,0,.006,0Zm0,.225a.106.106,0,0,1,0,.084H.1V.433a.158.158,0,0,1-.045.05A.186.186,0,0,1,0,.511V.025A.236.236,0,0,1,.055.057.327.327,0,0,1,.1.1V.226Zm0,.314h-.3A.278.278,0,0,0,.071.5.213.213,0,0,0,.119.456h.2A.1.1,0,0,1,.315.54ZM.394.012A.172.172,0,0,1,.453,0,.148.148,0,0,1,.512.014L.829.537H.711ZM.541.3.6.4.513.538H.394ZM.626.155.711.014A.151.151,0,0,1,.771,0L.8,0,.829.012.684.254ZM1.075,0a.241.241,0,0,1,.082.014.221.221,0,0,1,.067.038.18.18,0,0,1,.045.057.152.152,0,0,1,.017.07.187.187,0,0,1-.033.114.165.165,0,0,1-.11.059l-.02,0H1.1l-.023,0A.071.071,0,0,1,1.059.341v-.1A.067.067,0,0,0,1.1.258.106.106,0,0,0,1.143.25.094.094,0,0,0,1.182.221.068.068,0,0,0,1.2.179.065.065,0,0,0,1.186.145.08.08,0,0,0,1.161.119.132.132,0,0,0,1.123.1.18.18,0,0,0,1.075.1L1.053.1,1.035.1A.245.245,0,0,0,.985.067.3.3,0,0,0,.926.042.2.2,0,0,1,.994.01.323.323,0,0,1,1.075,0ZM.906.066A.287.287,0,0,1,.965.088a.215.215,0,0,1,.048.034V.539H.906ZM1.68,0a.106.106,0,0,1,0,.084h-.2A.276.276,0,0,0,1.431.038.34.34,0,0,0,1.37,0Zm0,.225a.106.106,0,0,1,0,.084H1.466V.433a.158.158,0,0,1-.045.05.186.186,0,0,1-.057.028V.025A.236.236,0,0,1,1.42.057.327.327,0,0,1,1.466.1V.226Zm0,.314h-.3A.278.278,0,0,0,1.436.5.213.213,0,0,0,1.483.456h.2A.1.1,0,0,1,1.68.54ZM1.793.029a.338.338,0,0,1,.058.033A.256.256,0,0,1,1.9.106V.537H1.793V.029ZM1.9,0a.378.378,0,0,1,.131.021.255.255,0,0,1,.093.057.234.234,0,0,1,.055.085.293.293,0,0,1,.018.1.3.3,0,0,1-.015.094.232.232,0,0,1-.045.08A.256.256,0,0,1,2.066.5.314.314,0,0,1,1.96.531V.448A.155.155,0,0,0,2.017.422.194.194,0,0,0,2.059.378.2.2,0,0,0,2.086.324.188.188,0,0,0,2.095.267.205.205,0,0,0,2.083.2.177.177,0,0,0,2.049.14.173.173,0,0,0,1.992.1.214.214,0,0,0,1.911.079.323.323,0,0,0,1.864.041.329.329,0,0,0,1.81.013.216.216,0,0,1,1.854,0,.411.411,0,0,1,1.9,0Zm.5,0V.539H2.294V.063A.048.048,0,0,1,2.325.018.181.181,0,0,1,2.4,0Zm.421,0a.106.106,0,0,1,0,.084h-.2A.276.276,0,0,0,2.576.038.34.34,0,0,0,2.515,0Zm0,.225a.106.106,0,0,1,0,.084H2.611V.433a.158.158,0,0,1-.045.05.186.186,0,0,1-.057.028V.025a.236.236,0,0,1,.055.033A.327.327,0,0,1,2.611.1V.226Zm0,.314h-.3A.278.278,0,0,0,2.58.5.213.213,0,0,0,2.628.456h.2A.1.1,0,0,1,2.825.54ZM3.135.1H2.9q0-.014,0-.031A.14.14,0,0,1,2.915.034.072.072,0,0,1,2.93.01.031.031,0,0,1,2.954,0h.238Zm-.119.44h-.1a.01.01,0,0,1-.008,0,.02.02,0,0,1,0-.013l.13-.208L3.224,0h.1s.005,0,.006.006a.087.087,0,0,1,0,.01L3.169.289ZM3.322.475a.092.092,0,0,1,.01.032q0,.016,0,.03H3.049l.057-.1h.108a.517.517,0,0,1,.06,0A.054.054,0,0,1,3.3.45.074.074,0,0,1,3.322.475ZM3.534.439a.15.15,0,0,1,0,.053.186.186,0,0,1-.017.057A.233.233,0,0,1,3.483.6L3.471.611,3.452.63l-.02.017q-.01.007-.014.006L3.392.64,3.42.613a.223.223,0,0,0,.022-.03A.145.145,0,0,0,3.458.545a.073.073,0,0,0,0-.022.046.046,0,0,0,0-.022.062.062,0,0,1-.029,0A.058.058,0,0,1,3.405.491a.06.06,0,0,1-.017-.02A.065.065,0,0,1,3.381.444.063.063,0,0,1,3.387.417.076.076,0,0,1,3.4.395.082.082,0,0,1,3.428.379.083.083,0,0,1,3.457.372a.067.067,0,0,1,.054.02A.088.088,0,0,1,3.534.439Zm.3-.367a.137.137,0,0,1,.053.019A.245.245,0,0,1,3.93.127v.41h-.1ZM4.147.054a.1.1,0,0,1,.027.04.144.144,0,0,1,.011.055.2.2,0,0,1-.01.061.17.17,0,0,1-.028.053A.134.134,0,0,1,4.1.3a.14.14,0,0,1-.064.014H4.011L4,.31S3.989.307,3.989.3V.216s0,0,0,0L4,.223l.011,0h.009a.073.073,0,0,0,.031,0A.077.077,0,0,0,4.08.208.073.073,0,0,0,4.1.184.069.069,0,0,0,4.1.155.066.066,0,0,0,4.081.105.088.088,0,0,0,4.018.084a.081.081,0,0,0-.029,0l-.01,0L3.965.1,3.951.1s-.006,0-.006.006h0L3.926.094,3.9.076,3.874.063,3.848.054A.137.137,0,0,1,3.878.032.234.234,0,0,1,3.915.015.244.244,0,0,1,3.958,0,.281.281,0,0,1,4,0,.249.249,0,0,1,4.08.013.166.166,0,0,1,4.147.054Zm.073.46L4.226.52l.01.01.014.013h-.1L4.123.517A.081.081,0,0,1,4.1.487.181.181,0,0,1,4.095.45a.293.293,0,0,1,0-.034.139.139,0,0,0,0-.035A.045.045,0,0,0,4.07.354L4.061.347,4.049.338A.147.147,0,0,0,4.142.3a.087.087,0,0,1,.026.027.125.125,0,0,1,.014.033A.211.211,0,0,1,4.189.4q0,.019,0,.036a.13.13,0,0,0,0,.022A.078.078,0,0,0,4.2.477a.12.12,0,0,0,.009.017ZM4.629,0a.106.106,0,0,1,0,.084h-.2A.276.276,0,0,0,4.38.038.34.34,0,0,0,4.319,0Zm0,.225a.106.106,0,0,1,0,.084H4.415V.433a.158.158,0,0,1-.045.05.186.186,0,0,1-.057.028V.025a.236.236,0,0,1,.055.033A.327.327,0,0,1,4.415.1V.226Zm0,.314h-.3A.278.278,0,0,0,4.385.5.213.213,0,0,0,4.432.456h.2A.1.1,0,0,1,4.629.54Zm.2-.268a.265.265,0,0,0,.015.089.285.285,0,0,0,.1.138.3.3,0,0,0,.08.041l-.037,0A.282.282,0,0,1,4.882.521.266.266,0,0,1,4.737.378.265.265,0,0,1,4.716.272a.277.277,0,0,1,.02-.107A.271.271,0,0,1,4.792.079.26.26,0,0,1,4.877.021.268.268,0,0,1,4.984,0l.023,0,.023,0a.288.288,0,0,0-.08.038A.272.272,0,0,0,4.887.1a.283.283,0,0,0-.042.078A.273.273,0,0,0,4.83.272Zm.165.17.035,0L5.055.433l.02-.008L5.093.413A.2.2,0,0,0,5.11.458.147.147,0,0,0,5.139.5a.184.184,0,0,1-.04.02.26.26,0,0,1-.046.012L5.014.509,4.973.485A.312.312,0,0,1,4.937.458.2.2,0,0,1,4.91.43l.037.009A.178.178,0,0,0,4.994.442ZM5.053.014A.233.233,0,0,1,5.1.026l.039.016A.282.282,0,0,0,5.11.085a.158.158,0,0,0-.017.047A.292.292,0,0,0,5.05.111.217.217,0,0,0,4.992.1a.269.269,0,0,0-.049,0L4.91.109A.178.178,0,0,1,4.937.081.345.345,0,0,1,4.973.056l.04-.023ZM5.534,0a.106.106,0,0,1,0,.084h-.2A.276.276,0,0,0,5.285.038.34.34,0,0,0,5.224,0Zm0,.225a.106.106,0,0,1,0,.084H5.32V.433a.158.158,0,0,1-.045.05.186.186,0,0,1-.057.028V.025a.236.236,0,0,1,.055.033A.327.327,0,0,1,5.32.1V.226Zm0,.314h-.3A.278.278,0,0,0,5.29.5.213.213,0,0,0,5.337.456h.2A.1.1,0,0,1,5.534.54Zm.4-.532A.169.169,0,0,1,6,0,.167.167,0,0,1,6.05.012L5.914.481a.105.105,0,0,1-.021.029.119.119,0,0,1-.027.02.08.08,0,0,1-.039.009A.078.078,0,0,1,5.788.531a.123.123,0,0,1-.027-.02A.105.105,0,0,1,5.741.481L5.6.012A.16.16,0,0,1,5.659,0a.164.164,0,0,1,.057.008l.112.429ZM6.432,0a.106.106,0,0,1,0,.084h-.2A.276.276,0,0,0,6.184.038.34.34,0,0,0,6.122,0Zm0,.225a.106.106,0,0,1,0,.084H6.219V.433a.158.158,0,0,1-.045.05.186.186,0,0,1-.057.028V.025a.236.236,0,0,1,.055.033A.327.327,0,0,1,6.219.1V.226Zm0,.314h-.3A.278.278,0,0,0,6.188.5.213.213,0,0,0,6.235.456h.2A.1.1,0,0,1,6.432.54ZM6.743.1H6.511q0-.014,0-.031A.14.14,0,0,1,6.523.034.071.071,0,0,1,6.538.01.031.031,0,0,1,6.561,0H6.8Zm-.119.44h-.1a.01.01,0,0,1-.008,0,.02.02,0,0,1,0-.013l.13-.208L6.832,0h.1s.005,0,.006.006a.087.087,0,0,1,0,.01L6.776.289ZM6.929.475a.092.092,0,0,1,.01.032q0,.016,0,.03H6.657l.057-.1h.108a.517.517,0,0,1,.06,0,.054.054,0,0,1,.03.01A.074.074,0,0,1,6.929.475Zm.622.064L7.513.4,7.486.407A.117.117,0,0,1,7.45.413a.106.106,0,0,1-.025,0L7.406.4,7.389.393,7.406.315l.012,0,.013,0h.016l.021,0A.039.039,0,0,0,7.49.309L7.428.1,7.305.538H7.194L7.339.057A.106.106,0,0,1,7.36.029.128.128,0,0,1,7.388.01.085.085,0,0,1,7.428,0a.087.087,0,0,1,.04.009A.125.125,0,0,1,7.5.029a.135.135,0,0,1,.022.028l.146.481ZM7.937.008A.169.169,0,0,1,7.994,0a.167.167,0,0,1,.055.012L7.912.481a.105.105,0,0,1-.021.029.119.119,0,0,1-.027.02.08.08,0,0,1-.039.009A.078.078,0,0,1,7.787.531.123.123,0,0,1,7.76.511.105.105,0,0,1,7.739.481L7.6.012A.16.16,0,0,1,7.657,0a.164.164,0,0,1,.057.008l.112.429ZM8.431,0a.106.106,0,0,1,0,.084h-.2A.276.276,0,0,0,8.182.038.34.34,0,0,0,8.121,0Zm0,.225a.106.106,0,0,1,0,.084H8.217V.433a.158.158,0,0,1-.045.05.186.186,0,0,1-.057.028V.025a.236.236,0,0,1,.055.033A.327.327,0,0,1,8.217.1V.226Zm0,.314h-.3A.278.278,0,0,0,8.187.5.213.213,0,0,0,8.234.456h.2A.1.1,0,0,1,8.431.54Zm.2-.268a.265.265,0,0,0,.015.089A.285.285,0,0,0,8.75.5a.3.3,0,0,0,.08.041l-.037,0A.282.282,0,0,1,8.684.521.266.266,0,0,1,8.539.378.265.265,0,0,1,8.518.272a.277.277,0,0,1,.02-.107A.271.271,0,0,1,8.594.079.26.26,0,0,1,8.679.021.268.268,0,0,1,8.786,0l.023,0,.023,0a.288.288,0,0,0-.08.038A.272.272,0,0,0,8.689.1a.283.283,0,0,0-.042.078A.273.273,0,0,0,8.631.272ZM8.8.442l.035,0L8.857.433l.02-.008L8.9.413a.2.2,0,0,0,.017.044A.147.147,0,0,0,8.941.5a.184.184,0,0,1-.04.02.26.26,0,0,1-.046.012L8.815.509,8.775.485A.312.312,0,0,1,8.739.458.2.2,0,0,1,8.712.43l.037.009A.178.178,0,0,0,8.8.442ZM8.855.014A.233.233,0,0,1,8.9.026l.039.016a.282.282,0,0,0-.029.043A.158.158,0,0,0,8.9.132.292.292,0,0,0,8.852.111.217.217,0,0,0,8.794.1a.269.269,0,0,0-.049,0L8.712.109A.178.178,0,0,1,8.739.081.345.345,0,0,1,8.775.056l.04-.023ZM9.5.266A.2.2,0,0,1,9.55.319.132.132,0,0,1,9.568.39a.127.127,0,0,1-.014.063A.137.137,0,0,1,9.519.5a.172.172,0,0,1-.046.025.283.283,0,0,1-.046.013l-.035,0H9.38A.328.328,0,0,0,9.409.5.329.329,0,0,0,9.432.456.229.229,0,0,0,9.447.4.046.046,0,0,0,9.429.357.229.229,0,0,0,9.384.33L9.327.3A.215.215,0,0,1,9.274.272.208.208,0,0,1,9.23.221.121.121,0,0,1,9.211.155.144.144,0,0,1,9.224.09.135.135,0,0,1,9.258.046.157.157,0,0,1,9.3.02.306.306,0,0,1,9.349.006a.21.21,0,0,1,.036,0H9.4l-.01.01A.189.189,0,0,0,9.369.04a.258.258,0,0,0-.023.045.155.155,0,0,0-.011.059A.046.046,0,0,0,9.353.18.231.231,0,0,0,9.4.208L9.45.235A.265.265,0,0,1,9.5.266ZM9.413.095h-.02A.1.1,0,0,0,9.368.1.257.257,0,0,1,9.4.038.3.3,0,0,1,9.429,0l.029,0L9.493.01l.034.012a.145.145,0,0,1,.03.018.148.148,0,0,0-.021.04L9.518.128A.318.318,0,0,0,9.47.105.159.159,0,0,0,9.413.095Zm-.05.348h.021a.078.078,0,0,0,.023,0A.269.269,0,0,1,9.377.5q-.017.025-.031.042l-.026,0L9.3.532,9.269.524,9.249.516,9.234.508,9.219.5,9.242.458A.153.153,0,0,0,9.258.41a.221.221,0,0,0,.048.023A.17.17,0,0,0,9.362.443ZM9.966,0a.106.106,0,0,1,0,.084h-.2A.276.276,0,0,0,9.717.038.34.34,0,0,0,9.656,0Zm0,.225a.106.106,0,0,1,0,.084H9.752V.433a.158.158,0,0,1-.045.05A.186.186,0,0,1,9.65.511V.025a.236.236,0,0,1,.055.033A.327.327,0,0,1,9.752.1V.226Zm0,.314h-.3A.278.278,0,0,0,9.722.5.213.213,0,0,0,9.769.456h.2A.1.1,0,0,1,9.966.54Zm.111-.468a.137.137,0,0,1,.053.019.245.245,0,0,1,.045.036v.41h-.1Zm.315-.018a.1.1,0,0,1,.027.04.144.144,0,0,1,.011.055.2.2,0,0,1-.01.061.17.17,0,0,1-.028.053A.134.134,0,0,1,10.347.3a.14.14,0,0,1-.064.014h-.026l-.016,0s-.007,0-.007-.006V.216s0,0,0,0l.009,0,.011,0h.009a.073.073,0,0,0,.031,0,.077.077,0,0,0,.026-.016.073.073,0,0,0,.018-.024.069.069,0,0,0,.006-.029.066.066,0,0,0-.023-.049.088.088,0,0,0-.063-.022.081.081,0,0,0-.029,0l-.01,0L10.21.1,10.2.1s-.006,0-.006.006h0l-.02-.017L10.146.076,10.119.063,10.093.054a.137.137,0,0,1,.029-.022A.234.234,0,0,1,10.16.015.244.244,0,0,1,10.2,0a.281.281,0,0,1,.045,0,.249.249,0,0,1,.078.012A.166.166,0,0,1,10.392.054Zm.073.46.006.006.01.01.014.013h-.1L10.368.517a.081.081,0,0,1-.02-.029A.181.181,0,0,1,10.34.45a.293.293,0,0,1,0-.034.139.139,0,0,0,0-.035.045.045,0,0,0-.018-.027l-.01-.007L10.294.338A.147.147,0,0,0,10.387.3a.087.087,0,0,1,.026.027.125.125,0,0,1,.014.033A.212.212,0,0,1,10.434.4q0,.019,0,.036a.13.13,0,0,0,0,.022.078.078,0,0,0,.005.018.12.12,0,0,0,.009.017ZM10.874,0a.106.106,0,0,1,0,.084h-.2a.276.276,0,0,0-.052-.048A.34.34,0,0,0,10.564,0Zm0,.225a.106.106,0,0,1,0,.084H10.66V.433a.158.158,0,0,1-.045.05.186.186,0,0,1-.057.028V.025a.236.236,0,0,1,.055.033A.327.327,0,0,1,10.66.1V.226Zm0,.314h-.3A.278.278,0,0,0,10.63.5a.213.213,0,0,0,.047-.048h.2A.1.1,0,0,1,10.874.54ZM11.3,0l.034,0a.121.121,0,0,1,.034.009.06.06,0,0,1,.024.022.053.053,0,0,1,.01.029V.54h-.1V0Zm-.136.057A.123.123,0,0,0,11.138.03.111.111,0,0,0,11.11.01.087.087,0,0,0,11.07,0a.076.076,0,0,0-.038.009.123.123,0,0,0-.027.02.135.135,0,0,0-.022.028V.54H11.1L11.07.1l.2.416V.288ZM11.611,0V.539H11.5V.063a.048.048,0,0,1,.031-.045A.181.181,0,0,1,11.611,0Zm.333.536h-.1V.127h.1ZM12.1.051a.134.134,0,0,1,0,.036q0,.014-.013.014H11.7q-.008,0-.012-.014a.129.129,0,0,1,0-.035.139.139,0,0,1,0-.036Q11.694,0,11.7,0h.382q.009,0,.013.014A.135.135,0,0,1,12.1.051ZM12.494,0a.106.106,0,0,1,0,.084h-.2a.276.276,0,0,0-.052-.048A.34.34,0,0,0,12.184,0Zm0,.225a.106.106,0,0,1,0,.084H12.28V.433a.158.158,0,0,1-.045.05.186.186,0,0,1-.057.028V.025a.236.236,0,0,1,.055.033A.327.327,0,0,1,12.28.1V.226Zm0,.314h-.3A.278.278,0,0,0,12.25.5.213.213,0,0,0,12.3.456h.2A.1.1,0,0,1,12.494.54Z" transform="translate(0 0.22)" fill="#00a1ed"/>
          <path id="Path_12372" data-name="Path 12372" d="M0,.069A1.413,1.413,0,0,0,.286,0C.3-.021.294.093.228.109S0,.158,0,.158Z" transform="translate(1.374)" fill="#00a1ed"/>
          <path id="Path_12373" data-name="Path 12373" d="M0,.069A1.413,1.413,0,0,0,.286,0C.3-.021.294.093.228.109S0,.158,0,.158Z" transform="translate(9.686)" fill="#00a1ed"/>
          <path id="Path_12374" data-name="Path 12374" d="M0,.069A1.413,1.413,0,0,0,.286,0C.3-.021.294.093.228.109S0,.158,0,.158Z" transform="translate(10.599)" fill="#00a1ed"/>
          <path id="Path_12375" data-name="Path 12375" d="M0,.069A1.414,1.414,0,0,0,.286,0C.3-.021.294.093.228.109S0,.158,0,.158Z" transform="translate(12.228)" fill="#00a1ed"/>
        </g>
        <g id="Group_12480" data-name="Group 12480" transform="translate(0.329 0)">
          <path id="Path_12376" data-name="Path 12376" d="M.386.921a.9.9,0,0,0,.05.3.964.964,0,0,0,.352.467,1,1,0,0,0,.27.137,1.014,1.014,0,0,1-.127.008.953.953,0,0,1-.367-.07.9.9,0,0,1-.492-.483A.9.9,0,0,1,0,.921.939.939,0,0,1,.069.56.917.917,0,0,1,.259.268a.879.879,0,0,1,.287-.2A.909.909,0,0,1,.909,0a.639.639,0,0,1,.08.007.62.62,0,0,0,.08.007A.973.973,0,0,0,.8.141a.922.922,0,0,0-.217.2A.955.955,0,0,0,.437.611.924.924,0,0,0,.386.921ZM1.144.047a.8.8,0,0,1,.16.04q.071.027.131.054a.947.947,0,0,0-.1.146.533.533,0,0,0-.057.16A1,1,0,0,0,1.133.376a.736.736,0,0,0-.2-.039A.911.911,0,0,0,.769.345.928.928,0,0,0,.658.37.6.6,0,0,1,.751.276,1.148,1.148,0,0,1,.873.189Q.939.147,1.009.112ZM.944,1.5q.067-.005.117-.014a.755.755,0,0,0,.088-.019.322.322,0,0,0,.067-.027q.03-.016.062-.038a.657.657,0,0,0,.057.15.5.5,0,0,0,.1.136.623.623,0,0,1-.136.069.882.882,0,0,1-.155.042l-.135-.074q-.07-.039-.136-.081a1.044,1.044,0,0,1-.121-.089.659.659,0,0,1-.093-.1q.046.014.125.03A.6.6,0,0,0,.944,1.5Z" transform="translate(0 0.006)" fill="#0090df"/>
          <path id="Path_12377" data-name="Path 12377" d="M.337,1.408A.725.725,0,0,1,0,1.751V0A.494.494,0,0,1,.108.013.432.432,0,0,1,.217.054.313.313,0,0,1,.3.12.129.129,0,0,1,.337.208Zm.58.08v.337H.076a1.02,1.02,0,0,0,.34-.337Z" transform="translate(3.579 0.008)" fill="#0090df"/>
          <path id="Path_12378" data-name="Path 12378" d="M.37,0V1.815H0V.2A.162.162,0,0,1,.1.05.615.615,0,0,1,.37,0Z" transform="translate(4.76 0.016)" fill="#0090df"/>
          <path id="Path_12379" data-name="Path 12379" d="M.983.9a.671.671,0,0,1,.165.181.448.448,0,0,1,.063.24.43.43,0,0,1-.048.213.463.463,0,0,1-.12.142.583.583,0,0,1-.155.086.981.981,0,0,1-.272.061l-.043,0a1.118,1.118,0,0,0,.1-.129A1.113,1.113,0,0,0,.75,1.54.779.779,0,0,0,.8,1.335a.157.157,0,0,0-.062-.128.784.784,0,0,0-.152-.093Q.5,1.071.4,1.028A.725.725,0,0,1,.216.92.7.7,0,0,1,.065.747.411.411,0,0,1,0,.523.488.488,0,0,1,.046.3.459.459,0,0,1,.162.152.533.533,0,0,1,.314.063,1.045,1.045,0,0,1,.468.018.722.722,0,0,1,.591,0H.647A.21.21,0,0,1,.615.035a.63.63,0,0,0-.077.1A.879.879,0,0,0,.46.287a.527.527,0,0,0-.036.2A.154.154,0,0,0,.483.608.779.779,0,0,0,.628.7Q.714.747.81.793A.9.9,0,0,1,.983.9Zm-.468.6H.587a.262.262,0,0,0,.078-.013.912.912,0,0,1-.1.2q-.059.085-.1.142L.37,1.814A.62.62,0,0,1,.294,1.8Q.237,1.786.2,1.772a.665.665,0,0,1-.067-.027Q.1,1.732.08,1.718L.03,1.691q.041-.07.078-.143a.518.518,0,0,0,.051-.162.744.744,0,0,0,.161.078A.576.576,0,0,0,.514,1.5ZM.684.318l-.067,0A.325.325,0,0,0,.533.34.869.869,0,0,1,.638.127,1.024,1.024,0,0,1,.741,0a.882.882,0,0,1,.1.007A.8.8,0,0,1,.956.03a.812.812,0,0,1,.115.04.489.489,0,0,1,.1.059A.5.5,0,0,0,1.1.266L1.043.432A1.076,1.076,0,0,0,.878.353.539.539,0,0,0,.684.318Z" transform="translate(5.392 0.008)" fill="#0090df"/>
          <path id="Path_12380" data-name="Path 12380" d="M.771.038.832.082A.183.183,0,0,1,.874.128.177.177,0,0,1,.9.19.524.524,0,0,1,.9.283v.96a.678.678,0,0,1-.046.263.473.473,0,0,1-.125.178.488.488,0,0,1-.19.1.886.886,0,0,1-.24.031.442.442,0,0,1-.086-.008L.173,1.8Q.138,1.8.1,1.787L.031,1.768C.01,1.762,0,1.756,0,1.75S0,1.731.007,1.7s.009-.07.013-.109S.031,1.5.04,1.43c0,.005.007.011.02.018a.326.326,0,0,0,.049.017l.062.015a.322.322,0,0,0,.063.007.329.329,0,0,0,.219-.054.21.21,0,0,0,.067-.17V0Q.58,0,.646,0A.323.323,0,0,1,.771.038Z" transform="translate(7.468 0.011)" fill="#0090df"/>
          <path id="Path_12381" data-name="Path 12381" d="M1.068.761a.359.359,0,0,1,0,.286H.345v.415a.536.536,0,0,1-.151.169.628.628,0,0,1-.194.1V.078A.8.8,0,0,1,.188.189,1.109,1.109,0,0,1,.345.343V.761Zm0-.761a.359.359,0,0,1,0,.286H.4A.931.931,0,0,0,.227.123,1.155,1.155,0,0,0,.019,0Zm0,1.823H.038a.944.944,0,0,0,.2-.12A.722.722,0,0,0,.4,1.54h.666A.352.352,0,0,1,1.068,1.823Z" transform="translate(8.706 0.011)" fill="#0090df"/>
          <path id="Path_12382" data-name="Path 12382" d="M1.405.169A.451.451,0,0,1,1.392.29q-.013.048-.043.048H.054C.036.337.023.322.014.291A.438.438,0,0,1,0,.171.474.474,0,0,1,.014.05C.023.017.036,0,.054,0H1.349q.03,0,.043.049A.454.454,0,0,1,1.405.169ZM.871,1.821H.534V.423H.871Z" transform="translate(10.06 0.011)" fill="#0090df"/>
          <path id="Path_12383" data-name="Path 12383" d="M.386.921a.894.894,0,0,0,.05.3.964.964,0,0,0,.139.26.974.974,0,0,0,.213.207,1,1,0,0,0,.27.137,1.021,1.021,0,0,1-.127.008.954.954,0,0,1-.367-.07.9.9,0,0,1-.492-.484A.9.9,0,0,1,0,.921.938.938,0,0,1,.069.56.917.917,0,0,1,.259.268a.879.879,0,0,1,.287-.2A.908.908,0,0,1,.909,0a.639.639,0,0,1,.08.007.617.617,0,0,0,.08.007A.974.974,0,0,0,.8.141a.921.921,0,0,0-.217.2A.956.956,0,0,0,.437.611.925.925,0,0,0,.386.921ZM1.144.047a.794.794,0,0,1,.16.04q.071.027.131.054a.947.947,0,0,0-.1.146.533.533,0,0,0-.057.16A1,1,0,0,0,1.133.376a.736.736,0,0,0-.2-.039A.911.911,0,0,0,.769.345.934.934,0,0,0,.658.37.6.6,0,0,1,.751.276,1.154,1.154,0,0,1,.872.189Q.939.147,1.009.112ZM.944,1.5q.067-.005.117-.013a.77.77,0,0,0,.088-.019.324.324,0,0,0,.067-.027q.03-.016.062-.038a.658.658,0,0,0,.057.15.5.5,0,0,0,.1.136.621.621,0,0,1-.136.069.88.88,0,0,1-.155.042l-.135-.074q-.07-.039-.136-.081a1.047,1.047,0,0,1-.121-.089.659.659,0,0,1-.093-.1q.046.014.125.03A.6.6,0,0,0,.944,1.5Z" transform="translate(0.088)" fill="#003d65"/>
          <path id="Path_12384" data-name="Path 12384" d="M.337,1.408A.725.725,0,0,1,0,1.751V0A.492.492,0,0,1,.108.014a.429.429,0,0,1,.109.04A.313.313,0,0,1,.3.12.129.129,0,0,1,.337.208Zm.58.08v.337H.076a1.02,1.02,0,0,0,.34-.337Z" transform="translate(3.667 0.003)" fill="#003d65"/>
          <path id="Path_12385" data-name="Path 12385" d="M.37,0V1.815H0V.2A.161.161,0,0,1,.1.05.614.614,0,0,1,.37,0Z" transform="translate(4.848 0.011)" fill="#003d65"/>
          <path id="Path_12386" data-name="Path 12386" d="M.983.9a.672.672,0,0,1,.165.181.448.448,0,0,1,.063.24.43.43,0,0,1-.049.213.463.463,0,0,1-.12.142.579.579,0,0,1-.155.086A.944.944,0,0,1,.733,1.8a.952.952,0,0,1-.117.016l-.043,0a1.111,1.111,0,0,0,.1-.129A1.116,1.116,0,0,0,.75,1.54a.777.777,0,0,0,.052-.2.157.157,0,0,0-.062-.128.781.781,0,0,0-.152-.093Q.5,1.071.4,1.028A.723.723,0,0,1,.216.92.7.7,0,0,1,.065.747.411.411,0,0,1,0,.523.487.487,0,0,1,.046.3.458.458,0,0,1,.162.152.532.532,0,0,1,.314.063,1.042,1.042,0,0,1,.468.018.721.721,0,0,1,.591,0H.647A.205.205,0,0,1,.615.035a.631.631,0,0,0-.077.1A.874.874,0,0,0,.46.287a.527.527,0,0,0-.036.2A.155.155,0,0,0,.483.608.776.776,0,0,0,.628.7q.086.045.183.09A.9.9,0,0,1,.983.9Zm-.468.6H.587a.261.261,0,0,0,.078-.014.91.91,0,0,1-.1.2q-.059.085-.1.142L.37,1.814A.622.622,0,0,1,.294,1.8Q.237,1.786.2,1.772a.663.663,0,0,1-.067-.027C.112,1.736.095,1.727.08,1.718L.03,1.691q.041-.07.078-.143a.52.52,0,0,0,.051-.162.745.745,0,0,0,.161.078A.575.575,0,0,0,.514,1.5ZM.684.318l-.067,0A.323.323,0,0,0,.533.34.869.869,0,0,1,.638.127,1.011,1.011,0,0,1,.741,0a.873.873,0,0,1,.1.007A.834.834,0,0,1,1.071.07a.492.492,0,0,1,.1.059A.5.5,0,0,0,1.1.266q-.028.08-.058.166A1.08,1.08,0,0,0,.878.353.539.539,0,0,0,.684.318Z" transform="translate(5.479 0.003)" fill="#003d65"/>
          <path id="Path_12387" data-name="Path 12387" d="M.771.038.832.082A.183.183,0,0,1,.874.128.177.177,0,0,1,.9.19.524.524,0,0,1,.9.283v.96a.678.678,0,0,1-.046.263.474.474,0,0,1-.125.178.489.489,0,0,1-.19.1.888.888,0,0,1-.24.031.439.439,0,0,1-.086-.008L.173,1.8C.149,1.8.125,1.793.1,1.787L.031,1.768C.01,1.762,0,1.756,0,1.751S0,1.731.007,1.7s.009-.07.013-.109S.031,1.5.04,1.43c0,.005.007.011.02.018a.336.336,0,0,0,.049.018l.062.015a.325.325,0,0,0,.063.007.33.33,0,0,0,.219-.054.21.21,0,0,0,.067-.17V0Q.58,0,.646,0A.322.322,0,0,1,.771.038Z" transform="translate(7.556 0.005)" fill="#003d65"/>
          <path id="Path_12388" data-name="Path 12388" d="M1.068.761a.359.359,0,0,1,0,.286H.345v.415a.534.534,0,0,1-.151.169.628.628,0,0,1-.194.1V.078A.8.8,0,0,1,.187.189,1.107,1.107,0,0,1,.345.343V.761Zm0-.761a.359.359,0,0,1,0,.286H.4A.93.93,0,0,0,.227.123,1.148,1.148,0,0,0,.019,0Zm0,1.823H.038a.947.947,0,0,0,.2-.12A.72.72,0,0,0,.4,1.54h.666A.353.353,0,0,1,1.068,1.823Z" transform="translate(8.794 0.005)" fill="#003d65"/>
          <path id="Path_12389" data-name="Path 12389" d="M1.405.169A.451.451,0,0,1,1.392.29q-.014.048-.043.048H.054Q.027.337.014.291A.436.436,0,0,1,0,.171.471.471,0,0,1,.014.05Q.027,0,.054,0H1.349q.029,0,.043.049A.454.454,0,0,1,1.405.169ZM.871,1.821H.534V.423H.871Z" transform="translate(10.148 0.005)" fill="#003d65"/>
          <g id="Group_12475" data-name="Group 12475" transform="translate(1.592)">
            <path id="Path_12390" data-name="Path 12390" d="M.179.12c.005,0,.012,0,.017,0s.012,0,.018.009a.053.053,0,0,0,.02,0,.013.013,0,0,0,.008,0,.017.017,0,0,1,.016,0A.013.013,0,0,0,.276.123L.282.108A.027.027,0,0,0,.284.1s0-.01,0-.015-.006,0-.01,0a.012.012,0,0,1-.016,0l-.008,0C.243.09.241.091.234.086a.037.037,0,0,1-.01-.01s0-.01-.005-.014a.017.017,0,0,1,0-.014l-.011,0,0,0s0,0-.008,0S.2.06.2.064.2.068.2.074s0,0,0,0l0,.007C.183.081.181.081.183.071A.187.187,0,0,0,.173.055a.016.016,0,0,1,0-.012.012.012,0,0,0,0-.008A.059.059,0,0,0,.152.023.021.021,0,0,1,.139.009s0,0,0,0S.13,0,.128,0L.122,0s0,.01,0,.011A.046.046,0,0,1,.136.03l0,0C.146.034.15.041.155.044L.163.05s0,0,0,.005L.155.05c-.007,0,0,.008,0,.012S.15.074.142.074s0,0,0,.006,0,.005-.006,0L.125.077s0,0,0-.006H.138A.008.008,0,0,0,.145.057.053.053,0,0,0,.13.043.048.048,0,0,1,.107.019C.1.013.1.012.093.016l0,0a.015.015,0,0,1-.018,0C.063.02.059.023.06.031A.009.009,0,0,1,.053.04h0A.024.024,0,0,0,.039.052s0,.007,0,.012a0,0,0,0,1,0,0A.051.051,0,0,1,.022.083s-.007,0-.01,0A.012.012,0,0,0,0,.09S.006.1.011.1H.017s.007,0,.01,0L.053.083a.025.025,0,0,1,.019,0h0a.024.024,0,0,1,.013,0H.1a.011.011,0,0,1,.011,0c0,.006,0,.01,0,.014A.014.014,0,0,1,.111.1l0,0A.021.021,0,0,0,.122.116l.013,0A.011.011,0,0,1,.144.126.012.012,0,0,0,.152.132l.012,0C.17.14.175.137.174.131A.009.009,0,0,1,.179.12ZM.262.1H.271S.27.1.267.1H.259S.259.1.262.1ZM.2.093C.206.1.212.093.217.1A.021.021,0,0,1,.2.1ZM.06.059s0,0-.006,0,0,0,.006,0S.061.058.06.059ZM.1.031l0,0A.015.015,0,0,1,.1.039C.094.036.093.035.1.031ZM.1.053A.013.013,0,0,1,.1.064s0,0,0-.006a.111.111,0,0,0,0-.014S.1.042.1.043.1.05.1.053Z" transform="translate(0.809 0.777)" fill="url(#linear-gradient-3)"/>
            <path id="Path_12391" data-name="Path 12391" d="M.089.051a.007.007,0,0,0,0-.012l0,0C.08.031.073.024.064.019a.016.016,0,0,0-.015,0l0,0H.037l-.008,0,0,0a.012.012,0,0,1,0-.005A.013.013,0,0,1,.021,0a.013.013,0,0,1,0,0l0,0a.013.013,0,0,0,0,.009s0,0,0,.005,0,.006-.005.009L0,.032A.011.011,0,0,0,.01.051a.024.024,0,0,0,.02,0,.019.019,0,0,1,.023,0L.068.053A.035.035,0,0,0,.089.051Z" transform="translate(1.037 0.768)" fill="url(#linear-gradient-4)"/>
            <path id="Path_12392" data-name="Path 12392" d="M.01.015S.017.009.013,0L.019,0A.041.041,0,0,0,0,0v0A.017.017,0,0,1,0,.015Z" transform="translate(1.09 0.765)" fill="url(#linear-gradient-5)"/>
            <path id="Path_12393" data-name="Path 12393" d="M0,.006.016,0C.007,0,0,0,0,.006Z" transform="translate(1.033 0.822)" fill="url(#linear-gradient-6)"/>
            <path id="Path_12394" data-name="Path 12394" d="M.871.3C.869.29.867.282.864.274A.317.317,0,0,0,.843.226.445.445,0,0,0,.785.145L.768.127.76.118.751.11A.392.392,0,0,0,.714.08.419.419,0,0,0,.545.007.448.448,0,0,0,.455,0a.485.485,0,0,0-.09.011A.371.371,0,0,0,.3.032.031.031,0,0,1,.3.043h0v0A.043.043,0,0,1,.287.059h0A.059.059,0,0,0,.275.1.015.015,0,0,1,.269.115.106.106,0,0,1,.228.141l-.011,0A.017.017,0,0,0,.208.153L.2.16A.022.022,0,0,1,.192.169L.175.176A.013.013,0,0,0,.167.184L.156.212.144.242c0,.006,0,.007-.01.006h0C.117.242.115.23.106.22H.093L.076.248C.066.266.057.284.049.3v0h0l0,.008s0,0,0,0a.011.011,0,0,1,0,0,.054.054,0,0,1,0,.022s0,.005,0,.008.005,0,.008,0S.069.368.07.375s0,.008,0,.01-.013,0-.016,0S.046.38.041.38s-.01,0-.011,0a.011.011,0,0,1,0-.008L.048.345l0,0,0,0-.005,0h0l0,0h0a.583.583,0,0,0-.023.09A.433.433,0,0,0,0,.5C0,.514,0,.532,0,.55A.844.844,0,0,0,.008.656c0,.009,0,.018,0,.027V.69l0,.018C.02.725.024.742.03.758A.505.505,0,0,1,.018.707l0-.012h0L.032.712A.034.034,0,0,0,.055.725a.02.02,0,0,1,.015.01L.09.765A.019.019,0,0,0,.1.772L.133.787A.076.076,0,0,1,.16.805s0,0,.006,0a.007.007,0,0,1,.007,0A.328.328,0,0,0,.247.8.272.272,0,0,0,.36.754s0-.012,0-.011l-.016,0S.332.742.33.739L.31.722A.061.061,0,0,1,.3.708L.278.666a.017.017,0,0,1,0-.016l0-.005a.02.02,0,0,0,0-.013c0-.007,0-.015,0-.022A.015.015,0,0,1,.276.6C.282.587.288.575.293.563A.045.045,0,0,1,.311.541.015.015,0,0,0,.319.527a.1.1,0,0,1,0-.012.011.011,0,0,1,0-.009A.032.032,0,0,0,.342.484v0l0-.006s0-.006-.008,0H.325s0-.009,0-.011a.013.013,0,0,1,0-.014.055.055,0,0,0,0-.026s0-.006,0-.008,0,0,.007,0l.029,0H.369a.035.035,0,0,0,0-.026h0l0,0C.367.373.361.371.357.37s-.005,0,0-.009.008,0,.013,0l0,0V.35h0c.005,0,.005,0,.01,0l0,0a.008.008,0,0,0,0,0c0-.005,0-.006.006-.008A.017.017,0,0,0,.406.321.011.011,0,0,1,.412.313L.427.307s0,0,0-.005a.039.039,0,0,0,0-.015.016.016,0,0,1,0-.017L.441.265l0,.015,0,.005s.005,0,0,.008H.437C.437.3.445.3.447.3S.453.3.455.3s0,0,.008.006L.479.3s.007,0,.01,0A0,0,0,0,0,.494.3.008.008,0,0,1,.5.292.025.025,0,0,0,.5.287.029.029,0,0,1,.5.268c0-.006,0-.006.008,0s0,.005.006,0,0-.01,0-.014a.026.026,0,0,1,0-.008A.019.019,0,0,1,.531.242H.539L.548.237a.014.014,0,0,0-.017,0l-.014,0a.008.008,0,0,1-.008,0A.015.015,0,0,1,.5.22.016.016,0,0,0,.5.213.013.013,0,0,1,.5.2L.515.185.522.175C.52.168.516.165.509.166A.013.013,0,0,0,.5.179.012.012,0,0,1,.5.193L.491.2A.034.034,0,0,0,.48.215.013.013,0,0,0,.485.232c.006,0,.007.008,0,.013A.024.024,0,0,0,.477.266a.013.013,0,0,1,0,0c0,.006,0,.012-.009.013l0,0c0,.006,0,.006-.01,0l0,.007S.444.292.445.287s0-.005.01-.005a.032.032,0,0,0,0-.01A.063.063,0,0,1,.445.249a.015.015,0,0,0,0,0l0,0L.43.257A.01.01,0,0,1,.414.251l0-.023A.023.023,0,0,1,.421.2l0,0A.071.071,0,0,0,.45.171C.455.162.46.154.464.144S.469.137.467.132h0c0-.008,0-.01.007-.012l0,0s0-.007,0-.009L.489.108C.5.112.5.109.5.1a.017.017,0,0,0,.014,0,0,0,0,0,1,.006,0l0,.01h0L.525.1l0,0c0-.006,0-.006.011,0L.543.1.55.1s0,0-.009.006a.01.01,0,0,0,.012,0s.005,0,.007,0l0,0H.566l.008,0L.6.139A.02.02,0,0,1,.606.147.013.013,0,0,1,.6.164H.589L.574.158h0a.049.049,0,0,1,0,.019A.017.017,0,0,0,.591.191l0,0,0,0a.006.006,0,0,1,0,0l0,0,.005,0L.6.182c0-.01,0-.01,0-.016s.009-.008.015,0h0c0-.006,0-.009,0-.014V.133c.01,0,.014,0,.015.011l-.007,0L.633.154a0,0,0,0,0,.008,0,.008.008,0,0,1,0-.006L.665.134l0,0L.677.14C.68.135.683.133.688.135h0C.7.132.7.131.7.139s0-.006,0-.01L.7.124a.03.03,0,0,1,.023,0L.751.142a.009.009,0,0,0,0-.009L.74.127a.008.008,0,0,1,0-.009.007.007,0,0,0,0-.008l0,0h0L.746.117.755.125.764.133.781.15A.443.443,0,0,1,.84.229a.275.275,0,0,1,.036.1A.227.227,0,0,0,.871.3ZM.311.178A.031.031,0,0,1,.3.188L.285.2A.01.01,0,0,1,.273.2.012.012,0,0,0,.262.2h0l0-.007c0-.007-.008,0-.009-.006S.263.181.263.173l-.01,0s0-.011.008-.01v0S.267.165.27.167V.173h0A.014.014,0,0,1,.286.164a.021.021,0,0,0,.01,0S.3.159.3.163L.309.169A.008.008,0,0,1,.311.178ZM.346.316A.009.009,0,0,1,.339.325a.064.064,0,0,0-.01.006,0,0,0,0,1-.008,0,.016.016,0,0,1,0,0h0l0-.008s0,0,0,0A.011.011,0,0,1,.325.3s0,0,.007,0a.009.009,0,0,1,0-.01.011.011,0,0,1,.011,0S.35.3.346.306A.072.072,0,0,1,.346.316ZM.386.33l0,0a.015.015,0,0,1-.014,0H.368L.348.346S.353.333.361.333l-.012,0,0,0s0,0,0-.009,0,0,0,0H.362C.365.305.359.3.36.3H.352V.286h0l0,.007V.286h0l0,0V.271l0-.006H.348A.036.036,0,0,1,.354.255s.007,0,.01,0,0,.006,0,.011H.366l.005,0s0,0,0,.006L.365.281A.093.093,0,0,1,.384.314C.393.316.393.319.386.33Zm.261-.2s0,0,0,0a.011.011,0,0,1,0-.006s0,0,.005,0L.653.127ZM.684.109A.031.031,0,0,1,.656.1a.01.01,0,0,1,0-.012v0A.016.016,0,0,1,.662.068a.013.013,0,0,1,0-.01L.678.067l0,.013A.022.022,0,0,0,.68.1L.686.107ZM.7.123A.015.015,0,0,1,.693.115s0,0,0,0S.705.117.7.123Z" transform="translate(0.461 0.381)" fill="url(#linear-gradient-7)"/>
            <path id="Path_12395" data-name="Path 12395" d="M.846,0A1.191,1.191,0,0,1,.712.155L.675.188.608.244a.021.021,0,0,1,0,.005A.145.145,0,0,1,.584.307.318.318,0,0,1,.56.336.232.232,0,0,0,.548.362a.1.1,0,0,0,0,.025l0,0a.027.027,0,0,1,0,.025v0a.162.162,0,0,1-.01.034C.533.464.529.475.526.486A.014.014,0,0,1,.514.5h0L.508.5.5.513s0,0,0,0A.015.015,0,0,1,.5.526a.018.018,0,0,1,0,.014l-.007,0A.041.041,0,0,0,.478.568.085.085,0,0,1,.444.617C.429.627.4.639.4.613.4.609.4.606.4.6L.391.581a.02.02,0,0,0,0-.008A.022.022,0,0,1,.382.558.124.124,0,0,0,.371.507a.048.048,0,0,1,0-.033c0-.009,0-.018.006-.026a.041.041,0,0,0,0-.022L.369.4A.537.537,0,0,1,0,.464.6.6,0,0,0,.242.656.431.431,0,0,0,.51.661.381.381,0,0,0,.6.622.57.57,0,0,0,.859.189.733.733,0,0,0,.846,0ZM.584.467v0A.161.161,0,0,1,.573.5C.57.515.566.526.563.537a.014.014,0,0,1-.012.01S.543.544.543.539V.523a.022.022,0,0,1,0-.015.027.027,0,0,0,0-.022.032.032,0,0,1,0-.011A.007.007,0,0,1,.555.469C.565.466.571.457.577.448a.051.051,0,0,0,0-.011l0,.005A.027.027,0,0,1,.584.467Z" transform="translate(0.516 0.775)" fill="url(#linear-gradient-8)"/>
            <path id="Path_12396" data-name="Path 12396" d="M0,.013H.007A.035.035,0,0,1,.014,0,.031.031,0,0,1,.025,0c0,.006,0,.006,0,.011H.027l.006,0s0,0,0,.006L.026.028A.089.089,0,0,1,.048.06c.01,0,.011,0,0,.015l0,0a.019.019,0,0,1-.016,0H.03L.007.091S.013.079.021.078l-.013,0,0,0s.006,0,0-.009,0,0,0,0H.022c0-.006,0-.009,0-.014H.011l0-.011h0l0,.007V.033H0l0,0V.018Z" transform="translate(0.724 0.626)" fill="none"/>
            <path id="Path_12397" data-name="Path 12397" d="M.294,1.116A.533.533,0,0,0,.47,1,.582.582,0,0,0,.588.815.574.574,0,0,0,.631.591.637.637,0,0,0,.588.352.583.583,0,0,0,.47.165.522.522,0,0,0,.294.043.542.542,0,0,0,.079,0,.517.517,0,0,0,0,.006.542.542,0,0,1,.206.049.523.523,0,0,1,.382.171.584.584,0,0,1,.5.358.638.638,0,0,1,.543.6.575.575,0,0,1,.5.821.583.583,0,0,1,.382,1a.532.532,0,0,1-.176.121.533.533,0,0,1-.134.038H.079A.544.544,0,0,0,.294,1.116Z" transform="translate(0.852 0.325)" fill="#0090df"/>
            <path id="Path_12398" data-name="Path 12398" d="M.3.128A1.881,1.881,0,0,1,.5.015L.461,0A1.879,1.879,0,0,0,.209.134.8.8,0,0,0,0,.325Q.046.312.1.3H.1A.792.792,0,0,1,.3.128Z" transform="translate(0.631 0.044)" fill="#0090df"/>
            <path id="Path_12399" data-name="Path 12399" d="M.12.035H.1A.209.209,0,0,1,0,0,1,1,0,0,0,.2.2,1.188,1.188,0,0,0,.442.344L.5.325A1.187,1.187,0,0,1,.287.2,1,1,0,0,1,.12.035Z" transform="translate(0.631 1.452)" fill="#0090df"/>
            <path id="Path_12400" data-name="Path 12400" d="M.62,1.752a.855.855,0,0,1-.279-.194.911.911,0,0,1-.186-.29A.943.943,0,0,1,.088.91.951.951,0,0,1,.156.548.911.911,0,0,1,.341.258.857.857,0,0,1,.62.064.837.837,0,0,1,.862,0,.857.857,0,0,0,.253.264a.913.913,0,0,0-.185.29A.951.951,0,0,0,0,.915a.943.943,0,0,0,.068.359.913.913,0,0,0,.185.29.86.86,0,0,0,.627.264H.994L.978,1.823H.968A.859.859,0,0,1,.62,1.752Z" transform="translate(0 0.006)" fill="#0090df"/>
            <path id="Path_12401" data-name="Path 12401" d="M.377.3.434.257A.855.855,0,0,0,.293.126.857.857,0,0,0,.045,0L0,.021A.854.854,0,0,1,.205.132.858.858,0,0,1,.377.3Z" transform="translate(1.135 0.038)" fill="#003d65"/>
            <path id="Path_12402" data-name="Path 12402" d="M.2.038c-.037,0-.072,0-.105,0A.208.208,0,0,1,0,0L.032.041l.091,0A.57.57,0,0,0,.2.038Z" transform="translate(0.719 1.447)" fill="#003d65"/>
            <path id="Path_12403" data-name="Path 12403" d="M.617.261A.93.93,0,0,0,.491,0l0,0L.473.128A.968.968,0,0,1,.529.266a.981.981,0,0,1,.045.3.968.968,0,0,1-.045.3A.912.912,0,0,1,.4,1.116a.845.845,0,0,1-.2.2A.879.879,0,0,1,0,1.42l.03.014a.891.891,0,0,0,.26-.126.846.846,0,0,0,.2-.2A.913.913,0,0,0,.617.855a.968.968,0,0,0,.045-.3A.981.981,0,0,0,.617.261Z" transform="translate(1.13 0.357)" fill="#003d65"/>
            <path id="Path_12404" data-name="Path 12404" d="M.017.011,0,.032Q.046.019.1.007L.133,0H.124A.5.5,0,0,0,.017.011Z" transform="translate(0.719 0.331)" fill="#003d65"/>
            <path id="Path_12405" data-name="Path 12405" d="M.467,1.7a.9.9,0,0,1-.2-.206.978.978,0,0,1-.131-.267A1.007,1.007,0,0,1,.088.916a.977.977,0,0,1,.047-.3A1.028,1.028,0,0,1,.267.344a.925.925,0,0,1,.2-.211A.823.823,0,0,1,.719,0H.605A.934.934,0,0,0,.5.006H.631A.823.823,0,0,0,.379.138a.926.926,0,0,0-.2.211A1.03,1.03,0,0,0,.047.618.977.977,0,0,0,0,.921a1.007,1.007,0,0,0,.047.31A.981.981,0,0,0,.179,1.5a.9.9,0,0,0,.2.206.855.855,0,0,0,.235.124h.1A.853.853,0,0,1,.467,1.7Z" transform="translate(0.363)" fill="#003d65"/>
            <path id="Path_12406" data-name="Path 12406" d="M.454,1.493a.979.979,0,0,1-.131-.267A1.008,1.008,0,0,1,.275.916a.978.978,0,0,1,.047-.3A1.029,1.029,0,0,1,.454.344a.927.927,0,0,1,.2-.211A.823.823,0,0,1,.906,0H.775A.837.837,0,0,0,.532.065.857.857,0,0,0,.253.258a.91.91,0,0,0-.186.29A.952.952,0,0,0,0,.91a.944.944,0,0,0,.068.359.911.911,0,0,0,.186.29.86.86,0,0,0,.627.264H.89A.856.856,0,0,1,.654,1.7.9.9,0,0,1,.454,1.493Z" transform="translate(0.088 0.006)" fill="#003d65"/>
            <path id="Path_12407" data-name="Path 12407" d="M.8,1.414a.912.912,0,0,0,.127-.255.968.968,0,0,0,.045-.3.981.981,0,0,0-.045-.3A.968.968,0,0,0,.867.426L.859.5.788.37.642.38l.134-.1A.852.852,0,0,0,.4,0,1.881,1.881,0,0,0,.192.113.793.793,0,0,0,0,.283.5.5,0,0,1,.107.272H.116A.523.523,0,0,1,.194.266.543.543,0,0,1,.41.31.522.522,0,0,1,.586.432.583.583,0,0,1,.7.619.638.638,0,0,1,.747.857.575.575,0,0,1,.7,1.082a.581.581,0,0,1-.118.18.532.532,0,0,1-.176.121.543.543,0,0,1-.215.043H.188a.572.572,0,0,1-.081.006l-.091,0a1,1,0,0,0,.167.161,1.187,1.187,0,0,0,.212.128.878.878,0,0,0,.2-.106A.848.848,0,0,0,.8,1.414Z" transform="translate(0.736 0.059)" fill="#003d65"/>
            <g id="Group_12474" data-name="Group 12474" transform="translate(1.393 0.258)">
              <path id="Path_12408" data-name="Path 12408" d="M0,.152.2,0,.174.245.116.144Z" transform="translate(0.022 0.015)" fill="#0090df"/>
              <path id="Path_12409" data-name="Path 12409" d="M.2.281.134.166,0,.175.231,0ZM.141.152l.05.087L.215.029.043.159Z" fill="#0064b3"/>
            </g>
            <path id="Path_12410" data-name="Path 12410" d="M0,.792A.533.533,0,0,0,.142.759L.16.753.177.746.21.732.276.7.341.663.4.623.464.578C.484.564.5.547.523.531L.552.507.567.5.581.482.638.431C.657.414.674.395.693.377L.748.323.8.265.854.208C.888.168.981.038,1.018,0,.99.047.9.183.873.228S.809.315.776.357L.724.418C.706.437.689.458.67.476L.613.531.6.544.584.557.554.582A1.272,1.272,0,0,1,.428.673L.362.712.293.744.257.758.222.77.185.78l-.018,0-.018,0A.4.4,0,0,1,0,.792Z" transform="translate(0.514 0.414)" fill="#0068b6"/>
          </g>
          <g id="Group_12479" data-name="Group 12479" transform="translate(0.134 2.218)">
            <g id="Group_12476" data-name="Group 12476" transform="translate(0 0.246)">
              <rect id="Rectangle_2293" data-name="Rectangle 2293" width="4.93" height="0.038" fill="#003d65"/>
            </g>
            <g id="Group_12477" data-name="Group 12477" transform="translate(5.11 0)">
              <path id="Path_12411" data-name="Path 12411" d="M0,.529H1.112L.556,0Z" fill="#003d65"/>
            </g>
            <g id="Group_12478" data-name="Group 12478" transform="translate(6.348 0.246)">
              <rect id="Rectangle_2294" data-name="Rectangle 2294" width="4.93" height="0.038" fill="#003d65"/>
            </g>
          </g>
        </g>
      </g>
    </g>
  </g>
</svg>
