<svg xmlns="http://www.w3.org/2000/svg" width="21.477" height="21.477" viewBox="0 0 21.477 21.477">
  <path id="Icon_awesome-phone-alt" data-name="Icon awesome-phone-alt" d="M20.864,15.177l-4.7-2.013a1.007,1.007,0,0,0-1.175.289l-2.081,2.542A15.548,15.548,0,0,1,5.478,8.562L8.02,6.481A1,1,0,0,0,8.31,5.307L6.3.609A1.013,1.013,0,0,0,5.143.026L.78,1.033A1.007,1.007,0,0,0,0,2.014,19.461,19.461,0,0,0,19.464,21.477a1.007,1.007,0,0,0,.982-.78l1.007-4.363a1.019,1.019,0,0,0-.588-1.158Z" transform="translate(0 0)"/>
</svg>
