<svg xmlns="http://www.w3.org/2000/svg" width="37.385" height="40.055" viewBox="0 0 37.385 40.055">
  <path id="Tracé_1463" data-name="Tracé 1463" d="M43.1,36.231,41.71,25.859a13.344,13.344,0,0,0-7.65-10.33,9.867,9.867,0,0,0,.465-2.994,10.059,10.059,0,1,0-19.653,2.994,13.233,13.233,0,0,0-7.65,10.33L5.827,36.231a5.571,5.571,0,0,0,5.579,6.325H37.568A5.583,5.583,0,0,0,43.1,36.231ZM24.466,8.15a4.342,4.342,0,0,1,4.353,4.343,4.166,4.166,0,0,1-.38,1.771H20.493a4.166,4.166,0,0,1-.38-1.771A4.369,4.369,0,0,1,24.466,8.15Z" transform="translate(-5.773 -2.5)"/>
</svg>
