<svg xmlns="http://www.w3.org/2000/svg" width="14" height="15" viewBox="0 0 14 15">
  <path id="Tracé_7888" data-name="Tracé 7888" d="M19.753,15.132l-.522-3.884a5,5,0,0,0-2.865-3.868,3.7,3.7,0,0,0,.174-1.121A3.767,3.767,0,1,0,9.18,7.379a4.955,4.955,0,0,0-2.865,3.868l-.522,3.884A2.086,2.086,0,0,0,7.883,17.5h9.8A2.091,2.091,0,0,0,19.753,15.132ZM12.773,4.616A1.626,1.626,0,0,1,14.4,6.242a1.56,1.56,0,0,1-.142.663H11.285a1.56,1.56,0,0,1-.142-.663A1.636,1.636,0,0,1,12.773,4.616Z" transform="translate(-5.773 -2.5)" fill="#00a1ed"/>
</svg>
