<svg xmlns="http://www.w3.org/2000/svg" width="64.736" height="45.697" viewBox="0 0 64.736 45.697">
  <g id="Group_1107" data-name="Group 1107" transform="translate(-364.307 -276.035)">
    <path id="Path_3473" data-name="Path 3473" d="M418.633,293.041c-.133-1.408-.03-5.24,3.641-10.569a1.011,1.011,0,0,0-.119-1.288c-1.5-1.5-2.426-2.441-3.073-3.1-.853-.868-1.244-1.264-1.817-1.783a1.013,1.013,0,0,0-1.345-.014,38.78,38.78,0,0,0-12.475,31.164c.6,8.278,6.638,14.284,14.353,14.284a14.358,14.358,0,0,0,.835-28.691Zm-.835,26.665c-6.624,0-11.809-5.215-12.333-12.4v0c-1.16-15.849,8.263-26.148,11.113-28.873.276.277.593.6,1.062,1.072.562.572,1.333,1.358,2.5,2.529-4.46,6.864-3.615,11.754-3.249,12.455a1.045,1.045,0,0,0,.908.56,12.332,12.332,0,1,1,0,24.663Zm0,0" transform="translate(-3.113)" fill="#ff565b"/>
    <path id="Path_3474" data-name="Path 3474" d="M379.595,293.041c-.129-1.4-.036-5.23,3.64-10.569a1.011,1.011,0,0,0-.119-1.288c-1.492-1.492-2.415-2.435-3.067-3.1-.855-.873-1.249-1.269-1.817-1.788a1.013,1.013,0,0,0-1.345-.014,38.762,38.762,0,0,0-12.481,31.164c.608,8.278,6.643,14.284,14.358,14.284a14.358,14.358,0,0,0,.83-28.691Zm-.83,26.665c-6.624,0-11.814-5.215-12.337-12.405v0c-1.156-15.859,8.268-26.152,11.112-28.878.282.277.6.6,1.067,1.076.562.574,1.327,1.359,2.493,2.525-4.454,6.864-3.615,11.754-3.244,12.455a1.039,1.039,0,0,0,.908.56,12.332,12.332,0,1,1,0,24.663Zm0,0" fill="#ff565b"/>
  </g>
</svg>
